<?xml version="1.0" standalone="no"?>
<!DOCTYPE svg PUBLIC "-//W3C//DTD SVG 1.1//EN" "http://www.w3.org/Graphics/SVG/1.1/DTD/svg11.dtd" >
<svg xmlns="http://www.w3.org/2000/svg" xmlns:xlink="http://www.w3.org/1999/xlink" version="1.1">
<metadata>
Created by FontForge 20161003 at Thu Jul 25 07:40:34 2019
 By www-data
Copyright 2011 The Prata Project Authors (contact@cyreal.org)
</metadata>
<defs>
<font id="PrataRegular" horiz-adv-x="0" >
  <font-face 
    font-family="PrataRegular"
    font-weight="400"
    font-stretch="normal"
    units-per-em="1000"
    panose-1="0 0 5 0 0 0 0 0 0 0"
    ascent="800"
    descent="-200"
    x-height="517"
    cap-height="800"
    bbox="-576 -362 1182 1201"
    underline-thickness="50"
    underline-position="-150"
    unicode-range="U+000D-2215"
  />
<missing-glyph horiz-adv-x="252" 
 />
    <glyph glyph-name=".notdef" horiz-adv-x="252" 
 />
    <glyph glyph-name=".null" 
 />
    <glyph glyph-name="nonmarkingreturn" unicode="&#xd;" horiz-adv-x="239" 
 />
    <glyph glyph-name="NULL" 
 />
    <glyph glyph-name="NULL" 
 />
    <glyph glyph-name="space" unicode=" " horiz-adv-x="239" 
 />
    <glyph glyph-name="exclam" unicode="!" horiz-adv-x="262" 
d="M110.5 358q-7.5 93 -19.5 201q-6 57 -10.5 109t-4.5 84q0 23 15 40.5t40 17.5t40 -17.5t15 -40.5q0 -32 -4.5 -85t-10.5 -111q-12 -121 -19 -207.5t-9 -183.5h-24q-1 100 -8.5 193zM89 7.5q-17 17.5 -17 42.5t17 41.5t42 16.5t42 -16.5t17 -41.5t-17 -42.5t-42 -17.5
t-42 17.5z" />
    <glyph glyph-name="quotedbl" unicode="&#x22;" horiz-adv-x="276" 
d="M54 707q-9 45 -9 63q0 16 10 28t28 12q17 0 27 -12t10 -28q0 -18 -9 -63q-14 -74 -20 -142h-17q-6 68 -20 142zM165 708q-9 45 -9 62q0 16 10 28t28 12t27.5 -12t9.5 -28q0 -18 -9 -63q-14 -74 -20 -142h-16q-7 75 -21 143z" />
    <glyph glyph-name="numbersign" unicode="#" horiz-adv-x="585" 
d="M102 0l39 210h-103v45h112l24 128h-103v45h111l54 287h46l-55 -287h155l54 287h46l-55 -287h116v-45h-124l-24 -128h115v-45h-124l-39 -210h-45l39 210h-155l-39 -210h-45zM195 255h155l24 128h-155z" />
    <glyph glyph-name="dollar" unicode="$" horiz-adv-x="653" 
d="M552 54.5q-57 -61.5 -155 -72.5v-86h-25v84h-15q-30 0 -60 6v-90h-25v96q-50 13 -98 41l-85 -43h-22v257h22l86 -186q42 -31 97 -47v354l-27 7q-87 23 -131 78.5t-44 131.5q0 97 53.5 160t148.5 73v78h25v-76h7q40 0 68 -5v81h25v-85q37 -8 70 -22l73 31h22v-204h-22
l-72 146q-38 18 -71 25v-321l40 -11q87 -22 129.5 -75.5t42.5 -162.5q0 -101 -57 -162.5zM297 798v-306l75 -20v320q-33 6 -67 6h-8zM272 498v298q-73 -8 -113.5 -51.5t-40.5 -108.5q0 -54 35.5 -85t104.5 -49zM372 2v340l-75 20v-354q33 -6 68 -6h7zM520.5 57.5
q47.5 45.5 47.5 121.5q0 61 -37 96.5t-120 56.5l-14 4v-332q76 8 123.5 53.5z" />
    <glyph glyph-name="percent" unicode="%" horiz-adv-x="829" 
d="M81.5 426.5q-43.5 56.5 -43.5 161.5t43.5 161t114.5 56q72 0 115.5 -56t43.5 -161t-43.5 -161.5t-115.5 -56.5q-71 0 -114.5 56.5zM189 0l400 800h51l-399 -800h-52zM256.5 426q20.5 34 20.5 111v102q0 77 -20.5 111t-60.5 34q-39 0 -60 -34t-21 -111v-102q0 -77 21 -111
t60 -34q40 0 60.5 34zM517.5 51.5q-43.5 56.5 -43.5 161.5t43.5 161t115.5 56q71 0 114.5 -56t43.5 -161t-43.5 -161.5t-114.5 -56.5q-72 0 -115.5 56.5zM693 51q21 34 21 111v102q0 77 -21 111t-60 34q-40 0 -60.5 -34t-20.5 -111v-102q0 -77 20.5 -111t60.5 -34
q39 0 60 34z" />
    <glyph glyph-name="ampersand" unicode="&#x26;" horiz-adv-x="821" 
d="M133.5 44.5q-79.5 64.5 -79.5 173.5q0 105 76.5 162.5t200.5 63.5v3q-124 16 -183.5 59.5t-59.5 138.5q0 84 67.5 129.5t188.5 45.5q81 0 135.5 -39t54.5 -104q0 -33 -18.5 -51.5t-42.5 -18.5q-25 0 -42 15t-17 44q42 19 42 63q0 31 -27 49.5t-74 18.5q-68 0 -108.5 -40
t-40.5 -107q0 -96 56.5 -141.5t165.5 -51.5v-22q-118 -7 -177.5 -62t-59.5 -155q0 -67 25.5 -115.5t69 -74t97.5 -25.5q81 0 132 49.5t51 142.5q0 37 -11 79l-39 6q-45 9 -71 9q-43 0 -71.5 -13t-28.5 -42q0 -14 9 -21t23 -7q13 0 26 7t19 20q24 -6 36.5 -20.5t12.5 -34.5
q0 -24 -17.5 -42t-43.5 -18q-38 0 -63 33t-25 81q0 39 19 72t55.5 52.5t85.5 19.5q48 0 112 -10q50 -9 84 -9q47 0 75.5 14.5t28.5 40.5q0 14 -8.5 21.5t-22.5 7.5t-26.5 -7t-18.5 -21q-25 6 -37 20.5t-12 34.5q0 24 17.5 42t43.5 18q38 0 61.5 -29.5t23.5 -75.5
q0 -157 -150 -157q-43 0 -71 4q8 -40 8 -73q0 -103 -58 -160t-157 -57q-162 0 -241.5 64.5z" />
    <glyph glyph-name="quotesingle" unicode="'" horiz-adv-x="166" 
d="M55 707q-9 45 -9 63q0 16 9.5 28t27.5 12t28 -12t10 -28q0 -18 -9 -61q-1 -6 -8.5 -45t-11.5 -99h-17q-6 68 -20 142z" />
    <glyph glyph-name="parenleft" unicode="(" horiz-adv-x="346" 
d="M183 -92q-69 76 -106.5 191t-37.5 257q0 143 37 257.5t106 190.5t163 103l7 -23q-89 -32 -141 -160t-52 -368q0 -156 29.5 -267.5t73.5 -174t90 -85.5l-6 -24q-94 27 -163 103z" />
    <glyph glyph-name="parenright" unicode=")" horiz-adv-x="346" 
d="M-6 -171q46 23 90 85.5t73.5 174t29.5 267.5q0 240 -52 368t-141 160l7 23q94 -27 163 -103t106 -190.5t37 -257.5q0 -142 -37.5 -257t-106.5 -191t-163 -103z" />
    <glyph glyph-name="asterisk" unicode="*" horiz-adv-x="456" 
d="M209.5 381.5q-7.5 7.5 -7.5 19.5q0 6 3.5 28.5t5.5 37.5q11 79 11 85q-9 -5 -65 -50q-52 -41 -55 -43q-7 -4 -15 -4q-12 0 -19.5 7.5t-7.5 19.5q0 15 15 23q8 5 70 30q59 23 70 29q-6 4 -31.5 14t-38.5 15q-62 24 -71 29q-15 8 -15 24q0 11 8 18.5t19 7.5q8 0 15 -4
q9 -5 61 -47q52 -41 60 -46q0 18 -11 78q-10 64 -10 74q0 12 7.5 20t19.5 8t19.5 -8t7.5 -20q0 -10 -10 -74q-10 -66 -10 -78q13 7 57 44q10 8 33.5 26.5t31.5 22.5q8 5 15 5q13 0 22 -14q4 -8 4 -13q0 -16 -15 -24q-6 -4 -70 -29q-11 -4 -37.5 -14t-33.5 -15q6 -4 70 -29
q60 -23 70 -30q15 -8 15 -23q0 -7 -4 -14q-7 -13 -22 -13q-8 0 -15 4t-57 44q-55 45 -64 49q0 -16 11 -75q10 -66 10 -76q0 -12 -7.5 -20t-19.5 -8q-12 1 -19.5 8.5z" />
    <glyph glyph-name="plus" unicode="+" horiz-adv-x="529" 
d="M245 127v211h-210v38h210v210h38v-210h211v-38h-211v-211h-38z" />
    <glyph glyph-name="comma" unicode="," horiz-adv-x="232" 
d="M51 -146q30 18 54.5 50.5t24.5 65.5q0 9 -5 14.5t-15 5.5q-25 0 -42.5 17.5t-17.5 42.5t17.5 41.5t42.5 16.5q35 0 55.5 -25.5t20.5 -66.5q0 -56 -30.5 -101.5t-93.5 -76.5z" />
    <glyph glyph-name="hyphen" unicode="-" horiz-adv-x="349" 
d="M65 257v33h219v-33h-219z" />
    <glyph glyph-name="period" unicode="." horiz-adv-x="219" 
d="M67.5 7.5q-17.5 17.5 -17.5 42.5t17.5 41.5t42.5 16.5t42 -16.5t17 -41.5t-17 -42.5t-42 -17.5t-42.5 17.5z" />
    <glyph glyph-name="slash" unicode="/" horiz-adv-x="440" 
d="M34 0l311 700h51l-310 -700h-52z" />
    <glyph glyph-name="zero" unicode="0" horiz-adv-x="696" 
d="M196 27q-65 47 -101 141.5t-36 231.5t36 231.5t101 141.5t152 47t152 -47t101 -141.5t36 -231.5t-36 -231.5t-101 -141.5t-152 -47t-152 47zM466 76q43 73 43 228v193q0 154 -43 227t-118 73t-118 -73t-43 -227v-193q0 -154 43 -227.5t118 -73.5t118 73z" />
    <glyph glyph-name="one" unicode="1" horiz-adv-x="345" 
d="M55 0v20l70 10v740l-70 10v20h170v-770l70 -10v-20h-240z" />
    <glyph glyph-name="two" unicode="2" horiz-adv-x="613" 
d="M38 77l211 215q83 86 126.5 167.5t43.5 168.5q0 88 -37.5 128.5t-101.5 40.5q-50 0 -87 -27t-37 -71q0 -53 53 -79q0 -36 -22 -55t-52 -19q-32 0 -55 23.5t-23 64.5q0 54 33 96.5t88 66t118 23.5q122 0 181 -57.5t59 -151.5q0 -57 -23.5 -104.5t-56 -82.5t-88.5 -84
l-28 -24l-239 -211h373l41 148h26v-253h-503v77z" />
    <glyph glyph-name="three" unicode="3" horiz-adv-x="620" 
d="M153.5 4q-51.5 24 -81.5 65t-30 92q0 41 23 64.5t55 23.5q30 0 52 -19t22 -55q-53 -26 -53 -80q0 -41 34.5 -66.5t91.5 -25.5q72 0 117 54t45 151q0 105 -60 162.5t-177 64.5v22q105 6 163.5 56.5t58.5 136.5q0 67 -36.5 107t-97.5 40q-55 0 -86.5 -18.5t-31.5 -51.5
q0 -53 50 -76q0 -34 -20.5 -52.5t-49.5 -18.5q-30 0 -52 23t-22 61q0 45 31 80.5t82.5 55.5t109.5 20q114 0 178 -46t64 -129q0 -87 -62.5 -134.5t-181.5 -63.5v-3q125 -6 201.5 -66.5t76.5 -169.5q0 -61 -33.5 -113t-101 -83.5t-165.5 -31.5q-62 0 -113.5 24z" />
    <glyph glyph-name="four" unicode="4" horiz-adv-x="585" 
d="M245 0v21l92 15v156h-337v21l424 587h23v-561h92v-47h-92v-156l92 -15v-21h-294zM49 239h288v399z" />
    <glyph glyph-name="five" unicode="5" horiz-adv-x="606" 
d="M137.5 4q-51.5 24 -81.5 65t-30 92q0 41 23 64.5t55 23.5q30 0 52 -19t22 -55q-53 -26 -53 -80q0 -41 34.5 -66.5t91.5 -25.5q75 0 118.5 64t43.5 166q0 118 -51.5 177.5t-136.5 59.5q-45 0 -98 -17l-18 13l44 334h265q60 0 87.5 9.5t37.5 44.5l23 -1
q-8 -97 -48.5 -133.5t-114.5 -36.5h-239l-26 -199q50 14 105 14q89 0 159.5 -35t109.5 -96t39 -135q0 -63 -32 -120.5t-99.5 -94.5t-168.5 -37q-62 0 -113.5 24z" />
    <glyph glyph-name="six" unicode="6" horiz-adv-x="649" 
d="M121 93q-61 113 -61 317q0 202 78.5 306t216.5 104q62 0 111.5 -17.5t78 -48.5t28.5 -69q0 -34 -21.5 -57.5t-53.5 -23.5q-27 0 -45 15t-18 41q15 12 21.5 24t6.5 29q0 37 -30 62t-78 25q-77 0 -123.5 -62t-47.5 -203l-1 -112q30 36 73 55.5t90 19.5q74 0 131 -30t89 -87
t32 -137q0 -82 -36.5 -141.5t-98 -91t-134.5 -31.5q-147 0 -208 113zM439.5 53q38.5 51 38.5 141v98q0 87 -34.5 134.5t-104.5 47.5q-49 0 -91 -26.5t-65 -72.5l-1 -139q-1 -113 35.5 -173.5t111.5 -60.5q72 0 110.5 51z" />
    <glyph glyph-name="seven" unicode="7" horiz-adv-x="500" 
d="M169.5 140q21.5 66 49 120t72.5 134q53 93 85 158.5t54 143.5h-335l-27 -119h-26v223h439q-12 -103 -37 -193.5t-68 -218.5q-43 -123 -66.5 -208.5t-31.5 -179.5h-137q7 74 28.5 140z" />
    <glyph glyph-name="eight" unicode="8" horiz-adv-x="648" 
d="M126 34q-72 54 -72 154q0 90 51 145t135 98l-46 30q-52 36 -80.5 78.5t-28.5 89.5q0 58 33.5 101t89.5 66.5t121 23.5q56 0 107.5 -19t84 -57t32.5 -92q0 -48 -20 -83.5t-50 -60t-75 -50.5l26 -16q77 -49 120.5 -100.5t43.5 -127.5q0 -75 -39 -128t-101 -79.5t-131 -26.5
q-129 0 -201 54zM445 554.5q17 44.5 17 94.5q0 66 -40 107t-105 41q-37 0 -70 -14.5t-53 -40.5t-20 -59q0 -42 25 -75t75 -66l106 -67q48 35 65 79.5zM417.5 24q41.5 21 63.5 56t22 75q0 52 -30.5 97t-94.5 90l-109 70q-56 -41 -84.5 -102t-28.5 -128q0 -77 40.5 -128
t125.5 -51q54 0 95.5 21z" />
    <glyph glyph-name="nine" unicode="9" horiz-adv-x="649" 
d="M182.5 -2.5q-49.5 17.5 -78 48.5t-28.5 69q0 34 21.5 57.5t53.5 23.5q27 0 45 -15t18 -41q-15 -12 -21.5 -24t-6.5 -29q0 -37 30 -62t78 -25q77 0 123.5 62t47.5 203v112q-29 -36 -71.5 -55.5t-90.5 -19.5q-74 0 -131 30t-89 87t-32 137q0 82 36.5 141.5t98 91
t134.5 31.5q147 0 208 -113t61 -317q0 -202 -78.5 -306t-216.5 -104q-62 0 -111.5 17.5zM400.5 352.5q42.5 26.5 65.5 72.5l1 139q1 113 -35.5 173.5t-111.5 60.5q-72 0 -110.5 -51t-38.5 -141v-98q0 -87 34.5 -134.5t104.5 -47.5q48 0 90.5 26.5z" />
    <glyph glyph-name="colon" unicode=":" horiz-adv-x="249" 
d="M82.5 358.5q-17.5 17.5 -17.5 42.5t17.5 41.5t42.5 16.5t42 -16.5t17 -41.5t-17 -42.5t-42 -17.5t-42.5 17.5zM82.5 7.5q-17.5 17.5 -17.5 42.5t17.5 41.5t42.5 16.5t42 -16.5t17 -41.5t-17 -42.5t-42 -17.5t-42.5 17.5z" />
    <glyph glyph-name="semicolon" unicode=";" horiz-adv-x="274" 
d="M88.5 358.5q-17.5 17.5 -17.5 42.5t17.5 41.5t42.5 16.5t42 -16.5t17 -41.5t-17 -42.5t-42 -17.5t-42.5 17.5zM72 -146q30 18 54.5 50.5t24.5 65.5q0 9 -5 14.5t-15 5.5q-25 0 -42.5 17.5t-17.5 42.5t17.5 41.5t42.5 16.5q35 0 55.5 -25.5t20.5 -66.5q0 -56 -30.5 -101.5
t-93.5 -76.5z" />
    <glyph glyph-name="less" unicode="&#x3c;" horiz-adv-x="491" 
d="M422 139l-389 208v20l389 210v-38l-335 -182l335 -180v-38z" />
    <glyph glyph-name="equal" unicode="=" horiz-adv-x="611" 
d="M76 421v38h459v-38h-459zM76 255v38h459v-38h-459z" />
    <glyph glyph-name="greater" unicode="&#x3e;" horiz-adv-x="491" 
d="M69 139v38l335 180l-335 182v38l389 -210v-20z" />
    <glyph glyph-name="question" unicode="?" horiz-adv-x="526" 
d="M243.5 295.5q19.5 55.5 56.5 124.5q33 63 48 104t15 92q0 102 -29 142t-81 40q-49 0 -86 -26t-37 -67q0 -52 50 -76q0 -35 -20.5 -53.5t-49.5 -18.5q-30 0 -52.5 22.5t-22.5 61.5q0 52 32.5 93t86 63.5t115.5 22.5q108 0 162 -45t54 -152q0 -43 -15.5 -79.5t-38 -65.5
t-61.5 -70q-42 -46 -66 -77.5t-41 -73.5t-17 -92h-22q0 75 19.5 130.5zM193 7.5q-17 17.5 -17 42.5t17 41.5t42 16.5t42 -16.5t17 -41.5t-17 -42.5t-42 -17.5t-42 17.5z" />
    <glyph glyph-name="at" unicode="@" horiz-adv-x="887" 
d="M256.5 44q-94.5 54 -148.5 148t-54 208t54 208t148.5 148t208.5 54q117 0 203.5 -43t133 -121.5t46.5 -181.5q0 -80 -30 -144t-82.5 -100t-116.5 -36q-39 0 -70 14t-46 44q-24 -25 -59 -41t-71 -16q-81 0 -123 49.5t-42 125.5q0 80 37.5 144.5t97 101t122.5 36.5
q41 0 73.5 -18.5t48.5 -47.5l16 49h82l-95 -333q-6 -22 -6 -37q0 -21 13 -30.5t42 -9.5q48 0 89.5 34.5t65.5 92t24 122.5q0 97 -43.5 169t-123.5 111t-186 39t-193.5 -50.5t-138 -138.5t-50.5 -194t50.5 -193t138 -137t193.5 -50q75 0 128.5 15t112.5 48l14 -26
q-63 -35 -121 -51t-134 -16q-114 0 -208.5 54zM498 281l78 261q-32 69 -102 69q-48 0 -87.5 -42.5t-61.5 -108.5t-22 -134q0 -47 21 -76t64 -29q66 0 110 60z" />
    <glyph glyph-name="A" unicode="A" horiz-adv-x="719" 
d="M-28 0v21l98 40l289 759h16l273 -784l92 -15v-21h-294v21l82 13l-85 237h-266l-81 -210l90 -40v-21h-214zM185 292h251l-120 352z" />
    <glyph glyph-name="B" unicode="B" horiz-adv-x="745" 
d="M40 21l92 15v728l-92 14v22h305q108 0 172 -20t93 -60.5t29 -106.5q0 -144 -182 -184v-5q111 -15 172.5 -66t61.5 -142q0 -110 -80.5 -163t-217.5 -53h-353v21zM353 432q80 0 123 45t43 128v6q0 164 -174 164h-103v-343h111zM393 24q85 0 132 49.5t47 141.5v11
q0 91 -46.5 136t-132.5 45h-151v-383h151z" />
    <glyph glyph-name="C" unicode="C" horiz-adv-x="745" 
d="M225 33q-82 53 -126.5 148t-44.5 219t45.5 219.5t129 148t192.5 52.5q43 0 87.5 -15t80.5 -42l67 57h21v-248h-21l-62 155q-35 32 -81.5 51t-91.5 19q-70 0 -123.5 -36t-83.5 -105t-30 -164v-183q0 -95 29 -164t81 -105.5t122 -36.5q51 0 102 22.5t85 60.5l58 161h21
v-257h-21l-72 51q-36 -29 -82 -45t-91 -16q-109 0 -191 53z" />
    <glyph glyph-name="D" unicode="D" horiz-adv-x="854" 
d="M40 21l92 15v728l-92 14v22h383q110 0 195.5 -49.5t133.5 -140t48 -210.5t-48 -210.5t-134 -140t-195 -49.5h-383v21zM423 24q73 0 129.5 34t88.5 101.5t32 163.5v154q0 96 -32 163t-88.5 101t-129.5 34h-181v-751h181z" />
    <glyph glyph-name="E" unicode="E" horiz-adv-x="721" 
d="M40 0v21l92 15v728l-92 14v22h602v-229h-27l-77 204h-296v-360h130l59 145h26v-316h-26l-60 147h-129v-367h314l82 220h26v-244h-624z" />
    <glyph glyph-name="F" unicode="F" horiz-adv-x="672" 
d="M40 0v21l92 15v728l-92 14v22h602v-229h-27l-77 204h-296v-375h169l59 145h27v-316h-27l-59 147h-169v-340l92 -15v-21h-294z" />
    <glyph glyph-name="G" unicode="G" horiz-adv-x="813" 
d="M225 33q-82 53 -126.5 148t-44.5 219t47 219t131.5 148t193.5 53q103 0 174 -52l61 52h21v-248h-21l-66 165q-72 60 -169 60q-70 0 -125.5 -36t-87 -105t-31.5 -164v-183q0 -95 29.5 -164t82 -105.5t122.5 -36.5q86 0 133.5 53t47.5 142v93l-93 14v22h299v-22l-93 -14
v-93q0 -57 -31 -106.5t-97 -80.5t-166 -31q-109 0 -191 53z" />
    <glyph glyph-name="H" unicode="H" horiz-adv-x="865" 
d="M40 0v21l92 15v728l-92 14v22h294v-22l-92 -14v-328h380v328l-93 14v22h296v-22l-93 -14v-728l93 -15v-21h-296v21l93 15v375h-380v-375l92 -15v-21h-294z" />
    <glyph glyph-name="I" unicode="I" horiz-adv-x="374" 
d="M40 0v21l92 15v728l-92 14v22h294v-22l-92 -14v-728l92 -15v-21h-294z" />
    <glyph glyph-name="J" unicode="J" horiz-adv-x="448" 
d="M46.5 6q-39.5 26 -39.5 76q0 33 18.5 53.5t48.5 20.5q24 0 38 -13t19.5 -27.5t5.5 -18.5q-29 -21 -29 -49q0 -19 12 -32t33 -13q32 0 50.5 43.5t18.5 150.5v567l-92 14v22h290v-22l-92 -14v-567q0 -70 -13.5 -116.5t-53.5 -73.5t-115 -27q-60 0 -99.5 26z" />
    <glyph glyph-name="K" unicode="K" horiz-adv-x="738" 
d="M40 0v21l92 15v728l-92 14v22h294v-22l-92 -14v-360l325 332l-109 42v22h231v-22l-82 -42l-227 -228l320 -472l68 -15v-21h-295v21l91 14l-262 395l-60 -61v-333l92 -15v-21h-294z" />
    <glyph glyph-name="L" unicode="L" horiz-adv-x="675" 
d="M40 0v21l92 15v728l-92 14v22h294v-22l-92 -14v-740h299l82 220h27v-244h-610z" />
    <glyph glyph-name="M" unicode="M" horiz-adv-x="1012" 
d="M456 -10l-298 774v-703l96 -40v-21h-214v21l94 40v703l-92 14v22h221l251 -642l256 642h202v-22l-92 -14v-728l92 -15v-21h-294v21l92 15v698l-296 -744h-18z" />
    <glyph glyph-name="N" unicode="N" horiz-adv-x="814" 
d="M43 0v21l93 40v678l-93 39v22h186l431 -604v543l-93 39v22h213v-22l-95 -39v-739h-25l-499 701v-640l96 -40v-21h-214z" />
    <glyph glyph-name="O" unicode="O" horiz-adv-x="862" 
d="M236 33q-86 53 -134 148.5t-48 218.5t48 218.5t134 148.5t195 53t195 -53t134 -148.5t48 -218.5t-48 -218.5t-134 -148.5t-195 -53t-195 53zM560.5 41q57.5 38 90.5 110.5t33 171.5v154q0 99 -33 171.5t-90.5 110.5t-129.5 38q-73 0 -130 -38t-90 -110.5t-33 -171.5v-154
q0 -99 33 -171.5t90 -110.5t130 -38q72 0 129.5 38z" />
    <glyph glyph-name="P" unicode="P" horiz-adv-x="684" 
d="M40 21l92 15v728l-92 14v22h314q148 0 220 -63t72 -182t-72 -182t-220 -63h-112v-274l92 -15v-21h-294v21zM340 334q185 0 185 201v40q0 200 -185 200h-98v-441h98z" />
    <glyph glyph-name="Q" unicode="Q" horiz-adv-x="862" 
d="M371 -58v43q-94 13 -166 69t-111.5 145t-39.5 201q0 123 48 218.5t134 148.5t195 53t195 -53t134 -148.5t48 -218.5q0 -111 -39.5 -200t-110.5 -145t-164 -70v-67q0 -126 122 -126v-23h-33q-212 0 -212 173zM560 41q57 38 89.5 110t32.5 172v154q0 100 -32.5 172
t-89.5 110t-129 38q-73 0 -129.5 -38t-89 -110t-32.5 -172v-154q0 -100 32.5 -172t89 -110t129.5 -38q72 0 129 38z" />
    <glyph glyph-name="R" unicode="R" horiz-adv-x="727" 
d="M537 17q-28 27 -38 92l-19 134q-10 68 -46.5 106.5t-113.5 38.5h-78v-352l92 -15v-21h-294v21l92 15v728l-92 14v22h280q163 0 236 -51t73 -155q0 -172 -208 -199v-6q77 -11 123.5 -55t58.5 -117l13 -86q8 -56 18.5 -76t32.5 -20q15 0 32 9.5t32 24.5l17 -18
q-29 -33 -60 -47t-67 -14q-56 0 -84 27zM354 412q73 0 113.5 44.5t40.5 131.5v21q0 166 -188 166h-78v-363h112z" />
    <glyph glyph-name="S" unicode="S" horiz-adv-x="666" 
d="M174 33l-85 -43h-22v257h22l86 -186q83 -59 190 -59q88 0 145.5 46.5t57.5 130.5q0 61 -37 96.5t-120 56.5l-166 43q-87 23 -131 78.5t-44 131.5q0 69 27.5 122.5t80.5 83t126 29.5q91 0 163 -31l73 31h22v-204h-22l-72 146q-75 36 -163 36q-87 0 -137 -44.5t-50 -117.5
q0 -54 35.5 -85t104.5 -49l179 -47q87 -22 129.5 -75.5t42.5 -162.5q0 -111 -68.5 -174t-183.5 -63q-93 0 -183 53z" />
    <glyph glyph-name="T" unicode="T" horiz-adv-x="700" 
d="M203 0v21l92 15v739h-165l-76 -198h-29v223h651v-223h-30l-75 198h-166v-739l92 -15v-21h-294z" />
    <glyph glyph-name="U" unicode="U" horiz-adv-x="809" 
d="M187 45.5q-68 65.5 -68 173.5v545l-92 14v22h294v-22l-92 -14v-545q0 -98 55 -150.5t167 -52.5q212 0 212 203v520l-93 39v22h213v-22l-96 -39v-520q0 -120 -67 -179.5t-218 -59.5q-147 0 -215 65.5z" />
    <glyph glyph-name="V" unicode="V" horiz-adv-x="681" 
d="M339 -20l-288 784l-80 14v22h293v-22l-94 -12l220 -599l216 566l-115 45v22h215v-22l-73 -44l-286 -754h-8z" />
    <glyph glyph-name="W" unicode="W" horiz-adv-x="1081" 
d="M328 -20l-282 784l-67 14v22h278v-22l-91 -14l215 -592l146 382l-75 210l-92 14v22h297v-22l-86 -12l217 -593l215 560l-113 45v22h215v-22l-76 -44l-286 -754h-8l-195 539l-204 -539h-8z" />
    <glyph glyph-name="X" unicode="X" horiz-adv-x="760" 
d="M2 0v21l99 56l229 306l-253 381l-85 14v22h303v-22l-79 -12l194 -294l193 258l-119 48v22h239v-22l-95 -53l-204 -273l277 -417l86 -14v-21h-304v21l79 13l-218 328l-221 -294l118 -47v-21h-239z" />
    <glyph glyph-name="Y" unicode="Y" horiz-adv-x="657" 
d="M196 0v21l93 15v304l-243 424l-79 14v22h301v-22l-93 -14l210 -363l193 329l-120 48v22h224v-22l-77 -49l-208 -356v-337l93 -15v-21h-294z" />
    <glyph glyph-name="Z" unicode="Z" horiz-adv-x="685" 
d="M33 0v24l468 751h-310l-103 -200h-26l24 225h550v-25l-469 -751h350l103 215h26l-24 -239h-589z" />
    <glyph glyph-name="bracketleft" unicode="[" horiz-adv-x="315" 
d="M90 -185v1082h214v-30h-113v-1022h113v-30h-214z" />
    <glyph glyph-name="backslash" unicode="\" horiz-adv-x="440" 
d="M354 0l-310 700h51l311 -700h-52z" />
    <glyph glyph-name="bracketright" unicode="]" horiz-adv-x="315" 
d="M12 -185v30h113v1022h-113v30h214v-1082h-214z" />
    <glyph glyph-name="asciicircum" unicode="^" horiz-adv-x="580" 
d="M64 267l206 407h39l206 -407h-50l-176 345l-175 -345h-50z" />
    <glyph glyph-name="underscore" unicode="_" horiz-adv-x="459" 
d="M0 -113v35h459v-35h-459z" />
    <glyph glyph-name="grave" unicode="`" horiz-adv-x="224" 
d="M-4 687q-17 14 -17 35q0 19 14 33t33 14q14 0 26 -8t18 -20l73 -158l-16 -12z" />
    <glyph glyph-name="a" unicode="a" horiz-adv-x="567" 
d="M87 23.5q-41 33.5 -41 99.5q0 94 79 133.5t183 39.5h67v77q0 52 -11.5 80.5t-35.5 40t-65 11.5q-47 0 -70 -18.5t-23 -49.5q0 -29 28 -38q0 -25 -19 -44t-45 -19q-28 0 -45 15.5t-17 47.5q0 58 58 93t145 35q200 0 200 -174v-286q0 -22 9.5 -33.5t27.5 -11.5
q17 0 27 11.5t10 31.5h21q0 -35 -22.5 -55t-62.5 -20q-46 0 -77.5 26.5t-32.5 82.5q-24 -51 -73.5 -80t-109.5 -29q-64 0 -105 33.5zM302.5 50q28.5 16 48.5 46.5t24 73.5v104h-67q-82 0 -122.5 -36.5t-40.5 -102.5q0 -55 26 -78t76 -23q27 0 55.5 16z" />
    <glyph glyph-name="b" unicode="b" horiz-adv-x="641" 
d="M257.5 20.5q-42.5 30.5 -67.5 83.5v-104h-170v20l70 10v740l-70 10v20h170v-387q25 53 67.5 83.5t101.5 30.5q71 0 125 -33t84 -93.5t30 -141.5t-30 -141.5t-84 -94t-125 -33.5q-59 0 -101.5 30.5zM488 209v100q0 193 -139 193q-44 0 -80 -25.5t-57 -68t-22 -92.5v-107
q0 -51 20.5 -96t57 -71.5t81.5 -26.5q139 0 139 194z" />
    <glyph glyph-name="c" unicode="c" horiz-adv-x="547" 
d="M171 23.5q-59 33.5 -93.5 95t-34.5 140.5q0 83 36.5 144t95.5 92.5t127 31.5q57 0 104 -19.5t74.5 -54.5t27.5 -79q0 -33 -17 -50.5t-45 -17.5q-27 0 -45 18t-18 45q15 10 21 22t6 30q0 37 -29.5 60.5t-78.5 23.5q-72 0 -110.5 -51.5t-38.5 -144.5v-100q0 -89 37.5 -143
t111.5 -54q68 0 118.5 38.5t62.5 101.5h23q-14 -74 -69.5 -118t-134.5 -44q-72 0 -131 33.5z" />
    <glyph glyph-name="d" unicode="d" horiz-adv-x="642" 
d="M157 23.5q-54 33.5 -84 94t-30 141.5t30 141.5t84 93.5t125 33q58 0 101 -30.5t68 -83.5v357l-70 10v20h170v-770l70 -10v-20h-170v104q-25 -53 -68 -83.5t-101 -30.5q-71 0 -125 33.5zM371.5 40.5q35.5 25.5 57 68t22.5 92.5v115q-1 50 -22.5 92.5t-57 68t-79.5 25.5
q-139 0 -139 -193v-100q0 -194 139 -194q44 0 79.5 25.5z" />
    <glyph glyph-name="e" unicode="e" horiz-adv-x="561" 
d="M173 23.5q-60 33.5 -95 94.5t-35 141t34.5 140.5t93 94t130.5 33.5q63 0 113 -28t78 -77.5t29 -113.5h-368v-99q0 -88 39.5 -142.5t114.5 -54.5q69 0 122 39t65 101h23q-14 -74 -71 -118t-139 -44q-74 0 -134 33.5zM411 333q0 87 -27 129.5t-84 42.5q-67 0 -104 -47
t-42 -125h257z" />
    <glyph glyph-name="f" unicode="f" horiz-adv-x="340" 
d="M27 20l70 10v458l-70 10v20h70v84q0 96 39 152t133 56q59 0 97.5 -28.5t38.5 -77.5q0 -30 -16.5 -49t-44.5 -19q-25 0 -44 19t-19 44q34 10 34 47q0 17 -13.5 29.5t-32.5 12.5q-39 0 -55.5 -36.5t-16.5 -118.5v-115h130v-20l-130 -10v-458l119 -10v-20h-289v20z" />
    <glyph glyph-name="g" unicode="g" horiz-adv-x="535" 
d="M511 498q-29 -28 -92 -36q26 -38 26 -104q0 -78 -55.5 -123t-140.5 -45q-35 0 -64 6q-64 -4 -64 -50q0 -26 21.5 -38t68.5 -12h112q81 0 120.5 -33t39.5 -113q0 -56 -28.5 -103t-82.5 -74.5t-129 -27.5q-113 0 -166.5 34t-53.5 90q0 34 26 60t71 26q9 0 37 -4
q-31 -33 -31 -78q0 -43 30 -75t98 -32q59 0 105.5 22.5t71.5 58.5t25 74q0 42 -27 60.5t-96 18.5h-122q-70 0 -105.5 27.5t-35.5 81.5q0 36 20.5 63.5t52.5 35.5q-87 37 -87 150q0 79 55 124t138 45q105 0 152 -44q28 5 42 18.5t14 30.5q0 16 -9 24.5t-21 8.5
q0 22 16.5 38.5t39.5 16.5q25 0 41 -15t16 -40q0 -39 -29 -67zM351 383q0 61 -25.5 94t-76.5 33q-99 0 -99 -127v-49q0 -59 24.5 -93t74.5 -34q51 0 76.5 34t25.5 93v49z" />
    <glyph glyph-name="h" unicode="h" horiz-adv-x="629" 
d="M21 20l70 10v740l-70 10v20h170v-390q37 54 87 85.5t108 31.5q72 0 113.5 -36t41.5 -107v-354l70 -10v-20h-230v20l60 10v352q0 52 -21 80.5t-65 28.5q-46 0 -88.5 -33.5t-75.5 -82.5v-345l60 -10v-20h-230v20z" />
    <glyph glyph-name="i" unicode="i" horiz-adv-x="289" 
d="M86 653.5q-20 19.5 -20 47.5t19.5 47t48.5 19q27 0 46 -19t19 -47t-19 -47.5t-46 -19.5q-28 0 -48 19.5zM28 0v20l70 10v457l-70 10v20h170v-487l70 -10v-20h-240z" />
    <glyph glyph-name="j" unicode="j" horiz-adv-x="278" 
d="M87 653.5q-20 19.5 -20 47.5t19.5 47t48.5 19q27 0 46 -19t19 -47t-19 -47.5t-46 -19.5q-28 0 -48 19.5zM-57 -266.5q-33 25.5 -33 68.5q0 27 15 44t40 17q23 0 40 -17t17 -40q-31 -9 -31 -39q0 -14 11.5 -25.5t29.5 -11.5q36 0 50.5 34.5t14.5 120.5v603l-75 10v20h175
v-622q0 -87 -37.5 -137.5t-127.5 -50.5q-56 0 -89 25.5z" />
    <glyph glyph-name="k" unicode="k" horiz-adv-x="565" 
d="M20 0v20l70 10v740l-70 10v20h170v-513l229 188l-87 23v20h188v-20l-64 -23l-166 -136l234 -310l54 -9v-20h-234v20l60 10l-188 248l-26 -22v-226l60 -10v-20h-230z" />
    <glyph glyph-name="l" unicode="l" horiz-adv-x="286" 
d="M20 0v20l75 10v740l-75 10v20h175v-770l70 -10v-20h-245z" />
    <glyph glyph-name="m" unicode="m" horiz-adv-x="946" 
d="M27 20l70 10v458l-70 10v20h170v-92q36 47 81.5 74t98.5 27q61 0 99.5 -26.5t48.5 -79.5q36 49 82 77.5t101 28.5q71 0 110.5 -35.5t39.5 -107.5v-354l70 -10v-20h-230v20l60 10v352q0 53 -19 81t-62 28q-41 0 -79.5 -28t-69.5 -72v-361l60 -10v-20h-221v20l60 10v352
q0 53 -19 81t-62 28q-41 0 -79.5 -28t-69.5 -72v-361l60 -10v-20h-230v20z" />
    <glyph glyph-name="n" unicode="n" horiz-adv-x="635" 
d="M27 20l70 10v458l-70 10v20h170v-108q37 54 87 85.5t108 31.5q72 0 113.5 -36t41.5 -107v-354l70 -10v-20h-230v20l60 10v352q0 52 -21 80.5t-65 28.5q-46 0 -88.5 -33.5t-75.5 -82.5v-345l60 -10v-20h-230v20z" />
    <glyph glyph-name="o" unicode="o" horiz-adv-x="604" 
d="M171 23.5q-59 33.5 -93.5 95t-34.5 140.5t34.5 140t93.5 94.5t131 33.5t131 -33.5t93.5 -94.5t34.5 -140t-34.5 -140.5t-93.5 -95t-131 -33.5t-131 33.5zM413.5 66q37.5 54 37.5 143v100q0 89 -37.5 142.5t-111.5 53.5t-111.5 -53.5t-37.5 -142.5v-100q0 -89 37.5 -143
t111.5 -54t111.5 54z" />
    <glyph glyph-name="p" unicode="p" horiz-adv-x="642" 
d="M21 -263l70 10v740l-70 10v20h170v-105q25 54 67.5 84.5t101.5 30.5q71 0 125 -33.5t84 -94t30 -141.5t-30 -141.5t-84 -93.5t-125 -33q-59 0 -101.5 30.5t-67.5 83.5v-357l94 -10v-20h-264v20zM489 208v100q0 194 -139 194q-44 0 -80 -25.5t-57 -68.5t-22 -93v-107
q0 -51 20.5 -95.5t57 -71t81.5 -26.5q139 0 139 193z" />
    <glyph glyph-name="q" unicode="q" horiz-adv-x="642" 
d="M332 -263l119 10v357q-25 -53 -68 -83.5t-101 -30.5q-71 0 -125 33t-84 93.5t-30 141.5t30 141.5t84 94t125 33.5q58 0 101 -30.5t68 -84.5v105h170v-20l-70 -10v-740l70 -10v-20h-289v20zM371.5 40.5q35.5 25.5 57 68t22.5 91.5v115q-1 50 -22.5 93t-57 68.5t-79.5 25.5
q-139 0 -139 -194v-100q0 -193 139 -193q44 0 79.5 25.5z" />
    <glyph glyph-name="r" unicode="r" horiz-adv-x="442" 
d="M27 20l70 10v458l-70 10v20h170v-77q63 86 142 86q38 0 67 -19.5t29 -55.5q0 -26 -17 -43.5t-45 -17.5q-32 0 -52 25q11 14 11 30q0 17 -11.5 27.5t-30.5 10.5q-21 0 -43 -19.5t-50 -60.5v-374l80 -10v-20h-250v20z" />
    <glyph glyph-name="s" unicode="s" horiz-adv-x="476" 
d="M103 25q-55 35 -55 91q0 29 15.5 45.5t41.5 16.5q20 0 34 -10t20 -28q-22 -24 -22 -51q0 -31 28 -54t75 -23q63 0 103 28.5t40 76.5q0 28 -17 42t-66 32l-151 55q-89 32 -89 119q0 71 49 116.5t135 45.5q71 0 121.5 -32.5t50.5 -92.5q0 -24 -13 -38.5t-34 -14.5
t-34.5 11.5t-13.5 31.5q13 10 18 21.5t5 27.5q0 28 -24.5 46t-75.5 18q-44 0 -75.5 -13.5t-47.5 -35.5t-16 -45q0 -24 17.5 -38t64.5 -31l140 -50q49 -18 74 -50t25 -83q0 -73 -46 -121t-140 -48q-82 0 -137 35z" />
    <glyph glyph-name="t" unicode="t" horiz-adv-x="347" 
d="M128.5 23q-39.5 33 -39.5 105v360l-71 10v20h71v83l100 25v-108h130v-20l-130 -10v-358q0 -106 76 -106q16 0 30.5 5t23 10t10.5 7l13 -16q-45 -40 -108 -40q-66 0 -105.5 33z" />
    <glyph glyph-name="u" unicode="u" horiz-adv-x="632" 
d="M128.5 26q-41.5 36 -41.5 107v355l-70 10v20h170v-383q0 -51 21 -80t65 -29q46 0 88.5 30.5t75.5 75.5v356l-70 10v20h170v-488l70 -10v-20h-170v96q-36 -50 -86.5 -78t-108.5 -28q-72 0 -113.5 36z" />
    <glyph glyph-name="v" unicode="v" horiz-adv-x="530" 
d="M265 -20l-214 508l-65 10v20h249v-20l-72 -13l151 -376l135 363l-88 25v20h179v-20l-63 -24l-184 -493h-28z" />
    <glyph glyph-name="w" unicode="w" horiz-adv-x="822" 
d="M265 -20l-214 508l-65 10v20h224v-20l-47 -13l151 -376l89 243l-59 136l-52 10v20h236v-20l-72 -13l151 -376l135 362l-84 26v20h174v-20l-62 -24l-184 -493h-28l-141 338l-124 -338h-28z" />
    <glyph glyph-name="x" unicode="x" horiz-adv-x="577" 
d="M516 29l64 -9v-20h-244v20l60 10l-138 189l-147 -176l81 -23v-20h-179v20l67 25l162 197l-180 247l-61 9v20h244v-20l-63 -11l125 -171l134 158l-79 23v20h184v-20l-73 -26l-150 -178z" />
    <glyph glyph-name="y" unicode="y" horiz-adv-x="535" 
d="M34 -266q-32 26 -32 70q0 30 17.5 48.5t43.5 18.5q19 0 34 -8t24 -24q-15 -21 -15 -44q0 -20 13 -33t33 -13q24 0 41.5 16t31.5 56l60 172l-232 494l-67 10v20h249v-20l-70 -12l167 -357l119 344l-86 25v20h180v-20l-68 -25l-224 -651q-21 -59 -50.5 -86t-84.5 -27
q-52 0 -84 26z" />
    <glyph glyph-name="z" unicode="z" horiz-adv-x="517" 
d="M39 0v24l310 469h-198l-82 -155h-25l13 180h409v-25l-310 -469h214l88 167h26l-19 -191h-426z" />
    <glyph glyph-name="braceleft" unicode="{" horiz-adv-x="315" 
d="M156 -159.5q-46 34.5 -46 113.5q0 41 11 125q10 88 10 117q0 67 -27 109.5t-91 42.5v17q64 0 91 42.5t27 109.5q0 29 -10 117q-11 84 -11 126q0 79 46 113t135 34v-18q-46 0 -65 -25.5t-19 -86.5q0 -28 10 -126q2 -19 5.5 -60t3.5 -60q0 -69 -38 -114.5t-108 -60.5
q70 -14 108 -59.5t38 -114.5q0 -20 -4 -61.5t-5 -58.5q-10 -98 -10 -125q0 -61 19 -86.5t65 -25.5v-19q-89 0 -135 34.5z" />
    <glyph glyph-name="bar" unicode="|" horiz-adv-x="219" 
d="M92 -240v1000h35v-1000h-35z" />
    <glyph glyph-name="braceright" unicode="}" horiz-adv-x="315" 
d="M24 -175q46 0 65 25.5t19 86.5q0 27 -10 125q-1 17 -5 58.5t-4 61.5q0 69 38 114.5t108 59.5q-70 15 -108 60.5t-38 114.5q0 19 3.5 60t5.5 60q10 98 10 126q0 61 -19 86.5t-65 25.5v18q89 0 135 -34t46 -113q0 -42 -11 -126q-10 -88 -10 -117q0 -67 27 -109.5t91 -42.5
v-17q-64 0 -91 -42.5t-27 -109.5q0 -29 10 -117q11 -84 11 -125q0 -79 -46 -113.5t-135 -34.5v19z" />
    <glyph glyph-name="asciitilde" unicode="~" horiz-adv-x="535" 
d="M310.5 192.5q-23.5 16.5 -55.5 50.5q-26 28 -44.5 42t-40.5 14q-25 0 -43.5 -22t-29 -47t-10.5 -29l-38 11q0 5 14.5 37t41.5 60t65 28q33 0 57.5 -17t55.5 -50q26 -28 44 -42t39 -14q25 0 44 22t30 47.5t11 29.5l36 -11q0 -5 -14.5 -37.5t-41.5 -60.5t-65 -28
q-32 0 -55.5 16.5z" />
    <glyph glyph-name="uni00A0" unicode="&#xa0;" horiz-adv-x="239" 
 />
    <glyph glyph-name="exclamdown" unicode="&#xa1;" horiz-adv-x="231" 
d="M159 510.5q17 -17.5 17 -42.5t-17 -41.5t-42 -16.5t-42 16.5t-17 41.5t17 42.5t42 17.5t42 -17.5zM129 353q2 -97 9 -183.5t19 -207.5q6 -58 10.5 -111t4.5 -85q0 -23 -15 -40.5t-40 -17.5t-40 17.5t-15 40.5q0 32 4.5 84t10.5 109q12 108 19.5 201t8.5 193h24z" />
    <glyph glyph-name="cent" unicode="&#xa2;" horiz-adv-x="545" 
d="M423 52.5q48 38.5 60 99.5h23q-14 -73 -67 -116.5t-130 -45.5v-133h-25v134q-68 4 -123 38.5t-86.5 94t-31.5 135.5q0 79 33.5 138t88.5 92t119 37v136h25v-135q56 -1 101.5 -21.5t71.5 -54.5t26 -77q0 -33 -17 -50.5t-45 -17.5q-27 0 -45 18t-18 45q15 10 21 22t6 30
q0 36 -27.5 59t-73.5 25v-493q66 2 114 40.5zM186 73q33 -53 98 -60v491q-63 -7 -97 -57.5t-34 -137.5v-100q0 -83 33 -136z" />
    <glyph glyph-name="sterling" unicode="&#xa3;" horiz-adv-x="638" 
d="M544 273h27v-273h-503v77q0 -3 37 31.5t69.5 85t39.5 111.5h-146v25h147q0 38 -17 75h-130v25h117q-12 18 -36 48q-36 44 -54 79.5t-18 86.5q0 47 27 87t84 64.5t140 24.5q64 0 120 -23.5t90 -66t34 -96.5q0 -41 -23 -64.5t-55 -23.5q-30 0 -51.5 19t-21.5 55
q52 25 52 79q0 44 -38.5 71t-89.5 27q-63 0 -101.5 -36.5t-38.5 -99.5q0 -43 9 -76.5t28 -81.5q18 -43 26 -73h156v-25h-151q4 -30 4 -49q0 -18 -1 -26h148v-25h-152q-11 -57 -40.5 -100t-61.5 -69.5t-32 -23.5h345z" />
    <glyph glyph-name="currency" unicode="&#xa4;" horiz-adv-x="547" 
d="M60 172l75 76q-39 47 -39 111q0 61 40 111l-75 74l27 28l75 -75q47 38 111 38q60 0 109 -39l77 77l27 -28l-76 -76q19 -23 29.5 -51.5t10.5 -58.5q0 -61 -40 -111l76 -75l-27 -27l-76 75q-48 -39 -110 -39q-63 0 -112 38l-75 -75zM343 238.5q32 18.5 51 50.5t19 70
q0 37 -19 69t-51 50.5t-69 18.5q-38 0 -70 -18.5t-50.5 -50.5t-18.5 -69q0 -38 18.5 -70t50.5 -50.5t70 -18.5q37 0 69 18.5z" />
    <glyph glyph-name="yen" unicode="&#xa5;" horiz-adv-x="676" 
d="M458 800h224v-22l-77 -49l-207 -355h165v-25h-166v-75h166v-25h-166v-213l93 -15v-21h-294v21l93 15v213h-162v25h162v66l-5 9h-157v25h143l-224 390l-79 14v22h301v-22l-93 -14l210 -363l193 329l-120 48v22z" />
    <glyph glyph-name="brokenbar" unicode="&#xa6;" horiz-adv-x="230" 
d="M95 360v400h40v-400h-40zM95 -240v400h40v-400h-40z" />
    <glyph glyph-name="section" unicode="&#xa7;" horiz-adv-x="529" 
d="M129 -105.5q-54 31.5 -54 82.5q0 29 18 48.5t45 19.5q24 0 39 -13t15 -34q-13 -10 -18.5 -20t-5.5 -24q0 -31 31 -51t77 -20q57 0 98 25.5t41 72.5q0 44 -22.5 69t-66.5 51l-170 82q-100 52 -100 145q0 60 22 100t64 75q-33 26 -52 64t-19 81q0 79 47 120.5t129 41.5
q93 0 146.5 -32t53.5 -83q0 -29 -18 -48.5t-45 -19.5q-23 0 -38.5 13t-15.5 35q13 9 18.5 19t5.5 24q0 31 -30.5 51.5t-76.5 20.5q-56 0 -95.5 -25.5t-39.5 -73.5q0 -44 21.5 -69t62.5 -50l171 -82q109 -53 109 -146q0 -58 -22.5 -101.5t-64.5 -79.5q31 -26 49.5 -62.5
t18.5 -76.5q0 -78 -48.5 -119.5t-132.5 -41.5q-93 0 -147 31.5zM421.5 235q16.5 30 16.5 66q0 34 -28.5 59t-91.5 55l-158 76q-34 -31 -50 -58t-16 -61t26 -59.5t84 -55.5l160 -76q2 -2 4 -3l4 -2q33 29 49.5 59z" />
    <glyph glyph-name="dieresis" unicode="&#xa8;" horiz-adv-x="395" 
d="M62.5 632q-17.5 17 -17.5 42t17.5 42t42.5 17t42 -17t17 -42t-17 -42t-42 -17t-42.5 17zM248 632q-17 17 -17 42t17 42t42 17t42 -17t17 -42t-17 -42t-42 -17t-42 17z" />
    <glyph glyph-name="copyright" unicode="&#xa9;" horiz-adv-x="922" 
d="M255.5 45q-94.5 55 -149.5 149t-55 205t55.5 205.5t149.5 150t205 55.5t205 -55.5t149.5 -150t55.5 -205.5t-55 -205t-149.5 -149t-205.5 -55t-205.5 55zM648 76.5q85 49.5 134.5 135t49.5 187.5t-49.5 187.5t-134.5 135t-187 49.5t-187.5 -49.5t-135 -135t-49.5 -187.5
t49.5 -187.5t135 -135t187.5 -49.5t187 49.5zM338 171q-54 33 -83.5 92.5t-29.5 136.5t29.5 136.5t83.5 92.5t124 33q56 0 107 -37l43 37h19v-158h-19l-39 84q-22 22 -51.5 33.5t-59.5 11.5q-68 0 -104.5 -43t-36.5 -132v-117q0 -88 36.5 -131t104.5 -43q32 0 65 15t55 39
l36 88h19v-165h-19l-46 33q-23 -18 -52.5 -28.5t-57.5 -10.5q-70 0 -124 33z" />
    <glyph glyph-name="ordfeminine" unicode="&#xaa;" horiz-adv-x="502" 
d="M77.5 398q-34.5 27 -34.5 80q0 77 70.5 111.5t170.5 34.5h25v72q0 45 -18.5 63t-59.5 18q-33 0 -54 -12t-21 -33q0 -25 25 -34q0 -22 -17.5 -39t-40.5 -17t-38.5 16.5t-15.5 39.5q0 50 47 78.5t115 28.5q77 0 122.5 -29.5t45.5 -95.5v-247q0 -26 26 -26q10 0 17 6.5
t7 18.5h27q0 -29 -21 -45t-56 -16q-30 0 -54.5 16.5t-32.5 48.5q-22 -31 -59 -48t-85 -17q-56 0 -90.5 27zM272.5 438.5q31.5 29.5 36.5 78.5v78h-25q-61 0 -102.5 -31t-41.5 -86q0 -33 16 -51t46 -18q39 0 70.5 29.5z" />
    <glyph glyph-name="guillemotleft" unicode="&#xab;" horiz-adv-x="370" 
d="M220 70l-173 191v18l173 191l9 -10l-94 -190l94 -191zM306 145l-111 118v14l111 118l9 -9l-44 -116l44 -117z" />
    <glyph glyph-name="logicalnot" unicode="&#xac;" horiz-adv-x="568" 
d="M454 123v217h-378v35h414v-252h-36z" />
    <glyph glyph-name="uni00AD" unicode="&#xad;" horiz-adv-x="390" 
d="M65 339v36h260v-36h-260z" />
    <glyph glyph-name="registered" unicode="&#xae;" horiz-adv-x="922" 
d="M255.5 45q-94.5 55 -149.5 149t-55 205t55.5 205.5t149.5 150t205 55.5t205 -55.5t149.5 -150t55.5 -205.5t-55 -205t-149.5 -149t-205.5 -55t-205.5 55zM648 76.5q85 49.5 134.5 135t49.5 187.5t-49.5 187.5t-134.5 135t-187 49.5t-187.5 -49.5t-135 -135t-49.5 -187.5
t49.5 -187.5t135 -135t187.5 -49.5t187 49.5zM567.5 154q-21.5 18 -27.5 58l-13 86q-6 42 -27.5 64.5t-71.5 22.5h-40v-210l59 -9v-24h-201v24l60 9v446l-60 9v24h219q106 0 152.5 -32.5t46.5 -99.5q0 -110 -161 -127v-4q103 -14 119 -114l9 -55q3 -25 8 -36t18 -11
q19 0 40 19l17 -19q-36 -39 -88 -39q-37 0 -58.5 18zM450 411q123 0 123 108v13q0 96 -123 96h-62v-217h62z" />
    <glyph glyph-name="macron" unicode="&#xaf;" horiz-adv-x="459" 
d="M0 666v34h459v-34h-459z" />
    <glyph glyph-name="degree" unicode="&#xb0;" horiz-adv-x="371" 
d="M112.5 482q-33.5 20 -53.5 53.5t-20 73.5t20 73.5t53.5 53t73.5 19.5t73.5 -19.5t53 -53t19.5 -73.5t-19.5 -73.5t-53 -53.5t-73.5 -20t-73.5 20zM262 533q32 32 32 76t-32 76t-76 32t-76 -32t-32 -76t32 -76t76 -32t76 32z" />
    <glyph glyph-name="plusminus" unicode="&#xb1;" horiz-adv-x="615" 
d="M288 177v161h-210v38h210v161h38v-161h211v-38h-211v-161h-38zM78 112v38h459v-38h-459z" />
    <glyph glyph-name="uni00B2" unicode="&#xb2;" horiz-adv-x="393" 
d="M54 420l116 113q82 80 82 166q0 39 -19 61.5t-50 22.5q-26 0 -44 -12t-18 -34q0 -15 7 -24t24 -18q0 -21 -12.5 -32.5t-31.5 -11.5q-18 0 -32 14t-14 38q0 49 35 75.5t90 26.5q70 0 106 -30.5t36 -79.5q0 -45 -25.5 -81t-72.5 -73l-120 -97h166l28 79h23v-143h-274v40z
" />
    <glyph glyph-name="uni00B3" unicode="&#xb3;" horiz-adv-x="373" 
d="M79 398.5q-36 27.5 -36 70.5q0 23 13 36.5t31 13.5q17 0 29.5 -11t12.5 -31q-15 -8 -22.5 -18.5t-7.5 -21.5q0 -44 67 -44q34 0 57.5 25t23.5 74q0 54 -26 80t-88 30v21q54 3 75.5 25t21.5 67q0 32 -16 50t-47 18q-26 0 -38 -10.5t-12 -26.5q0 -13 7 -21t22 -14
q0 -20 -12 -31t-29 -11q-18 0 -30.5 13.5t-12.5 36.5q0 43 33 64.5t82 21.5q60 0 94 -23.5t34 -69.5q0 -40 -30 -66t-90 -33v-2q147 -9 147 -119q0 -32 -19.5 -60t-57 -44.5t-89.5 -16.5q-51 0 -87 27.5z" />
    <glyph glyph-name="acute" unicode="&#xb4;" horiz-adv-x="237" 
d="M30 583l74 158q5 12 17 20t26 8q19 0 33 -14t14 -33q0 -23 -17 -35l-131 -116z" />
    <glyph glyph-name="uni00B5" unicode="&#xb5;" horiz-adv-x="653" 
d="M115 -272q-20 20 -20 61q0 69 2.5 187.5t3.5 156.5v385h100v-383q0 -51 21 -80t65 -29q45 0 87.5 33.5t76.5 83.5v375h100v-488l70 -10v-20h-170v107q-37 -54 -87 -85.5t-108 -31.5q-81 0 -120 42q8 -116 37 -181.5t82 -92.5q-11 -22 -33.5 -36t-51.5 -14q-35 0 -55 20z
" />
    <glyph glyph-name="paragraph" unicode="&#xb6;" horiz-adv-x="551" 
d="M230 426q-62 0 -106 25t-67 67.5t-23 94.5t23 94.5t67 67.5t105 25h277v-22l-92 -14v-876h-42v879h-99v-879h-43v538z" />
    <glyph glyph-name="periodcentered" unicode="&#xb7;" horiz-adv-x="246" 
d="M77.5 253.5q-19.5 19.5 -19.5 45.5t19.5 45.5t45.5 19.5t45.5 -19.5t19.5 -45.5t-19.5 -45.5t-45.5 -19.5t-45.5 19.5z" />
    <glyph glyph-name="cedilla" unicode="&#xb8;" horiz-adv-x="351" 
d="M74 -223l6 22q12 -3 28 -3q33 0 56 16t23 51q0 27 -18 45.5t-54 22.5l21 78h27l-13 -53q57 -2 89.5 -24.5t32.5 -67.5q0 -48 -36.5 -72t-89.5 -24q-41 0 -72 9z" />
    <glyph glyph-name="uni00B9" unicode="&#xb9;" horiz-adv-x="254" 
d="M53 375v21l42 5v373l-42 5v21h114v-399l42 -5v-21h-156z" />
    <glyph glyph-name="ordmasculine" unicode="&#xba;" horiz-adv-x="505" 
d="M143 398q-49 27 -77 76t-28 113q0 65 28 114.5t77 76.5t109 27t109 -27t77.5 -76.5t28.5 -114.5q0 -64 -28.5 -113t-77.5 -76t-109 -27t-109 27zM340 438q28 40 28 109v81q0 69 -28 109t-88 40t-88 -40t-28 -109v-81q0 -69 28 -109t88 -40t88 40z" />
    <glyph glyph-name="guillemotright" unicode="&#xbb;" horiz-adv-x="370" 
d="M150 70l-9 9l94 191l-94 190l9 10l173 -191v-18zM64 145l-9 8l44 117l-44 116l9 9l111 -118v-14z" />
    <glyph glyph-name="onequarter" unicode="&#xbc;" horiz-adv-x="751" 
d="M53 375v21l42 5v373l-42 5v21h114v-399l42 -5v-21h-156zM532 0v21l49 8v74h-178v11l224 311h25v-288h48v-34h-48v-74l48 -8v-21h-168zM450 137h131v181zM132 0l400 800h51l-399 -800h-52z" />
    <glyph glyph-name="onehalf" unicode="&#xbd;" horiz-adv-x="842" 
d="M53 375v21l42 5v373l-42 5v21h114v-399l42 -5v-21h-156zM503 40l116 113q82 80 82 166q0 39 -19 61.5t-50 22.5q-26 0 -44 -12t-18 -34q0 -15 7 -24t24 -18q0 -21 -12.5 -32.5t-31.5 -11.5q-18 0 -32 14t-14 38q0 49 35 75.5t90 26.5q70 0 106 -30.5t36 -79.5
q0 -45 -25.5 -81t-72.5 -73l-120 -97h166l28 79h23v-143h-274v40zM133 0l400 800h51l-399 -800h-52z" />
    <glyph glyph-name="threequarters" unicode="&#xbe;" horiz-adv-x="902" 
d="M143 375v21l49 8v74h-178v11l224 311h25v-288h48v-34h-48v-74l48 -8v-21h-168zM61 512h131v181zM608 16.5q-36 27.5 -36 70.5q0 23 13 36.5t31 13.5q17 0 29.5 -11t12.5 -31q-15 -8 -22.5 -18.5t-7.5 -21.5q0 -44 67 -44q34 0 57.5 25t23.5 74q0 54 -26 80t-88 30v21
q54 3 75.5 25t21.5 67q0 32 -16 50t-47 18q-26 0 -38 -10.5t-12 -26.5q0 -13 7 -21t22 -14q0 -20 -12 -31t-29 -11q-18 0 -30.5 13.5t-12.5 36.5q0 43 33 64.5t82 21.5q60 0 94 -23.5t34 -69.5q0 -40 -30 -66t-90 -33v-2q147 -9 147 -119q0 -32 -19.5 -60t-57 -44.5
t-89.5 -16.5q-51 0 -87 27.5zM239 0l400 800h51l-399 -800h-52z" />
    <glyph glyph-name="questiondown" unicode="&#xbf;" horiz-adv-x="521" 
d="M330 509.5q17 -17.5 17 -42.5t-17 -41.5t-42 -16.5t-42 16.5t-17 41.5t17 42.5t42 17.5t42 -17.5zM279.5 221.5q-19.5 -55.5 -56.5 -124.5q-33 -63 -48 -104t-15 -92q0 -102 29 -142t81 -40q49 0 86 26t37 67q0 52 -50 76q0 35 20.5 53.5t49.5 18.5q30 0 52.5 -22.5
t22.5 -61.5q0 -52 -32.5 -93t-86 -63.5t-115.5 -22.5q-108 0 -162 45t-54 152q0 43 15.5 79.5t38 65.5t61.5 70q42 46 66 77.5t41 73.5t17 92h22q0 -75 -19.5 -130.5z" />
    <glyph glyph-name="Agrave" unicode="&#xc0;" horiz-adv-x="719" 
d="M-28 0v21l98 40l289 759h16l273 -784l92 -15v-21h-294v21l82 13l-85 237h-266l-81 -210l90 -40v-21h-214zM185 292h251l-120 352zM284 901q-15 5 -25 17.5t-10 27.5q0 18 14 32.5t33 14.5t33 -12l131 -114l-9 -17z" />
    <glyph glyph-name="Aacute" unicode="&#xc1;" horiz-adv-x="719" 
d="M-28 0v21l98 40l289 759h16l273 -784l92 -15v-21h-294v21l82 13l-85 237h-266l-81 -210l90 -40v-21h-214zM185 292h251l-120 352zM276 867l132 114q14 12 32 12q20 0 33.5 -14t13.5 -33q0 -15 -9.5 -27.5t-24.5 -17.5l-167 -51z" />
    <glyph glyph-name="Acircumflex" unicode="&#xc2;" horiz-adv-x="719" 
d="M-28 0v21l98 40l289 759h16l273 -784l92 -15v-21h-294v21l82 13l-85 237h-266l-81 -210l90 -40v-21h-214zM185 292h251l-120 352zM219 827l-9 15l128 122h59l127 -122l-9 -15l-148 69z" />
    <glyph glyph-name="Atilde" unicode="&#xc3;" horiz-adv-x="719" 
d="M-28 0v21l98 40l289 759h16l273 -784l92 -15v-21h-294v21l82 13l-85 237h-266l-81 -210l90 -40v-21h-214zM185 292h251l-120 352zM378.5 868q-19.5 10 -42.5 29q-22 17 -36 24.5t-31 7.5q-38 0 -56 -49l-28 4q0 6 12.5 33.5t40 51.5t72.5 24q25 0 44.5 -10t43.5 -29
q20 -16 34.5 -24t31.5 -8q40 0 56 49l28 -4q0 -6 -12.5 -33.5t-40 -51.5t-72.5 -24q-25 0 -44.5 10z" />
    <glyph glyph-name="Adieresis" unicode="&#xc4;" horiz-adv-x="719" 
d="M-28 0v21l98 40l289 759h16l273 -784l92 -15v-21h-294v21l82 13l-85 237h-266l-81 -210l90 -40v-21h-214zM185 292h251l-120 352zM234.5 875q-17.5 17 -17.5 42t17.5 42t42.5 17t42 -17t17 -42t-17 -42t-42 -17t-42.5 17zM420.5 875q-17.5 17 -17.5 42t17.5 42t42.5 17
t41.5 -17t16.5 -42t-16.5 -42t-41.5 -17t-42.5 17z" />
    <glyph glyph-name="Aring" unicode="&#xc5;" horiz-adv-x="719" 
d="M-28 0v21l98 40l277 729l-26 5l-20 21l-27 28v78l55 56h79l55 -56v-78l-28 -28l-21 -22l-29 -5l263 -753l92 -15v-21h-294v21l82 13l-85 237h-266l-81 -210l90 -40v-21h-214zM343 821h50l38 37v50l-38 37h-50l-37 -37v-50zM185 292h251l-120 352z" />
    <glyph glyph-name="AE" unicode="&#xc6;" horiz-adv-x="1114" 
d="M-40 0v21l95 39l462 704l-85 14v22h603v-229h-27l-77 204h-281v-360h120l59 145h27v-316h-27l-59 147h-120v-367h299l82 220h27v-244h-517v309h-292l-164 -249l89 -39v-21h-214zM263 330h278v421z" />
    <glyph glyph-name="Ccedilla" unicode="&#xc7;" horiz-adv-x="746" 
d="M326 -233l6 22q12 -3 28 -3q33 0 56 16t23 51q0 27 -18 45.5t-54 22.5l16 61q-99 8 -173.5 62.5t-114.5 146.5t-40 209q0 124 45.5 219.5t129 148t192.5 52.5q43 0 87.5 -15t80.5 -42l67 57h21v-248h-21l-62 155q-35 32 -81.5 51t-91.5 19q-70 0 -123.5 -36t-83.5 -105
t-30 -164v-183q0 -95 29 -164t81 -105.5t122 -36.5q51 0 102 22.5t85 60.5l58 161h21v-257h-21l-72 51q-36 -29 -82 -45t-91 -16h-7l-8 -34q57 -2 89.5 -24.5t32.5 -67.5q0 -48 -36.5 -72t-89.5 -24q-40 0 -72 9z" />
    <glyph glyph-name="Egrave" unicode="&#xc8;" horiz-adv-x="721" 
d="M40 0v21l92 15v728l-92 14v22h602v-229h-27l-77 204h-296v-360h130l59 145h26v-316h-26l-60 147h-129v-367h314l82 220h26v-244h-624zM278 901q-15 5 -25 17.5t-10 27.5q0 18 14 32.5t33 14.5t33 -12l131 -114l-9 -17z" />
    <glyph glyph-name="Eacute" unicode="&#xc9;" horiz-adv-x="721" 
d="M40 0v21l92 15v728l-92 14v22h602v-229h-27l-77 204h-296v-360h130l59 145h26v-316h-26l-60 147h-129v-367h314l82 220h26v-244h-624zM270 867l132 114q14 12 32 12q20 0 33.5 -14t13.5 -33q0 -15 -9.5 -27.5t-24.5 -17.5l-167 -51z" />
    <glyph glyph-name="Ecircumflex" unicode="&#xca;" horiz-adv-x="721" 
d="M40 0v21l92 15v728l-92 14v22h602v-229h-27l-77 204h-296v-360h130l59 145h26v-316h-26l-60 147h-129v-367h314l82 220h26v-244h-624zM213 827l-9 15l128 122h59l127 -122l-9 -15l-148 69z" />
    <glyph glyph-name="Edieresis" unicode="&#xcb;" horiz-adv-x="721" 
d="M40 0v21l92 15v728l-92 14v22h602v-229h-27l-77 204h-296v-360h130l59 145h26v-316h-26l-60 147h-129v-367h314l82 220h26v-244h-624zM228.5 875q-17.5 17 -17.5 42t17.5 42t42.5 17t42 -17t17 -42t-17 -42t-42 -17t-42.5 17zM414.5 875q-17.5 17 -17.5 42t17.5 42
t42.5 17t41.5 -17t16.5 -42t-16.5 -42t-41.5 -17t-42.5 17z" />
    <glyph glyph-name="Igrave" unicode="&#xcc;" horiz-adv-x="374" 
d="M40 0v21l92 15v728l-92 14v22h294v-22l-92 -14v-728l92 -15v-21h-294zM102 901q-15 5 -25 17.5t-10 27.5q0 18 14 32.5t33 14.5t33 -12l131 -114l-9 -17z" />
    <glyph glyph-name="Iacute" unicode="&#xcd;" horiz-adv-x="374" 
d="M40 0v21l92 15v728l-92 14v22h294v-22l-92 -14v-728l92 -15v-21h-294zM94 867l132 114q14 12 32 12q20 0 33.5 -14t13.5 -33q0 -15 -9.5 -27.5t-24.5 -17.5l-167 -51z" />
    <glyph glyph-name="Icircumflex" unicode="&#xce;" horiz-adv-x="374" 
d="M40 0v21l92 15v728l-92 14v22h294v-22l-92 -14v-728l92 -15v-21h-294zM37 827l-9 15l128 122h59l127 -122l-9 -15l-148 69z" />
    <glyph glyph-name="Idieresis" unicode="&#xcf;" horiz-adv-x="374" 
d="M40 0v21l92 15v728l-92 14v22h294v-22l-92 -14v-728l92 -15v-21h-294zM52.5 875q-17.5 17 -17.5 42t17.5 42t42.5 17t42 -17t17 -42t-17 -42t-42 -17t-42.5 17zM238.5 875q-17.5 17 -17.5 42t17.5 42t42.5 17t41.5 -17t16.5 -42t-16.5 -42t-41.5 -17t-42.5 17z" />
    <glyph glyph-name="Eth" unicode="&#xd0;" horiz-adv-x="859" 
d="M40 21l92 15v339h-76v33h76v356l-92 14v22h383q110 0 195.5 -49.5t133.5 -140t48 -210.5t-48 -210.5t-134 -140t-195 -49.5h-383v21zM427 24q72 1 127.5 35.5t87 101.5t31.5 162v154q0 96 -32 163t-88.5 101t-129.5 34h-181v-367h184v-33h-184v-351h185z" />
    <glyph glyph-name="Ntilde" unicode="&#xd1;" horiz-adv-x="812" 
d="M43 0v21l93 40v678l-93 39v22h186l431 -604v543l-93 39v22h213v-22l-95 -39v-739h-25l-499 701v-640l96 -40v-21h-214zM438.5 888q-19.5 10 -42.5 29q-22 17 -36 24.5t-31 7.5q-38 0 -56 -49l-28 4q0 6 12.5 33.5t40 51.5t72.5 24q25 0 44.5 -10t43.5 -29
q20 -16 34.5 -24t31.5 -8q40 0 56 49l28 -4q0 -6 -12.5 -33.5t-40 -51.5t-72.5 -24q-25 0 -44.5 10z" />
    <glyph glyph-name="Ograve" unicode="&#xd2;" horiz-adv-x="862" 
d="M236 33q-86 53 -134 148.5t-48 218.5t48 218.5t134 148.5t195 53t195 -53t134 -148.5t48 -218.5t-48 -218.5t-134 -148.5t-195 -53t-195 53zM560.5 41q57.5 38 90.5 110.5t33 171.5v154q0 99 -33 171.5t-90.5 110.5t-129.5 38q-73 0 -130 -38t-90 -110.5t-33 -171.5v-154
q0 -99 33 -171.5t90 -110.5t130 -38q72 0 129.5 38zM348 901q-15 5 -25 17.5t-10 27.5q0 18 14 32.5t33 14.5t33 -12l131 -114l-9 -17z" />
    <glyph glyph-name="Oacute" unicode="&#xd3;" horiz-adv-x="862" 
d="M236 33q-86 53 -134 148.5t-48 218.5t48 218.5t134 148.5t195 53t195 -53t134 -148.5t48 -218.5t-48 -218.5t-134 -148.5t-195 -53t-195 53zM560.5 41q57.5 38 90.5 110.5t33 171.5v154q0 99 -33 171.5t-90.5 110.5t-129.5 38q-73 0 -130 -38t-90 -110.5t-33 -171.5v-154
q0 -99 33 -171.5t90 -110.5t130 -38q72 0 129.5 38zM340 867l132 114q14 12 32 12q20 0 33.5 -14t13.5 -33q0 -15 -9.5 -27.5t-24.5 -17.5l-167 -51z" />
    <glyph glyph-name="Ocircumflex" unicode="&#xd4;" horiz-adv-x="862" 
d="M236 33q-86 53 -134 148.5t-48 218.5t48 218.5t134 148.5t195 53t195 -53t134 -148.5t48 -218.5t-48 -218.5t-134 -148.5t-195 -53t-195 53zM560.5 41q57.5 38 90.5 110.5t33 171.5v154q0 99 -33 171.5t-90.5 110.5t-129.5 38q-73 0 -130 -38t-90 -110.5t-33 -171.5v-154
q0 -99 33 -171.5t90 -110.5t130 -38q72 0 129.5 38zM283 827l-9 15l128 122h59l127 -122l-9 -15l-148 69z" />
    <glyph glyph-name="Otilde" unicode="&#xd5;" horiz-adv-x="862" 
d="M236 33q-86 53 -134 148.5t-48 218.5t48 218.5t134 148.5t195 53t195 -53t134 -148.5t48 -218.5t-48 -218.5t-134 -148.5t-195 -53t-195 53zM560.5 41q57.5 38 90.5 110.5t33 171.5v154q0 99 -33 171.5t-90.5 110.5t-129.5 38q-73 0 -130 -38t-90 -110.5t-33 -171.5v-154
q0 -99 33 -171.5t90 -110.5t130 -38q72 0 129.5 38zM442.5 868q-19.5 10 -42.5 29q-22 17 -36 24.5t-31 7.5q-38 0 -56 -49l-28 4q0 6 12.5 33.5t40 51.5t72.5 24q25 0 44.5 -10t43.5 -29q20 -16 34.5 -24t31.5 -8q40 0 56 49l28 -4q0 -6 -12.5 -33.5t-40 -51.5t-72.5 -24
q-25 0 -44.5 10z" />
    <glyph glyph-name="Odieresis" unicode="&#xd6;" horiz-adv-x="862" 
d="M236 33q-86 53 -134 148.5t-48 218.5t48 218.5t134 148.5t195 53t195 -53t134 -148.5t48 -218.5t-48 -218.5t-134 -148.5t-195 -53t-195 53zM560.5 41q57.5 38 90.5 110.5t33 171.5v154q0 99 -33 171.5t-90.5 110.5t-129.5 38q-73 0 -130 -38t-90 -110.5t-33 -171.5v-154
q0 -99 33 -171.5t90 -110.5t130 -38q72 0 129.5 38zM298.5 875q-17.5 17 -17.5 42t17.5 42t42.5 17t42 -17t17 -42t-17 -42t-42 -17t-42.5 17zM484.5 875q-17.5 17 -17.5 42t17.5 42t42.5 17t41.5 -17t16.5 -42t-16.5 -42t-41.5 -17t-42.5 17z" />
    <glyph glyph-name="multiply" unicode="&#xd7;" horiz-adv-x="495" 
d="M406 170l-159 160l-159 -159l-27 27l158 158l-158 159l27 27l158 -159l160 160l27 -27l-160 -160l160 -159z" />
    <glyph glyph-name="Oslash" unicode="&#xd8;" horiz-adv-x="862" 
d="M243 28q-89 52 -139 149t-50 223q0 123 48 218.5t134 148.5t195 53q83 0 157 -33l16 35h41l-24 -53q88 -52 137.5 -148t49.5 -221q0 -123 -48 -218.5t-134 -148.5t-195 -53q-83 0 -154 31l-14 -33h-42zM569 753q-61 44 -138 44q-73 0 -130 -38t-90 -110.5t-33 -171.5
v-154q0 -83 23 -148t65 -106zM560.5 41q57.5 38 90.5 110.5t33 171.5v154q0 81 -22.5 144.5t-63.5 105.5l-303 -683q59 -41 136 -41q72 0 129.5 38z" />
    <glyph glyph-name="Ugrave" unicode="&#xd9;" horiz-adv-x="809" 
d="M187 45.5q-68 65.5 -68 173.5v545l-92 14v22h294v-22l-92 -14v-545q0 -98 55 -150.5t167 -52.5q212 0 212 203v520l-93 39v22h213v-22l-96 -39v-520q0 -120 -67 -179.5t-218 -59.5q-147 0 -215 65.5zM322 901q-15 5 -25 17.5t-10 27.5q0 18 14 32.5t33 14.5t33 -12
l131 -114l-9 -17z" />
    <glyph glyph-name="Uacute" unicode="&#xda;" horiz-adv-x="809" 
d="M187 45.5q-68 65.5 -68 173.5v545l-92 14v22h294v-22l-92 -14v-545q0 -98 55 -150.5t167 -52.5q212 0 212 203v520l-93 39v22h213v-22l-96 -39v-520q0 -120 -67 -179.5t-218 -59.5q-147 0 -215 65.5zM314 867l132 114q14 12 32 12q20 0 33.5 -14t13.5 -33
q0 -15 -9.5 -27.5t-24.5 -17.5l-167 -51z" />
    <glyph glyph-name="Ucircumflex" unicode="&#xdb;" horiz-adv-x="809" 
d="M187 45.5q-68 65.5 -68 173.5v545l-92 14v22h294v-22l-92 -14v-545q0 -98 55 -150.5t167 -52.5q212 0 212 203v520l-93 39v22h213v-22l-96 -39v-520q0 -120 -67 -179.5t-218 -59.5q-147 0 -215 65.5zM257 827l-9 15l128 122h59l127 -122l-9 -15l-148 69z" />
    <glyph glyph-name="Udieresis" unicode="&#xdc;" horiz-adv-x="809" 
d="M187 45.5q-68 65.5 -68 173.5v545l-92 14v22h294v-22l-92 -14v-545q0 -98 55 -150.5t167 -52.5q212 0 212 203v520l-93 39v22h213v-22l-96 -39v-520q0 -120 -67 -179.5t-218 -59.5q-147 0 -215 65.5zM272.5 875q-17.5 17 -17.5 42t17.5 42t42.5 17t42 -17t17 -42t-17 -42
t-42 -17t-42.5 17zM458.5 875q-17.5 17 -17.5 42t17.5 42t42.5 17t41.5 -17t16.5 -42t-16.5 -42t-41.5 -17t-42.5 17z" />
    <glyph glyph-name="Yacute" unicode="&#xdd;" horiz-adv-x="676" 
d="M312 866l132 114q14 12 32 12q20 0 33.5 -14t13.5 -33q0 -15 -9.5 -27.5t-24.5 -17.5l-167 -51zM196 0v21l93 15v304l-243 424l-79 14v22h301v-22l-93 -14l210 -363l193 329l-120 48v22h224v-22l-77 -49l-208 -356v-337l93 -15v-21h-294z" />
    <glyph glyph-name="Thorn" unicode="&#xde;" horiz-adv-x="707" 
d="M40 21l92 15v728l-92 14v22h298v-22l-92 -14v-140h112q165 0 242.5 -52.5t77.5 -168.5q0 -115 -77.5 -167.5t-242.5 -52.5h-112v-147l92 -15v-21h-298v21zM344 207q206 0 206 181v30q0 182 -206 182h-98v-393h98z" />
    <glyph glyph-name="germandbls" unicode="&#xdf;" horiz-adv-x="648" 
d="M298 14q-47 24 -47 70q0 28 17.5 45.5t46.5 17.5q18 0 33.5 -11.5t21.5 -29.5q-17 -20 -17 -43q0 -26 23 -40t62 -14q42 0 76 14.5t53.5 39t19.5 54.5t-13.5 47.5t-35 26.5t-60.5 20l-90 25q-66 19 -99 56t-33 102q0 52 27 80t74 51q49 23 65 53.5t16 93.5q0 64 -28.5 97
t-82.5 33q-67 0 -101.5 -47.5t-34.5 -149.5v-605h-170v20l70 10v532q0 130 58.5 194t177.5 64q104 0 157.5 -40t53.5 -108q0 -40 -16.5 -66t-43 -42.5t-78.5 -40.5l-33 -16q-37 -18 -55.5 -36.5t-18.5 -43.5q0 -35 28.5 -53t77.5 -31l102 -26q121 -31 121 -158
q0 -75 -43.5 -122t-140.5 -47q-93 0 -140 24z" />
    <glyph glyph-name="agrave" unicode="&#xe0;" horiz-adv-x="558" 
d="M87 23.5q-41 33.5 -41 99.5q0 94 79 133.5t183 39.5h67v77q0 52 -11.5 80.5t-35.5 40t-65 11.5q-47 0 -70 -18.5t-23 -49.5q0 -29 28 -38q0 -25 -19 -44t-45 -19q-28 0 -45 15.5t-17 47.5q0 58 58 93t145 35q200 0 200 -174v-286q0 -22 9.5 -33.5t27.5 -11.5
q17 0 27 11.5t10 31.5h21q0 -35 -22.5 -55t-62.5 -20q-46 0 -77.5 26.5t-32.5 82.5q-24 -51 -73.5 -80t-109.5 -29q-64 0 -105 33.5zM302.5 50q28.5 16 48.5 46.5t24 73.5v104h-67q-82 0 -122.5 -36.5t-40.5 -102.5q0 -55 26 -78t76 -23q27 0 55.5 16zM138 687
q-17 14 -17 35q0 19 14 33t33 14q14 0 26 -8t18 -20l73 -158l-16 -12z" />
    <glyph glyph-name="aacute" unicode="&#xe1;" horiz-adv-x="558" 
d="M87 23.5q-41 33.5 -41 99.5q0 94 79 133.5t183 39.5h67v77q0 52 -11.5 80.5t-35.5 40t-65 11.5q-47 0 -70 -18.5t-23 -49.5q0 -29 28 -38q0 -25 -19 -44t-45 -19q-28 0 -45 15.5t-17 47.5q0 58 58 93t145 35q200 0 200 -174v-286q0 -22 9.5 -33.5t27.5 -11.5
q17 0 27 11.5t10 31.5h21q0 -35 -22.5 -55t-62.5 -20q-46 0 -77.5 26.5t-32.5 82.5q-24 -51 -73.5 -80t-109.5 -29q-64 0 -105 33.5zM302.5 50q28.5 16 48.5 46.5t24 73.5v104h-67q-82 0 -122.5 -36.5t-40.5 -102.5q0 -55 26 -78t76 -23q27 0 55.5 16zM230 583l74 158
q5 12 17 20t26 8q19 0 33 -14t14 -33q0 -23 -17 -35l-131 -116z" />
    <glyph glyph-name="acircumflex" unicode="&#xe2;" horiz-adv-x="558" 
d="M87 23.5q-41 33.5 -41 99.5q0 94 79 133.5t183 39.5h67v77q0 52 -11.5 80.5t-35.5 40t-65 11.5q-47 0 -70 -18.5t-23 -49.5q0 -29 28 -38q0 -25 -19 -44t-45 -19q-28 0 -45 15.5t-17 47.5q0 58 58 93t145 35q200 0 200 -174v-286q0 -22 9.5 -33.5t27.5 -11.5
q17 0 27 11.5t10 31.5h21q0 -35 -22.5 -55t-62.5 -20q-46 0 -77.5 26.5t-32.5 82.5q-24 -51 -73.5 -80t-109.5 -29q-64 0 -105 33.5zM302.5 50q28.5 16 48.5 46.5t24 73.5v104h-67q-82 0 -122.5 -36.5t-40.5 -102.5q0 -55 26 -78t76 -23q27 0 55.5 16zM157 589l-21 15
l120 155h39l120 -155l-21 -15l-119 94z" />
    <glyph glyph-name="atilde" unicode="&#xe3;" horiz-adv-x="558" 
d="M87 23.5q-41 33.5 -41 99.5q0 94 79 133.5t183 39.5h67v77q0 52 -11.5 80.5t-35.5 40t-65 11.5q-47 0 -70 -18.5t-23 -49.5q0 -29 28 -38q0 -25 -19 -44t-45 -19q-28 0 -45 15.5t-17 47.5q0 58 58 93t145 35q200 0 200 -174v-286q0 -22 9.5 -33.5t27.5 -11.5
q17 0 27 11.5t10 31.5h21q0 -35 -22.5 -55t-62.5 -20q-46 0 -77.5 26.5t-32.5 82.5q-24 -51 -73.5 -80t-109.5 -29q-64 0 -105 33.5zM302.5 50q28.5 16 48.5 46.5t24 73.5v104h-67q-82 0 -122.5 -36.5t-40.5 -102.5q0 -55 26 -78t76 -23q27 0 55.5 16zM300 612
q-23 10 -53 29q-26 16 -43 24t-34 8q-39 0 -57 -49l-27 4q0 6 12 33.5t40 51.5t73 24q25 0 48 -10t53 -29q26 -16 43 -24t34 -8q39 0 57 49l27 -4q0 -6 -12 -33.5t-40 -51.5t-73 -24q-25 0 -48 10z" />
    <glyph glyph-name="adieresis" unicode="&#xe4;" horiz-adv-x="558" 
d="M87 23.5q-41 33.5 -41 99.5q0 94 79 133.5t183 39.5h67v77q0 52 -11.5 80.5t-35.5 40t-65 11.5q-47 0 -70 -18.5t-23 -49.5q0 -29 28 -38q0 -25 -19 -44t-45 -19q-28 0 -45 15.5t-17 47.5q0 58 58 93t145 35q200 0 200 -174v-286q0 -22 9.5 -33.5t27.5 -11.5
q17 0 27 11.5t10 31.5h21q0 -35 -22.5 -55t-62.5 -20q-46 0 -77.5 26.5t-32.5 82.5q-24 -51 -73.5 -80t-109.5 -29q-64 0 -105 33.5zM302.5 50q28.5 16 48.5 46.5t24 73.5v104h-67q-82 0 -122.5 -36.5t-40.5 -102.5q0 -55 26 -78t76 -23q27 0 55.5 16zM135.5 627
q-17.5 17 -17.5 42t17.5 42t42.5 17t42 -17t17 -42t-17 -42t-42 -17t-42.5 17zM321 627q-17 17 -17 42t17 42t42 17t42 -17t17 -42t-17 -42t-42 -17t-42 17z" />
    <glyph glyph-name="aring" unicode="&#xe5;" horiz-adv-x="558" 
d="M87 23.5q-41 33.5 -41 99.5q0 94 79 133.5t183 39.5h67v77q0 52 -11.5 80.5t-35.5 40t-65 11.5q-47 0 -70 -18.5t-23 -49.5q0 -29 28 -38q0 -25 -19 -44t-45 -19q-28 0 -45 15.5t-17 47.5q0 58 58 93t145 35q200 0 200 -174v-286q0 -22 9.5 -33.5t27.5 -11.5
q17 0 27 11.5t10 31.5h21q0 -35 -22.5 -55t-62.5 -20q-46 0 -77.5 26.5t-32.5 82.5q-24 -51 -73.5 -80t-109.5 -29q-64 0 -105 33.5zM302.5 50q28.5 16 48.5 46.5t24 73.5v104h-67q-82 0 -122.5 -36.5t-40.5 -102.5q0 -55 26 -78t76 -23q27 0 55.5 16zM197.5 598
q-27.5 28 -27.5 67t27.5 67t66.5 28q40 0 67.5 -28t27.5 -67t-27.5 -67t-67.5 -28q-39 0 -66.5 28zM308 621.5q19 18.5 19 43.5t-19 43.5t-44 18.5t-43.5 -18.5t-18.5 -43.5t18.5 -43.5t43.5 -18.5t44 18.5z" />
    <glyph glyph-name="ae" unicode="&#xe6;" horiz-adv-x="878" 
d="M79 24q-40 34 -40 99q0 95 83.5 135t208.5 40h37v95q0 57 -26.5 84.5t-75.5 27.5q-45 0 -74 -21t-29 -47q0 -29 28 -38q0 -25 -19 -44t-45 -19t-44 18.5t-18 44.5q0 38 27.5 67t73.5 45t100 16q132 0 177 -66q34 32 79 49t96 17q63 0 113 -28t78 -77.5t29 -113.5h-368
v-99q0 -88 39.5 -142.5t114.5 -54.5q69 0 122 39t65 101h23q-14 -74 -71 -118t-139 -44t-147.5 39.5t-93.5 108.5q-29 -78 -79.5 -113t-123.5 -35q-61 0 -101 34zM729 333q0 87 -27.5 129.5t-83.5 42.5q-67 0 -104.5 -46.5t-42.5 -125.5h258zM296 57.5q32 20.5 52 56
t20 77.5v82h-37q-78 0 -130.5 -37t-52.5 -113q0 -40 22 -63t60 -23q34 0 66 20.5z" />
    <glyph glyph-name="ccedilla" unicode="&#xe7;" horiz-adv-x="547" 
d="M232 -223l6 22q12 -3 28 -3q33 0 56 16t23 51q0 27 -18 45.5t-54 22.5l16 59q-69 4 -125 38t-88.5 94t-32.5 137q0 83 36.5 144t95.5 92.5t127 31.5q57 0 104 -19.5t74.5 -54.5t27.5 -79q0 -33 -17 -50.5t-45 -17.5q-27 0 -45 18t-18 45q15 10 21 22t6 30
q0 37 -29.5 60.5t-78.5 23.5q-72 0 -110.5 -51.5t-38.5 -144.5v-100q0 -89 37.5 -143t111.5 -54q68 0 118.5 38.5t62.5 101.5h23q-13 -71 -64.5 -114t-125.5 -47l-8 -35q57 -2 89.5 -24.5t32.5 -67.5q0 -48 -36.5 -72t-89.5 -24q-40 0 -72 9z" />
    <glyph glyph-name="egrave" unicode="&#xe8;" horiz-adv-x="559" 
d="M173 23.5q-60 33.5 -95 94.5t-35 141t34.5 140.5t93 94t130.5 33.5q63 0 113 -28t78 -77.5t29 -113.5h-368v-99q0 -88 39.5 -142.5t114.5 -54.5q69 0 122 39t65 101h23q-14 -74 -71 -118t-139 -44q-74 0 -134 33.5zM411 333q0 87 -27 129.5t-84 42.5q-67 0 -104 -47
t-42 -125h257zM170 687q-17 14 -17 35q0 19 14 33t33 14q14 0 26 -8t18 -20l73 -158l-16 -12z" />
    <glyph glyph-name="eacute" unicode="&#xe9;" horiz-adv-x="559" 
d="M173 23.5q-60 33.5 -95 94.5t-35 141t34.5 140.5t93 94t130.5 33.5q63 0 113 -28t78 -77.5t29 -113.5h-368v-99q0 -88 39.5 -142.5t114.5 -54.5q69 0 122 39t65 101h23q-14 -74 -71 -118t-139 -44q-74 0 -134 33.5zM411 333q0 87 -27 129.5t-84 42.5q-67 0 -104 -47
t-42 -125h257zM264 583l74 158q5 12 17 20t26 8q19 0 33 -14t14 -33q0 -23 -17 -35l-131 -116z" />
    <glyph glyph-name="ecircumflex" unicode="&#xea;" horiz-adv-x="559" 
d="M173 23.5q-60 33.5 -95 94.5t-35 141t34.5 140.5t93 94t130.5 33.5q63 0 113 -28t78 -77.5t29 -113.5h-368v-99q0 -88 39.5 -142.5t114.5 -54.5q69 0 122 39t65 101h23q-14 -74 -71 -118t-139 -44q-74 0 -134 33.5zM411 333q0 87 -27 129.5t-84 42.5q-67 0 -104 -47
t-42 -125h257zM185 589l-21 15l120 155h39l120 -155l-21 -15l-119 94z" />
    <glyph glyph-name="edieresis" unicode="&#xeb;" horiz-adv-x="559" 
d="M173 23.5q-60 33.5 -95 94.5t-35 141t34.5 140.5t93 94t130.5 33.5q63 0 113 -28t78 -77.5t29 -113.5h-368v-99q0 -88 39.5 -142.5t114.5 -54.5q69 0 122 39t65 101h23q-14 -74 -71 -118t-139 -44q-74 0 -134 33.5zM411 333q0 87 -27 129.5t-84 42.5q-67 0 -104 -47
t-42 -125h257zM157.5 627q-17.5 17 -17.5 42t17.5 42t42.5 17t42 -17t17 -42t-17 -42t-42 -17t-42.5 17zM343 627q-17 17 -17 42t17 42t42 17t42 -17t17 -42t-17 -42t-42 -17t-42 17z" />
    <glyph glyph-name="igrave" unicode="&#xec;" horiz-adv-x="288" 
d="M13 687q-17 14 -17 35q0 19 14 33t33 14q14 0 26 -8t18 -20l73 -158l-16 -12zM28 0v20l70 10v457l-70 10v20h170v-487l70 -10v-20h-240z" />
    <glyph glyph-name="iacute" unicode="&#xed;" horiz-adv-x="288" 
d="M114 583l74 158q5 12 17 20t26 8q19 0 33 -14t14 -33q0 -23 -17 -35l-131 -116zM28 0v20l70 10v457l-70 10v20h170v-487l70 -10v-20h-240z" />
    <glyph glyph-name="icircumflex" unicode="&#xee;" horiz-adv-x="287" 
d="M22 589l-21 15l120 155h39l120 -155l-21 -15l-119 94zM28 0v20l70 10v457l-70 10v20h170v-487l70 -10v-20h-240z" />
    <glyph glyph-name="idieresis" unicode="&#xef;" horiz-adv-x="287" 
d="M28 0v20l70 10v457l-70 10v20h170v-487l70 -10v-20h-240zM8.5 627q-17.5 17 -17.5 42t17.5 42t42.5 17t42 -17t17 -42t-17 -42t-42 -17t-42.5 17zM194 627q-17 17 -17 42t17 42t42 17t42 -17t17 -42t-17 -42t-42 -17t-42 17z" />
    <glyph glyph-name="eth" unicode="&#xf0;" horiz-adv-x="627" 
d="M171 23.5q-59 33.5 -93.5 95t-34.5 140.5t34.5 140t93.5 94.5t131 33.5q39 0 77.5 -9t69.5 -25q-4 71 -20.5 120.5t-53.5 86.5l-128 -71l-12 24l119 65q-58 44 -160 70l5 22q109 -25 186 -75l115 63l13 -22l-105 -58q154 -115 154 -346v-113q0 -79 -35 -140.5t-94 -95
t-131 -33.5t-131 33.5zM414 66q38 54 38 143v184q0 28 -2 74q-31 17 -70.5 27.5t-77.5 10.5q-74 0 -111.5 -53.5t-37.5 -142.5v-100q0 -89 37.5 -143t111.5 -54t112 54z" />
    <glyph glyph-name="ntilde" unicode="&#xf1;" horiz-adv-x="634" 
d="M27 20l70 10v458l-70 10v20h170v-108q37 54 87 85.5t108 31.5q72 0 113.5 -36t41.5 -107v-354l70 -10v-20h-230v20l60 10v352q0 52 -21 80.5t-65 28.5q-46 0 -88.5 -33.5t-75.5 -82.5v-345l60 -10v-20h-230v20zM362 612q-23 10 -53 29q-26 16 -43 24t-34 8q-39 0 -57 -49
l-27 4q0 6 12 33.5t40 51.5t73 24q25 0 48 -10t53 -29q26 -16 43 -24t34 -8q39 0 57 49l27 -4q0 -6 -12 -33.5t-40 -51.5t-73 -24q-25 0 -48 10z" />
    <glyph glyph-name="ograve" unicode="&#xf2;" horiz-adv-x="602" 
d="M171 23.5q-59 33.5 -93.5 95t-34.5 140.5t34.5 140t93.5 94.5t131 33.5t131 -33.5t93.5 -94.5t34.5 -140t-34.5 -140.5t-93.5 -95t-131 -33.5t-131 33.5zM413.5 66q37.5 54 37.5 143v100q0 89 -37.5 142.5t-111.5 53.5t-111.5 -53.5t-37.5 -142.5v-100q0 -89 37.5 -143
t111.5 -54t111.5 54zM176 687q-17 14 -17 35q0 19 14 33t33 14q14 0 26 -8t18 -20l73 -158l-16 -12z" />
    <glyph glyph-name="oacute" unicode="&#xf3;" horiz-adv-x="602" 
d="M171 23.5q-59 33.5 -93.5 95t-34.5 140.5t34.5 140t93.5 94.5t131 33.5t131 -33.5t93.5 -94.5t34.5 -140t-34.5 -140.5t-93.5 -95t-131 -33.5t-131 33.5zM413.5 66q37.5 54 37.5 143v100q0 89 -37.5 142.5t-111.5 53.5t-111.5 -53.5t-37.5 -142.5v-100q0 -89 37.5 -143
t111.5 -54t111.5 54zM288 583l74 158q5 12 17 20t26 8q19 0 33 -14t14 -33q0 -23 -17 -35l-131 -116z" />
    <glyph glyph-name="ocircumflex" unicode="&#xf4;" horiz-adv-x="602" 
d="M171 23.5q-59 33.5 -93.5 95t-34.5 140.5t34.5 140t93.5 94.5t131 33.5t131 -33.5t93.5 -94.5t34.5 -140t-34.5 -140.5t-93.5 -95t-131 -33.5t-131 33.5zM413.5 66q37.5 54 37.5 143v100q0 89 -37.5 142.5t-111.5 53.5t-111.5 -53.5t-37.5 -142.5v-100q0 -89 37.5 -143
t111.5 -54t111.5 54zM184 589l-21 15l120 155h39l120 -155l-21 -15l-119 94z" />
    <glyph glyph-name="otilde" unicode="&#xf5;" horiz-adv-x="602" 
d="M171 23.5q-59 33.5 -93.5 95t-34.5 140.5t34.5 140t93.5 94.5t131 33.5t131 -33.5t93.5 -94.5t34.5 -140t-34.5 -140.5t-93.5 -95t-131 -33.5t-131 33.5zM413.5 66q37.5 54 37.5 143v100q0 89 -37.5 142.5t-111.5 53.5t-111.5 -53.5t-37.5 -142.5v-100q0 -89 37.5 -143
t111.5 -54t111.5 54zM331 612q-23 10 -53 29q-26 16 -43 24t-34 8q-39 0 -57 -49l-27 4q0 6 12 33.5t40 51.5t73 24q25 0 48 -10t53 -29q26 -16 43 -24t34 -8q39 0 57 49l27 -4q0 -6 -12 -33.5t-40 -51.5t-73 -24q-25 0 -48 10z" />
    <glyph glyph-name="odieresis" unicode="&#xf6;" horiz-adv-x="602" 
d="M171 23.5q-59 33.5 -93.5 95t-34.5 140.5t34.5 140t93.5 94.5t131 33.5t131 -33.5t93.5 -94.5t34.5 -140t-34.5 -140.5t-93.5 -95t-131 -33.5t-131 33.5zM413.5 66q37.5 54 37.5 143v100q0 89 -37.5 142.5t-111.5 53.5t-111.5 -53.5t-37.5 -142.5v-100q0 -89 37.5 -143
t111.5 -54t111.5 54zM167.5 627q-17.5 17 -17.5 42t17.5 42t42.5 17t42 -17t17 -42t-17 -42t-42 -17t-42.5 17zM353 627q-17 17 -17 42t17 42t42 17t42 -17t17 -42t-17 -42t-42 -17t-42 17z" />
    <glyph glyph-name="divide" unicode="&#xf7;" horiz-adv-x="599" 
d="M262 479.5q-16 16.5 -16 38.5t16 37.5t38 15.5t38 -15.5t16 -37.5t-16 -38.5t-38 -16.5t-38 16.5zM75 338v38h449v-38h-449zM262 159q-16 16 -16 38t16 37.5t38 15.5q23 0 38.5 -15.5t15.5 -37.5t-16 -38t-38 -16t-38 16z" />
    <glyph glyph-name="oslash" unicode="&#xf8;" horiz-adv-x="604" 
d="M173 22q-60 33 -95 94.5t-35 142.5q0 79 34.5 140t93.5 94.5t131 33.5q47 0 93 -16l40 90h40l-46 -105q61 -33 96.5 -94.5t35.5 -142.5q0 -79 -34.5 -140.5t-93.5 -95t-131 -33.5q-51 0 -96 17l-36 -81h-40zM380 484q-34 21 -78 21q-74 0 -111.5 -53.5t-37.5 -142.5v-100
q0 -94 40 -147zM413.5 66q37.5 54 37.5 143v100q0 98 -42 149l-188 -423q34 -23 81 -23q74 0 111.5 54z" />
    <glyph glyph-name="ugrave" unicode="&#xf9;" horiz-adv-x="627" 
d="M128.5 26q-41.5 36 -41.5 107v355l-70 10v20h170v-383q0 -51 21 -80t65 -29q46 0 88.5 30.5t75.5 75.5v356l-70 10v20h170v-488l70 -10v-20h-170v96q-36 -50 -86.5 -78t-108.5 -28q-72 0 -113.5 36zM177 687q-17 14 -17 35q0 19 14 33t33 14q14 0 26 -8t18 -20l73 -158
l-16 -12z" />
    <glyph glyph-name="uacute" unicode="&#xfa;" horiz-adv-x="627" 
d="M128.5 26q-41.5 36 -41.5 107v355l-70 10v20h170v-383q0 -51 21 -80t65 -29q46 0 88.5 30.5t75.5 75.5v356l-70 10v20h170v-488l70 -10v-20h-170v96q-36 -50 -86.5 -78t-108.5 -28q-72 0 -113.5 36zM250 583l74 158q5 12 17 20t26 8q19 0 33 -14t14 -33q0 -23 -17 -35
l-131 -116z" />
    <glyph glyph-name="ucircumflex" unicode="&#xfb;" horiz-adv-x="627" 
d="M128.5 26q-41.5 36 -41.5 107v355l-70 10v20h170v-383q0 -51 21 -80t65 -29q46 0 88.5 30.5t75.5 75.5v356l-70 10v20h170v-488l70 -10v-20h-170v96q-36 -50 -86.5 -78t-108.5 -28q-72 0 -113.5 36zM191 589l-21 15l120 155h39l120 -155l-21 -15l-119 94z" />
    <glyph glyph-name="udieresis" unicode="&#xfc;" horiz-adv-x="627" 
d="M128.5 26q-41.5 36 -41.5 107v355l-70 10v20h170v-383q0 -51 21 -80t65 -29q46 0 88.5 30.5t75.5 75.5v356l-70 10v20h170v-488l70 -10v-20h-170v96q-36 -50 -86.5 -78t-108.5 -28q-72 0 -113.5 36zM176.5 627q-17.5 17 -17.5 42t17.5 42t42.5 17t42 -17t17 -42t-17 -42
t-42 -17t-42.5 17zM362 627q-17 17 -17 42t17 42t42 17t42 -17t17 -42t-17 -42t-42 -17t-42 17z" />
    <glyph glyph-name="yacute" unicode="&#xfd;" horiz-adv-x="536" 
d="M34 -266q-32 26 -32 70q0 30 17.5 48.5t43.5 18.5q19 0 34 -8t24 -24q-15 -21 -15 -44q0 -20 13 -33t33 -13q24 0 41.5 16t31.5 56l60 172l-232 494l-67 10v20h249v-20l-70 -12l167 -357l119 344l-86 25v20h180v-20l-68 -25l-224 -651q-21 -59 -50.5 -86t-84.5 -27
q-52 0 -84 26zM273 583l74 158q5 12 17 20t26 8q19 0 33 -14t14 -33q0 -23 -17 -35l-131 -116z" />
    <glyph glyph-name="thorn" unicode="&#xfe;" horiz-adv-x="626" 
d="M7 -263l70 10v1023l-70 10v20h170v-382q25 51 67 80t99 29q71 0 125 -33.5t84 -94t30 -141.5t-30 -141.5t-84 -93.5t-125 -33q-57 0 -99 28.5t-67 78.5v-350l94 -10v-20h-264v20zM472 208v100q0 194 -139 194q-60 0 -102.5 -44.5t-53.5 -111.5v-176q11 -67 53.5 -111
t102.5 -44q139 0 139 193z" />
    <glyph glyph-name="ydieresis" unicode="&#xff;" horiz-adv-x="536" 
d="M34 -266q-32 26 -32 70q0 30 17.5 48.5t43.5 18.5q19 0 34 -8t24 -24q-15 -21 -15 -44q0 -20 13 -33t33 -13q24 0 41.5 16t31.5 56l60 172l-232 494l-67 10v20h249v-20l-70 -12l167 -357l119 344l-86 25v20h180v-20l-68 -25l-224 -651q-21 -59 -50.5 -86t-84.5 -27
q-52 0 -84 26zM157.5 627q-17.5 17 -17.5 42t17.5 42t42.5 17t42 -17t17 -42t-17 -42t-42 -17t-42.5 17zM343 627q-17 17 -17 42t17 42t42 17t42 -17t17 -42t-17 -42t-42 -17t-42 17z" />
    <glyph glyph-name="Abreve" unicode="&#x102;" horiz-adv-x="719" 
d="M-28 0v21l98 40l289 759h16l273 -784l92 -15v-21h-294v21l82 13l-85 237h-266l-81 -210l90 -40v-21h-214zM185 292h251l-120 352zM280 904.5q-34 33.5 -44 86.5h34q11 -29 35.5 -46t61.5 -17q38 0 62.5 17t34.5 46h34q-12 -54 -45.5 -87t-87.5 -33q-51 0 -85 33.5z" />
    <glyph glyph-name="abreve" unicode="&#x103;" horiz-adv-x="567" 
d="M87 23.5q-41 33.5 -41 99.5q0 94 79 133.5t183 39.5h67v77q0 52 -11.5 80.5t-35.5 40t-65 11.5q-47 0 -70 -18.5t-23 -49.5q0 -29 28 -38q0 -25 -19 -44t-45 -19q-28 0 -45 15.5t-17 47.5q0 58 58 93t145 35q200 0 200 -174v-286q0 -22 9.5 -33.5t27.5 -11.5
q17 0 27 11.5t10 31.5h21q0 -35 -22.5 -55t-62.5 -20q-46 0 -77.5 26.5t-32.5 82.5q-24 -51 -73.5 -80t-109.5 -29q-64 0 -105 33.5zM302.5 50q28.5 16 48.5 46.5t24 73.5v104h-67q-82 0 -122.5 -36.5t-40.5 -102.5q0 -55 26 -78t76 -23q27 0 55.5 16zM186 622.5
q-34 33.5 -44 86.5h34q11 -29 35.5 -46t61.5 -17q38 0 62.5 17t34.5 46h34q-12 -54 -45.5 -87t-87.5 -33q-51 0 -85 33.5z" />
    <glyph glyph-name="Dcroat" unicode="&#x110;" horiz-adv-x="859" 
d="M40 21l92 15v339h-76v33h76v356l-92 14v22h383q110 0 195.5 -49.5t133.5 -140t48 -210.5t-48 -210.5t-134 -140t-195 -49.5h-383v21zM427 24q72 1 127.5 35.5t87 101.5t31.5 162v154q0 96 -32 163t-88.5 101t-129.5 34h-181v-367h184v-33h-184v-351h185z" />
    <glyph glyph-name="dcroat" unicode="&#x111;" horiz-adv-x="600" 
d="M621 20v-20h-170v104q-25 -53 -68 -83.5t-101 -30.5q-71 0 -125 33.5t-84 94t-30 141.5t30 141.5t84 93.5t125 33q58 0 101 -30.5t68 -83.5v193h-139v33h139v131l-70 10v20h170v-161h30v-33h-30v-576zM451 316q-1 50 -22.5 92.5t-57 68t-79.5 25.5q-139 0 -139 -193v-100
q0 -194 139 -194q44 0 79.5 25.5t57 68t22.5 92.5v115z" />
    <glyph glyph-name="Itilde" unicode="&#x128;" horiz-adv-x="374" 
d="M40 0v21l92 15v728l-92 14v22h294v-22l-92 -14v-728l92 -15v-21h-294zM196.5 868q-19.5 10 -42.5 29q-22 17 -36 24.5t-31 7.5q-38 0 -56 -49l-28 4q0 6 12.5 33.5t40 51.5t72.5 24q25 0 44.5 -10t43.5 -29q20 -16 34.5 -24t31.5 -8q40 0 56 49l28 -4q0 -6 -12.5 -33.5
t-40 -51.5t-72.5 -24q-25 0 -44.5 10z" />
    <glyph glyph-name="itilde" unicode="&#x129;" horiz-adv-x="289" 
d="M28 0v20l70 10v457l-70 10v20h170v-487l70 -10v-20h-240zM158 612q-23 10 -53 29q-26 16 -43 24t-34 8q-39 0 -57 -49l-27 4q0 6 12 33.5t40 51.5t73 24q25 0 48 -10t53 -29q26 -16 43 -24t34 -8q39 0 57 49l27 -4q0 -6 -12 -33.5t-40 -51.5t-73 -24q-25 0 -48 10z" />
    <glyph glyph-name="dotlessi" unicode="&#x131;" horiz-adv-x="289" 
d="M28 0v20l70 10v457l-70 10v20h170v-487l70 -10v-20h-240z" />
    <glyph glyph-name="OE" unicode="&#x152;" horiz-adv-x="1239" 
d="M236 33q-86 53 -134 148.5t-48 218.5t48 218.5t134 148.5t195 53q79 0 142.5 -28.5t107.5 -82.5v91h479v-229h-27l-77 204h-276v-360h117l60 145h26v-316h-26l-60 147h-117v-367h294l82 220h26v-244h-501v91q-44 -54 -107.5 -82.5t-142.5 -28.5q-109 0 -195 53zM557 40.5
q54 37.5 83.5 110t29.5 172.5v154q0 100 -29.5 172.5t-83.5 110t-126 37.5t-128.5 -38t-88.5 -110t-32 -172v-154q0 -100 32 -172t88.5 -110t128.5 -38t126 37.5z" />
    <glyph glyph-name="oe" unicode="&#x153;" horiz-adv-x="970" 
d="M171 23.5q-59 33.5 -93.5 95t-34.5 140.5t34.5 140t93.5 94.5t131 33.5q62 0 115 -25t89 -72q35 47 88 72t116 25t112.5 -28t78 -77.5t29.5 -113.5h-368v-99q0 -88 39 -142.5t114 -54.5q69 0 122 39t65 101h23q-14 -74 -71 -118t-139 -44q-64 0 -118.5 25.5t-90.5 72.5
q-35 -47 -88.5 -72.5t-115.5 -25.5q-72 0 -131 33.5zM413.5 66q37.5 54 37.5 143v100q0 89 -37.5 142.5t-111.5 53.5t-111.5 -53.5t-37.5 -142.5v-100q0 -89 37.5 -143t111.5 -54t111.5 54zM820 333q0 87 -27.5 129.5t-83.5 42.5q-67 0 -104 -47t-42 -125h257z" />
    <glyph glyph-name="Utilde" unicode="&#x168;" horiz-adv-x="809" 
d="M187 45.5q-68 65.5 -68 173.5v545l-92 14v22h294v-22l-92 -14v-545q0 -98 55 -150.5t167 -52.5q212 0 212 203v520l-93 39v22h213v-22l-96 -39v-520q0 -120 -67 -179.5t-218 -59.5q-147 0 -215 65.5zM416.5 868q-19.5 10 -42.5 29q-22 17 -36 24.5t-31 7.5q-38 0 -56 -49
l-28 4q0 6 12.5 33.5t40 51.5t72.5 24q25 0 44.5 -10t43.5 -29q20 -16 34.5 -24t31.5 -8q40 0 56 49l28 -4q0 -6 -12.5 -33.5t-40 -51.5t-72.5 -24q-25 0 -44.5 10z" />
    <glyph glyph-name="utilde" unicode="&#x169;" horiz-adv-x="632" 
d="M128.5 26q-41.5 36 -41.5 107v355l-70 10v20h170v-383q0 -51 21 -80t65 -29q46 0 88.5 30.5t75.5 75.5v356l-70 10v20h170v-488l70 -10v-20h-170v96q-36 -50 -86.5 -78t-108.5 -28q-72 0 -113.5 36zM337 612q-23 10 -53 29q-26 16 -43 24t-34 8q-39 0 -57 -49l-27 4
q0 6 12 33.5t40 51.5t73 24q25 0 48 -10t53 -29q26 -16 43 -24t34 -8q39 0 57 49l27 -4q0 -6 -12 -33.5t-40 -51.5t-73 -24q-25 0 -48 10z" />
    <glyph glyph-name="Ohorn" unicode="&#x1a0;" horiz-adv-x="862" 
d="M765.5 606.5q42.5 -91.5 42.5 -206.5q0 -123 -48 -218.5t-134 -148.5t-195 -53t-195 53t-134 148.5t-48 218.5t48 218.5t134 148.5t195 53q88 0 163 -35q14 -3 26 -3q21 0 39 7t30 19q4 4 4 10q0 12 -11 27q-8 13 -8 25q0 17 15.5 29t45.5 12q26 0 39 -14t13 -36
q0 -16 -7 -32.5t-20 -29.5q-49 -48 -113 -46q76 -55 118.5 -146.5zM684 477q0 99 -33 171.5t-90.5 110.5t-129.5 38q-73 0 -130 -38t-90 -110.5t-33 -171.5v-154q0 -99 33 -171.5t90 -110.5t130 -38q72 0 129.5 38t90.5 110.5t33 171.5v154z" />
    <glyph glyph-name="ohorn" unicode="&#x1a1;" horiz-adv-x="604" 
d="M598 602q13 -14 13 -36q0 -16 -7 -32.5t-20 -29.5q-46 -44 -103 -46q38 -36 59 -87t21 -112q0 -79 -34.5 -140.5t-93.5 -95t-131 -33.5t-131 33.5t-93.5 95t-34.5 140.5t34.5 140t93.5 94.5t131 33.5q79 0 142 -40q21 0 39 7t30 19q4 4 4 10q0 12 -11 27q-8 13 -8 25
q0 17 15.5 29t45.5 12q26 0 39 -14zM451 309q0 89 -37.5 142.5t-111.5 53.5t-111.5 -53.5t-37.5 -142.5v-100q0 -89 37.5 -143t111.5 -54t111.5 54t37.5 143v100z" />
    <glyph glyph-name="Uhorn" unicode="&#x1af;" horiz-adv-x="809" 
d="M839 898q13 -14 13 -36q0 -16 -7 -32.5t-20 -29.5q-47 -46 -110 -46q-8 0 -28 2v-537q0 -120 -67 -179.5t-218 -59.5q-147 0 -215 65.5t-68 173.5v545l-92 14v22h294v-22l-92 -14v-545q0 -98 55 -150.5t167 -52.5q212 0 212 203v520l-93 39v22h117v-17q20 0 37.5 7
t29.5 19q4 4 4 10q0 12 -11 27q-8 13 -8 25q0 17 15.5 29t45.5 12q26 0 39 -14z" />
    <glyph glyph-name="uhorn" unicode="&#x1b0;" horiz-adv-x="632" 
d="M657 601q13 -14 13 -36q0 -16 -7 -32.5t-20 -29.5q-46 -44 -106 -46v-427l70 -10v-20h-170v96q-36 -50 -86.5 -78t-108.5 -28q-72 0 -113.5 36t-41.5 107v355l-70 10v20h170v-383q0 -51 21 -80t65 -29q46 0 88.5 30.5t75.5 75.5v356l-70 10v20h170v-27q22 8 35 21
q4 4 4 10q0 12 -11 27q-8 13 -8 25q0 17 15.5 29t45.5 12q26 0 39 -14z" />
    <glyph glyph-name="uni02BC" unicode="&#x2bc;" horiz-adv-x="191" 
d="M3 554q30 18 54.5 50.5t24.5 65.5q0 9 -5 14.5t-15 5.5q-25 0 -42.5 17.5t-17.5 42.5t17.5 41.5t42.5 16.5q35 0 55.5 -25.5t20.5 -66.5q0 -56 -30.5 -101.5t-93.5 -76.5z" />
    <glyph glyph-name="circumflex" unicode="&#x2c6;" horiz-adv-x="361" 
d="M62 589l-21 15l120 155h39l120 -155l-21 -15l-119 94z" />
    <glyph glyph-name="caron" unicode="&#x2c7;" horiz-adv-x="361" 
d="M161 589l-120 156l21 14l118 -94l119 94l21 -14l-120 -156h-39z" />
    <glyph glyph-name="ring" unicode="&#x2da;" horiz-adv-x="267" 
d="M66.5 603q-27.5 28 -27.5 67t27.5 67t66.5 28q40 0 67.5 -28t27.5 -67t-27.5 -67t-67.5 -28q-39 0 -66.5 28zM177 626.5q19 18.5 19 43.5t-19 43.5t-44 18.5t-43.5 -18.5t-18.5 -43.5t18.5 -43.5t43.5 -18.5t44 18.5z" />
    <glyph glyph-name="tilde" unicode="&#x2dc;" horiz-adv-x="455" 
d="M243 612q-23 10 -53 29q-26 16 -43 24t-34 8q-39 0 -57 -49l-27 4q0 6 12 33.5t40 51.5t73 24q25 0 48 -10t53 -29q26 -16 43 -24t34 -8q39 0 57 49l27 -4q0 -6 -12 -33.5t-40 -51.5t-73 -24q-25 0 -48 10z" />
    <glyph glyph-name="gravecomb" unicode="&#x300;" 
d="M-218 687q-17 14 -17 35q0 19 14 33t33 14q14 0 26 -8t18 -20l73 -158l-16 -12z" />
    <glyph glyph-name="acutecomb" unicode="&#x301;" 
d="M-206 583l74 158q5 12 17 20t26 8q19 0 33 -14t14 -33q0 -23 -17 -35l-131 -116z" />
    <glyph glyph-name="uni0302" unicode="&#x302;" 
d="M-297 589l-21 15l120 155h39l120 -155l-21 -15l-119 94z" />
    <glyph glyph-name="tildecomb" unicode="&#x303;" 
d="M-211 612q-23 10 -53 29q-26 16 -43 24t-34 8q-39 0 -57 -49l-27 4q0 6 12 33.5t40 51.5t73 24q25 0 48 -10t53 -29q26 -16 43 -24t34 -8q39 0 57 49l27 -4q0 -6 -12 -33.5t-40 -51.5t-73 -24q-25 0 -48 10z" />
    <glyph glyph-name="uni0304" unicode="&#x304;" 
d="M-458 666v34h459v-34h-459z" />
    <glyph glyph-name="uni0306" unicode="&#x306;" 
d="M-324 622.5q-34 33.5 -44 86.5h34q11 -29 35.5 -46t61.5 -17q38 0 62.5 17t34.5 46h34q-12 -54 -45.5 -87t-87.5 -33q-51 0 -85 33.5z" />
    <glyph glyph-name="uni0308" unicode="&#x308;" 
d="M-330.5 632q-17.5 17 -17.5 42t17.5 42t42.5 17t42 -17t17 -42t-17 -42t-42 -17t-42.5 17zM-145 632q-17 17 -17 42t17 42t42 17t42 -17t17 -42t-17 -42t-42 -17t-42 17z" />
    <glyph glyph-name="hookabovecomb" unicode="&#x309;" 
d="M-259.5 581.5q3.5 6.5 11.5 16.5q12 13 18.5 27.5t6.5 41.5q0 43 -12 59.5t-34 16.5q-21 0 -36.5 -11t-15.5 -28q0 -21 21 -32q0 -14 -13.5 -22t-27.5 -8q-13 0 -22.5 9.5t-9.5 25.5q0 38 25.5 63t79.5 25q107 0 107 -96q0 -31 -14.5 -46t-39.5 -28q-2 -1 -11.5 -6.5
t-14 -11t-4.5 -12.5h-18q0 10 3.5 16.5z" />
    <glyph glyph-name="uni030A" unicode="&#x30a;" 
d="M-198.5 603q-27.5 28 -27.5 67t27.5 67t66.5 28q40 0 67.5 -28t27.5 -67t-27.5 -67t-67.5 -28q-39 0 -66.5 28zM-88 626.5q19 18.5 19 43.5t-19 43.5t-44 18.5t-43.5 -18.5t-18.5 -43.5t18.5 -43.5t43.5 -18.5t44 18.5z" />
    <glyph glyph-name="uni030B" unicode="&#x30b;" 
d="M-242 581l84 162q5 11 15 17.5t22 6.5q16 0 28 -12t12 -28q0 -21 -14 -30l-133 -126zM-101 581l83 162q5 11 15 17.5t22 6.5q16 0 28 -12t12 -28q0 -21 -14 -30l-133 -126z" />
    <glyph glyph-name="uni030C" unicode="&#x30c;" 
d="M-198 589l-120 156l21 14l118 -94l119 94l21 -14l-120 -156h-39z" />
    <glyph glyph-name="uni031B" unicode="&#x31b;" 
d="M-111 522q15 -5 35 -5q22 0 40 7t30 19q4 4 4 10q0 12 -11 27q-8 13 -8 25q0 17 15.5 29t45.5 12q26 0 39 -14t13 -36q0 -16 -7 -32.5t-20 -29.5q-47 -46 -109 -46q-35 0 -71 13z" />
    <glyph glyph-name="dotbelowcomb" unicode="&#x323;" 
d="M-144 -152.5q-15 14.5 -15 34.5t15 34t35 14t34 -14t14 -34t-14 -34.5t-34 -14.5t-35 14.5z" />
    <glyph glyph-name="uni0326" unicode="&#x326;" 
d="M-179 -346q30 18 54.5 50.5t24.5 65.5q0 9 -5 14.5t-15 5.5q-25 0 -42.5 17.5t-17.5 42.5t17.5 41.5t42.5 16.5q35 0 55.5 -25.5t20.5 -66.5q0 -56 -30.5 -101.5t-93.5 -76.5z" />
    <glyph glyph-name="uni0327" unicode="&#x327;" 
d="M-273 -223l6 22q12 -3 28 -3q33 0 56 16t23 51q0 27 -18 45.5t-54 22.5l21 78h27l-13 -53q57 -2 89.5 -24.5t32.5 -67.5q0 -48 -36.5 -72t-89.5 -24q-41 0 -72 9z" />
    <glyph glyph-name="uni0335" unicode="&#x335;" 
d="M-324 227v33h269v-33h-269z" />
    <glyph glyph-name="uni0400" unicode="&#x400;" horiz-adv-x="721" 
d="M40 0v21l92 15v728l-92 14v22h602v-229h-27l-77 204h-296v-360h130l59 145h26v-316h-26l-60 147h-129v-367h314l82 220h26v-244h-624zM275 901q-15 5 -25 17.5t-10 27.5q0 18 14 32.5t33 14.5t33 -12l131 -114l-9 -17z" />
    <glyph glyph-name="uni0401" unicode="&#x401;" horiz-adv-x="721" 
d="M40 0v21l92 15v728l-92 14v22h602v-229h-27l-77 204h-296v-360h130l59 145h26v-316h-26l-60 147h-129v-367h314l82 220h26v-244h-624zM225.5 875q-17.5 17 -17.5 42t17.5 42t42.5 17t42 -17t17 -42t-17 -42t-42 -17t-42.5 17zM411.5 875q-17.5 17 -17.5 42t17.5 42
t42.5 17t41.5 -17t16.5 -42t-16.5 -42t-41.5 -17t-42.5 17z" />
    <glyph glyph-name="uni0402" unicode="&#x402;" horiz-adv-x="880" 
d="M735 422q60 -26 85.5 -76t25.5 -127q0 -75 -24.5 -124.5t-82.5 -75t-158 -25.5v23q82 0 118.5 52t36.5 150q0 100 -39 153t-126 53q-52 0 -93 -10t-66.5 -21.5t-25.5 -12.5v-345l92 -15v-21h-294v21l92 15v739h-146l-76 -198h-29v223h612v-223h-30l-75 198h-146v-368
q0 1 26.5 12t68 20t90.5 9q104 0 164 -26z" />
    <glyph glyph-name="uni0403" unicode="&#x403;" horiz-adv-x="654" 
d="M40 0v21l92 15v724l-92 15v25h593v-223h-30l-75 198h-286v-739l92 -15v-21h-294zM243 867l132 114q14 12 32 12q20 0 33.5 -14t13.5 -33q0 -15 -9.5 -27.5t-24.5 -17.5l-167 -51z" />
    <glyph glyph-name="uni0404" unicode="&#x404;" horiz-adv-x="745" 
d="M225 32.5q-82 52.5 -126.5 148t-44.5 219.5q0 123 45.5 218t128.5 148.5t191 53.5q92 0 170 -57l67 57h21v-248h-21l-62 155q-76 70 -175 70q-70 0 -123.5 -37t-82.5 -106t-29 -162v-67h360v-24h-360v-92q0 -94 28.5 -163t81 -106t122.5 -37q51 0 102 22.5t85 60.5
l58 161h21v-257h-21l-70 51q-79 -61 -175 -61q-109 0 -191 52.5z" />
    <glyph glyph-name="uni0405" unicode="&#x405;" horiz-adv-x="666" 
d="M174 33l-85 -43h-22v257h22l86 -186q83 -59 190 -59q88 0 145.5 46.5t57.5 130.5q0 61 -37 96.5t-120 56.5l-166 43q-87 23 -131 78.5t-44 131.5q0 69 27.5 122.5t80.5 83t126 29.5q91 0 163 -31l73 31h22v-204h-22l-72 146q-75 36 -163 36q-87 0 -137 -44.5t-50 -117.5
q0 -54 35.5 -85t104.5 -49l179 -47q87 -22 129.5 -75.5t42.5 -162.5q0 -111 -68.5 -174t-183.5 -63q-93 0 -183 53z" />
    <glyph glyph-name="uni0406" unicode="&#x406;" horiz-adv-x="374" 
d="M40 0v21l92 15v728l-92 14v22h294v-22l-92 -14v-728l92 -15v-21h-294z" />
    <glyph glyph-name="uni0407" unicode="&#x407;" horiz-adv-x="374" 
d="M40 0v21l92 15v728l-92 14v22h294v-22l-92 -14v-728l92 -15v-21h-294zM52.5 875q-17.5 17 -17.5 42t17.5 42t42.5 17t42 -17t17 -42t-17 -42t-42 -17t-42.5 17zM238.5 875q-17.5 17 -17.5 42t17.5 42t42.5 17t41.5 -17t16.5 -42t-16.5 -42t-41.5 -17t-42.5 17z" />
    <glyph glyph-name="uni0408" unicode="&#x408;" horiz-adv-x="448" 
d="M46.5 6q-39.5 26 -39.5 76q0 33 18.5 53.5t48.5 20.5q24 0 38 -13t19.5 -27.5t5.5 -18.5q-29 -21 -29 -49q0 -19 12 -32t33 -13q32 0 50.5 43.5t18.5 150.5v567l-92 14v22h290v-22l-92 -14v-567q0 -70 -13.5 -116.5t-53.5 -73.5t-115 -27q-60 0 -99.5 26z" />
    <glyph glyph-name="uni0409" unicode="&#x409;" horiz-adv-x="1103" 
d="M15.5 12.5q-22.5 22.5 -22.5 55.5q0 26 17.5 45.5t48.5 19.5q18 0 30.5 -7.5t18 -15t6.5 -10.5q-18 -12 -18 -31q0 -12 7.5 -20t20.5 -8q33 0 56.5 49.5t39 165.5t23.5 315l7 162l-106 44v23h582v-22l-93 -14v-314h144q147 0 219.5 -55.5t72.5 -169.5t-72.5 -169.5
t-219.5 -55.5h-346v21l93 15l-1 739h-244l-9 -205q-10 -224 -26 -343.5t-52.5 -178t-105.5 -58.5q-48 0 -70.5 22.5zM761 25q93 0 139 44t46 136v40q0 92 -46 136.5t-139 44.5h-128v-401h128z" />
    <glyph glyph-name="uni040A" unicode="&#x40a;" horiz-adv-x="1200" 
d="M40 21l92 15v728l-92 14v22h294v-22l-92 -14v-328h380v328l-92 15v21h294v-21l-92 -15v-328h142q147 0 219.5 -53t72.5 -163q0 -112 -72.5 -166t-219.5 -54h-344v22l92 14v375h-380v-375l92 -15v-21h-294v21zM860 25q93 0 139 43t46 132v40q0 87 -46 129t-139 42h-128
v-386h128z" />
    <glyph glyph-name="uni040B" unicode="&#x40b;" horiz-adv-x="934" 
d="M918 22v-22h-294v22l92 14v220q0 86 -31.5 127.5t-103.5 41.5q-55 0 -98 -10t-70 -21.5t-27 -12.5v-345l92 -15v-21h-294v21l92 15v739h-146l-76 -198h-29v223h612v-223h-30l-75 198h-146v-368q0 1 28 12t71.5 20t95.5 9q94 0 147 -20t75.5 -61t22.5 -109v-222z" />
    <glyph glyph-name="uni040C" unicode="&#x40c;" horiz-adv-x="738" 
d="M537 17q-28 27 -38 92l-24 169q-10 71 -43 103t-106 32h-84v-377l92 -15v-21h-294v21l92 15v728l-92 14v22h294v-22l-92 -14v-327h105q48 1 82 37.5t49 97.5l31 126q14 56 42.5 84t68.5 28q33 0 57.5 -19t24.5 -50q0 -29 -16.5 -47t-43.5 -18h-20q-16 43 -50 43
q-33 0 -41 -34l-31 -126q-12 -47 -35 -79.5t-53 -46.5q83 -10 127 -48t54 -103l23 -151q8 -51 17 -71t26 -24q3 -1 9 -1q30 0 63 34l17 -18q-54 -61 -127 -61q-56 0 -84 27zM267 867l132 114q14 12 32 12q20 0 33.5 -14t13.5 -33q0 -15 -9.5 -27.5t-24.5 -17.5l-167 -51z
" />
    <glyph glyph-name="uni040D" unicode="&#x40d;" horiz-adv-x="865" 
d="M35 0v21l92 15v728l-92 14v22h294v-22l-92 -14v-648l390 620v28l-93 14v22h296v-22l-93 -14v-728l93 -15v-21h-296v21l93 15v653l-390 -620v-33l92 -15v-21h-294zM350 901q-15 5 -25 17.5t-10 27.5q0 18 14 32.5t33 14.5t33 -12l131 -114l-9 -17z" />
    <glyph glyph-name="uni040E" unicode="&#x40e;" horiz-adv-x="726" 
d="M140.5 15.5q-26.5 25.5 -26.5 66.5q0 34 21 55.5t51 21.5q22 0 39 -9.5t26 -26.5q-1 -1 -6 -7t-9 -16t-4 -23q0 -19 10 -30.5t28 -11.5q26 0 48 24t52 91l13 30l-325 584l-79 14v22h301v-22l-93 -14l254 -456l189 422l-120 48v22h224v-22l-77 -49l-264 -588
q-27 -60 -51.5 -92t-54 -45.5t-72.5 -13.5q-48 0 -74.5 25.5zM266 860q-53 28 -53 84q0 27 18 45.5t45 18.5q26 0 46 -19t20 -45q-16 -8 -25 -19.5t-9 -22.5q0 -20 23.5 -34t66.5 -14q41 0 65 14.5t24 34.5q0 25 -33 41q0 26 20 45t46 19t44 -19t18 -45q0 -56 -52.5 -84
t-131.5 -28t-132 28z" />
    <glyph glyph-name="uni040F" unicode="&#x40f;" horiz-adv-x="855" 
d="M815 779l-93 -15v-728l93 -14v-22h-325l-47 -220h-31l-47 220h-325v22l92 14v728l-92 15v21h294v-21l-92 -15v-739h370v739l-93 15v21h296v-21z" />
    <glyph glyph-name="uni0410" unicode="&#x410;" horiz-adv-x="719" 
d="M-28 0v21l98 40l289 759h16l273 -784l92 -15v-21h-294v21l82 13l-85 237h-266l-81 -210l90 -40v-21h-214zM185 292h251l-120 352z" />
    <glyph glyph-name="uni0411" unicode="&#x411;" horiz-adv-x="723" 
d="M40 22l92 14v728l-92 15v21h572v-213h-30l-75 188h-265v-325h142q147 0 219.5 -55.5t72.5 -169.5t-72.5 -169.5t-219.5 -55.5h-344v22zM370 25q93 0 139 44t46 136v40q0 92 -46 136.5t-139 44.5h-128v-401h128z" />
    <glyph glyph-name="uni0412" unicode="&#x412;" horiz-adv-x="745" 
d="M40 21l92 15v728l-92 14v22h305q108 0 172 -20t93 -60.5t29 -106.5q0 -144 -182 -184v-5q111 -15 172.5 -66t61.5 -142q0 -110 -80.5 -163t-217.5 -53h-353v21zM353 432q80 0 123 45t43 128v6q0 164 -174 164h-103v-343h111zM393 24q85 0 132 49.5t47 141.5v11
q0 91 -46.5 136t-132.5 45h-151v-383h151z" />
    <glyph glyph-name="uni0413" unicode="&#x413;" horiz-adv-x="654" 
d="M40 0v21l92 15v724l-92 15v25h593v-223h-30l-75 198h-286v-739l92 -15v-21h-294z" />
    <glyph glyph-name="uni0414" unicode="&#x414;" horiz-adv-x="737" 
d="M-30 25h33q33 0 66 27.5t62 88.5q27 57 42 137t24 240l13 215l-106 44v23h585v-22l-93 -14v-739h86l15 -245h-30l-104 220h-474l-104 -220h-30zM486 25v750h-246l-16 -257q-11 -165 -26 -246.5t-41 -140.5q-16 -36 -33.5 -59.5t-31.5 -35.5t-14 -11h408z" />
    <glyph glyph-name="uni0415" unicode="&#x415;" horiz-adv-x="721" 
d="M40 0v21l92 15v728l-92 14v22h602v-229h-27l-77 204h-296v-360h130l59 145h26v-316h-26l-60 147h-129v-367h314l82 220h26v-244h-624z" />
    <glyph glyph-name="uni0416" unicode="&#x416;" horiz-adv-x="1082" 
d="M-11 51l18 18q33 -34 63 -34q6 0 9 1q17 4 26 24t17 71l23 151q10 66 54 104t128 48q-30 13 -53 45.5t-36 79.5l-31 126q-8 34 -41 34q-34 0 -50 -43h-20q-27 0 -43.5 18t-16.5 47q0 31 22.5 50t59.5 19q42 0 69 -27.5t42 -84.5l31 -126q17 -62 51 -98t79 -37h96v327
l-92 14v22h294v-22l-92 -14v-327h97q44 1 77.5 37t51.5 98l31 126q15 57 42 84.5t69 27.5q37 0 59.5 -19t22.5 -50q0 -29 -16.5 -47t-43.5 -18h-20q-16 43 -50 43q-33 0 -41 -34l-31 -126q-13 -47 -36 -79.5t-53 -45.5q84 -10 128 -48t54 -104l23 -151q8 -51 17 -71t26 -24
q3 -1 9 -1q30 0 63 34l17 -18q-54 -61 -127 -61q-56 0 -84 27t-38 92l-24 169q-10 71 -43 103t-106 32h-74v-377l92 -15v-21h-294v21l92 15v377h-74q-73 0 -106 -32t-43 -103l-24 -169q-10 -65 -38 -92t-84 -27q-73 0 -128 61z" />
    <glyph glyph-name="uni0417" unicode="&#x417;" horiz-adv-x="676" 
d="M245 -6.5q-41 13.5 -68 29.5t-27 18l-66 -51h-21v257h21l58 -167q0 -3 25 -23t68 -37t101 -17q85 0 126 53t41 149v11q0 94 -46 143.5t-146 49.5h-72v22h72q80 0 119.5 44.5t39.5 129.5v6q0 94 -37.5 140t-106.5 46q-49 0 -84.5 -12.5t-56 -27.5t-20.5 -17l-62 -168h-21
v248h21l67 -46q0 1 22.5 13.5t57.5 22.5t77 10q138 0 200.5 -55t62.5 -152q0 -74 -47.5 -126t-141.5 -64q117 -18 169 -74t52 -143q0 -111 -72 -168.5t-214 -57.5q-50 0 -91 13.5z" />
    <glyph glyph-name="uni0418" unicode="&#x418;" horiz-adv-x="865" 
d="M35 0v21l92 15v728l-92 14v22h294v-22l-92 -14v-648l390 620v28l-93 14v22h296v-22l-93 -14v-728l93 -15v-21h-296v21l93 15v653l-390 -620v-33l92 -15v-21h-294z" />
    <glyph glyph-name="uni0419" unicode="&#x419;" horiz-adv-x="865" 
d="M35 0v21l92 15v728l-92 14v22h294v-22l-92 -14v-648l390 620v28l-93 14v22h296v-22l-93 -14v-728l93 -15v-21h-296v21l93 15v653l-390 -620v-33l92 -15v-21h-294zM302 860q-53 28 -53 84q0 27 18 45.5t45 18.5q26 0 46 -19t20 -45q-16 -8 -25 -19.5t-9 -22.5
q0 -20 23.5 -34t66.5 -14q41 0 65 14.5t24 34.5q0 25 -33 41q0 26 20 45t46 19t44 -19t18 -45q0 -56 -52.5 -84t-131.5 -28t-132 28z" />
    <glyph glyph-name="uni041A" unicode="&#x41a;" horiz-adv-x="738" 
d="M537 17q-28 27 -38 92l-24 169q-10 71 -43 103t-106 32h-84v-377l92 -15v-21h-294v21l92 15v728l-92 14v22h294v-22l-92 -14v-327h105q48 1 82 37.5t49 97.5l31 126q14 56 42.5 84t68.5 28q33 0 57.5 -19t24.5 -50q0 -29 -16.5 -47t-43.5 -18h-20q-16 43 -50 43
q-33 0 -41 -34l-31 -126q-12 -47 -35 -79.5t-53 -46.5q83 -10 127 -48t54 -103l23 -151q8 -51 17 -71t26 -24q3 -1 9 -1q30 0 63 34l17 -18q-54 -61 -127 -61q-56 0 -84 27z" />
    <glyph glyph-name="uni041B" unicode="&#x41b;" horiz-adv-x="766" 
d="M15.5 12.5q-22.5 22.5 -22.5 55.5q0 26 17.5 45.5t48.5 19.5q18 0 30.5 -7.5t18 -15t6.5 -10.5q-18 -12 -18 -31q0 -12 7.5 -20t20.5 -8q33 0 56.5 49.5t39 165.5t23.5 315l7 162l-106 44v23h582v-22l-93 -14v-728l93 -15v-21h-296v21l93 15v739h-244l-9 -205
q-10 -224 -26 -343.5t-52.5 -178t-105.5 -58.5q-48 0 -70.5 22.5z" />
    <glyph glyph-name="uni041C" unicode="&#x41c;" horiz-adv-x="1012" 
d="M456 -10l-298 774v-703l96 -40v-21h-214v21l94 40v703l-92 14v22h221l251 -642l256 642h202v-22l-92 -14v-728l92 -15v-21h-294v21l92 15v698l-296 -744h-18z" />
    <glyph glyph-name="uni041D" unicode="&#x41d;" horiz-adv-x="865" 
d="M40 0v21l92 15v728l-92 14v22h294v-22l-92 -14v-328h380v328l-93 14v22h296v-22l-93 -14v-728l93 -15v-21h-296v21l93 15v375h-380v-375l92 -15v-21h-294z" />
    <glyph glyph-name="uni041E" unicode="&#x41e;" horiz-adv-x="862" 
d="M236 33q-86 53 -134 148.5t-48 218.5t48 218.5t134 148.5t195 53t195 -53t134 -148.5t48 -218.5t-48 -218.5t-134 -148.5t-195 -53t-195 53zM560.5 41q57.5 38 90.5 110.5t33 171.5v154q0 99 -33 171.5t-90.5 110.5t-129.5 38q-73 0 -130 -38t-90 -110.5t-33 -171.5v-154
q0 -99 33 -171.5t90 -110.5t130 -38q72 0 129.5 38z" />
    <glyph glyph-name="uni041F" unicode="&#x41f;" horiz-adv-x="855" 
d="M40 0v21l92 15v728l-92 14v22h775v-22l-93 -14v-728l93 -15v-21h-296v21l93 15v739h-370v-739l92 -15v-21h-294z" />
    <glyph glyph-name="uni0420" unicode="&#x420;" horiz-adv-x="684" 
d="M40 21l92 15v728l-92 14v22h314q148 0 220 -63t72 -182t-72 -182t-220 -63h-112v-274l92 -15v-21h-294v21zM340 334q185 0 185 201v40q0 200 -185 200h-98v-441h98z" />
    <glyph glyph-name="uni0421" unicode="&#x421;" horiz-adv-x="745" 
d="M225 33q-82 53 -126.5 148t-44.5 219t45.5 219.5t129 148t192.5 52.5q43 0 87.5 -15t80.5 -42l67 57h21v-248h-21l-62 155q-35 32 -81.5 51t-91.5 19q-70 0 -123.5 -36t-83.5 -105t-30 -164v-183q0 -95 29 -164t81 -105.5t122 -36.5q51 0 102 22.5t85 60.5l58 161h21
v-257h-21l-72 51q-36 -29 -82 -45t-91 -16q-109 0 -191 53z" />
    <glyph glyph-name="uni0422" unicode="&#x422;" horiz-adv-x="700" 
d="M203 0v21l92 15v739h-165l-76 -198h-29v223h651v-223h-30l-75 198h-166v-739l92 -15v-21h-294z" />
    <glyph glyph-name="uni0423" unicode="&#x423;" horiz-adv-x="726" 
d="M140.5 15.5q-26.5 25.5 -26.5 66.5q0 34 21 55.5t51 21.5q22 0 39 -9.5t26 -26.5q-1 -1 -6 -7t-9 -16t-4 -23q0 -19 10 -30.5t28 -11.5q26 0 48 24t52 91l13 30l-325 584l-79 14v22h301v-22l-93 -14l254 -456l189 422l-120 48v22h224v-22l-77 -49l-264 -588
q-27 -60 -51.5 -92t-54 -45.5t-72.5 -13.5q-48 0 -74.5 25.5z" />
    <glyph glyph-name="uni0424" unicode="&#x424;" horiz-adv-x="946" 
d="M326 21l92 15v104q-194 1 -285 70.5t-91 209.5q0 142 91.5 211t284.5 69v84l-92 14v22h294v-22l-92 -14v-84q193 0 284.5 -69t91.5 -211q0 -140 -91 -209.5t-285 -70.5v-104l92 -15v-21h-294v21zM418 677q-122 0 -187 -62.5t-65 -167.5v-54q0 -105 65 -167t187 -63v514z
M715 226q65 62 65 167v54q0 105 -65 167.5t-187 62.5v-514q122 1 187 63z" />
    <glyph glyph-name="uni0425" unicode="&#x425;" horiz-adv-x="760" 
d="M2 0v21l99 56l229 306l-253 381l-85 14v22h303v-22l-79 -12l194 -294l193 258l-119 48v22h239v-22l-95 -53l-204 -273l277 -417l86 -14v-21h-304v21l79 13l-218 328l-221 -294l118 -47v-21h-239z" />
    <glyph glyph-name="uni0426" unicode="&#x426;" horiz-adv-x="853" 
d="M783 -220l-104 220h-639v22l92 14v728l-92 15v21h294v-21l-92 -15v-739h360v739l-93 15v21h296v-21l-93 -15v-739h86l15 -245h-30z" />
    <glyph glyph-name="uni0427" unicode="&#x427;" horiz-adv-x="811" 
d="M445 21l123 15v337q0 -1 -28 -12t-71.5 -20t-95.5 -9q-102 0 -159.5 21t-81.5 64t-24 115v232l-92 14v22h294v-22l-92 -14v-230q0 -91 36.5 -135t118.5 -44q55 0 98 10t70 21.5t27 12.5v365l-93 14v22h296v-22l-93 -14v-728l93 -15v-21h-326v21z" />
    <glyph glyph-name="uni0428" unicode="&#x428;" horiz-adv-x="1135" 
d="M40 0v21l92 15v728l-92 14v22h294v-22l-92 -14v-739h270v739l-92 14h-1v22h296v-22h-1l-92 -14v-739h270v739l-93 14v22h296v-22l-93 -14v-728l93 -15v-21h-1055z" />
    <glyph glyph-name="uni0429" unicode="&#x429;" horiz-adv-x="1143" 
d="M1073 -220l-104 220h-929v21l92 15v728l-92 14v22h294v-22l-92 -14v-739h270v739l-92 14h-1v22h296v-22h-1l-92 -14v-739h270v739l-93 14v22h296v-22l-93 -14v-739h86l15 -245h-30z" />
    <glyph glyph-name="uni042A" unicode="&#x42a;" horiz-adv-x="855" 
d="M748.5 394.5q72.5 -55.5 72.5 -169.5t-72.5 -169.5t-219.5 -55.5h-344v22l92 14v739h-157l-76 -198h-29v223h464v-21l-92 -15v-314h142q147 0 219.5 -55.5zM700 245q0 92 -46 136.5t-139 44.5h-128v-401h128q93 0 139 44t46 136v40z" />
    <glyph glyph-name="uni042B" unicode="&#x42b;" horiz-adv-x="1034" 
d="M40 22l92 14v728l-92 15v21h294v-21l-92 -15v-314h129q147 0 219.5 -55.5t72.5 -169.5t-72.5 -169.5t-219.5 -55.5h-331v22zM700 0v21l92 15v728l-92 14v22h294v-22l-92 -14v-728l92 -15v-21h-294zM357 25q93 0 139 44t46 136v40q0 92 -46 136.5t-139 44.5h-115v-401h115
z" />
    <glyph glyph-name="uni042C" unicode="&#x42c;" horiz-adv-x="710" 
d="M40 22l92 14v728l-92 15v21h294v-21l-92 -15v-314h142q147 0 219.5 -55.5t72.5 -169.5t-72.5 -169.5t-219.5 -55.5h-344v22zM370 25q93 0 139 44t46 136v40q0 92 -46 136.5t-139 44.5h-128v-401h128z" />
    <glyph glyph-name="uni042D" unicode="&#x42d;" horiz-adv-x="745" 
d="M154 41l-70 -51h-21v257h21l58 -161q34 -38 85 -60.5t102 -22.5q70 0 122.5 37t81 106t28.5 163v92h-360v24h360v67q0 93 -29 162t-82.5 106t-123.5 37q-99 0 -175 -70l-62 -155h-21v248h21l67 -57q78 57 170 57q108 0 191 -53.5t128.5 -148.5t45.5 -218
q0 -124 -44.5 -219.5t-126.5 -148t-191 -52.5q-96 0 -175 61z" />
    <glyph glyph-name="uni042E" unicode="&#x42e;" horiz-adv-x="1187" 
d="M567 33.5q-85 53.5 -132.5 149t-47.5 217.5v1h-145v-365l92 -15v-21h-294v21l92 15v728l-92 14v22h294v-22l-92 -14v-338h145q5 116 54 205.5t132 139t187 49.5q108 0 193 -53.5t132.5 -149t47.5 -217.5q0 -121 -47.5 -216.5t-132 -149.5t-193.5 -54q-108 0 -193 53.5z
M889.5 42q56.5 39 88 111.5t31.5 169.5v154q0 96 -32 168.5t-88.5 112t-128.5 39.5t-128.5 -39.5t-88.5 -112t-32 -168.5v-154q0 -97 31.5 -169.5t88 -111.5t129.5 -39t129.5 39z" />
    <glyph glyph-name="uni042F" unicode="&#x42f;" horiz-adv-x="727" 
d="M-21 51l17 18q33 -34 63 -34q6 0 9 1q17 4 26 24t17 71l15 96q12 73 54.5 108t125.5 47v6q-209 28 -209 200q0 108 76 160t239 52h275v-22l-92 -14v-728l92 -15v-21h-294v21l92 15v341h-78q-71 0 -110.5 -31.5t-49.5 -102.5l-19 -134q-10 -65 -38 -92t-84 -27
q-73 0 -127 61zM485 401v374h-73q-194 0 -194 -166v-32q0 -85 43 -130.5t117 -45.5h107z" />
    <glyph glyph-name="uni0430" unicode="&#x430;" horiz-adv-x="567" 
d="M87 23.5q-41 33.5 -41 99.5q0 94 79 133.5t183 39.5h67v77q0 52 -11.5 80.5t-35.5 40t-65 11.5q-47 0 -70 -18.5t-23 -49.5q0 -29 28 -38q0 -25 -19 -44t-45 -19q-28 0 -45 15.5t-17 47.5q0 58 58 93t145 35q200 0 200 -174v-286q0 -22 9.5 -33.5t27.5 -11.5
q17 0 27 11.5t10 31.5h21q0 -35 -22.5 -55t-62.5 -20q-46 0 -77.5 26.5t-32.5 82.5q-24 -51 -73.5 -80t-109.5 -29q-64 0 -105 33.5zM302.5 50q28.5 16 48.5 46.5t24 73.5v104h-67q-82 0 -122.5 -36.5t-40.5 -102.5q0 -55 26 -78t76 -23q27 0 55.5 16z" />
    <glyph glyph-name="uni0431" unicode="&#x431;" horiz-adv-x="610" 
d="M124.5 74q-74.5 84 -74.5 259q0 193 75 295t210 102h80q50 0 74 17.5t24 52.5h24q0 -63 -13.5 -100t-43 -53.5t-80.5 -16.5h-82q-238 0 -238 -297h6q22 85 85 135t147 50q67 0 124 -33t91 -93t34 -138t-34 -138t-91 -93t-124 -33q-119 0 -193.5 84zM422.5 65
q34.5 51 34.5 139v100q0 88 -34.5 139t-104.5 51t-104.5 -51t-34.5 -139v-100q0 -88 34.5 -139t104.5 -51t104.5 51z" />
    <glyph glyph-name="uni0432" unicode="&#x432;" horiz-adv-x="563" 
d="M27 20l70 10v458l-70 10v20h274q103 0 147 -28.5t44 -92.5q0 -93 -118 -119v-3q152 -21 152 -135q0 -70 -51 -105t-142 -35h-306v20zM277 284q52 0 79.5 27t27.5 81v4q0 49 -28 73t-85 24h-74v-209h80zM303 25q55 0 85 29t30 85v7q0 57 -29.5 85.5t-85.5 28.5h-106v-235
h106z" />
    <glyph glyph-name="uni0433" unicode="&#x433;" horiz-adv-x="500" 
d="M27 0v20l70 10v458l-70 10v20h437l15 -190h-28l-88 165h-166v-463l90 -10v-20h-260z" />
    <glyph glyph-name="uni0434" unicode="&#x434;" horiz-adv-x="540" 
d="M533 -165h-28l-88 165h-322l-87 -165h-28l15 190h32q22 0 43 19t37 55q14 33 22.5 82t15.5 154l8 120l-91 43v20h455v-20l-70 -10v-463h71zM347 493h-166l-11 -158q-7 -106 -16 -156.5t-22 -84.5q-9 -22 -19.5 -37.5t-18 -22.5t-9.5 -9h262v468z" />
    <glyph glyph-name="uni0435" unicode="&#x435;" horiz-adv-x="561" 
d="M173 23.5q-60 33.5 -95 94.5t-35 141t34.5 140.5t93 94t130.5 33.5q63 0 113 -28t78 -77.5t29 -113.5h-368v-99q0 -88 39.5 -142.5t114.5 -54.5q69 0 122 39t65 101h23q-14 -74 -71 -118t-139 -44q-74 0 -134 33.5zM411 333q0 87 -27 129.5t-84 42.5q-67 0 -104 -47
t-42 -125h257z" />
    <glyph glyph-name="uni0436" unicode="&#x436;" horiz-adv-x="850" 
d="M40 -0.5q-26 11.5 -45 33.5l15 15q18 -18 35 -18q15 0 23 11.5t14 43.5l17 88q9 53 39.5 79t96.5 32q-22 20 -33 66l-19 72q-8 28 -32 28q-12 0 -20 -9t-8 -22q0 -8 3 -17q-14 -5 -29 -5q-28 0 -44.5 18.5t-16.5 44.5q0 28 20 47.5t56 19.5q43 0 63.5 -24.5t32.5 -73.5
l18 -72q9 -37 24 -53t40 -18h85v201l-72 10v21h244v-21l-72 -10v-201h83q25 1 40.5 17t25.5 54l18 72q12 49 32.5 73.5t63.5 24.5q36 0 56 -19.5t20 -47.5q0 -26 -16.5 -44.5t-44.5 -18.5q-15 0 -29 5q3 9 3 17q0 13 -8 22t-20 9q-24 0 -32 -28l-19 -72q-11 -45 -34 -66
q66 -6 97 -32t40 -79l17 -88q6 -32 14 -43.5t23 -11.5q17 0 35 18l15 -15q-19 -22 -45 -33.5t-51 -11.5q-44 0 -65 18.5t-29 62.5l-20 108q-9 49 -31 67.5t-61 18.5h-78v-232l72 -11v-20h-244v20l72 11v232h-83q-37 -1 -58 -20t-29 -66l-20 -108q-8 -44 -29 -62.5t-65 -18.5
q-25 0 -51 11.5z" />
    <glyph glyph-name="uni0437" unicode="&#x437;" horiz-adv-x="532" 
d="M87.5 21.5q-50.5 31.5 -50.5 79.5q0 30 17.5 48.5t46.5 18.5q19 0 34 -10t21 -28q-17 -20 -17 -42q0 -34 30.5 -56.5t79.5 -22.5q60 0 96.5 31.5t36.5 92.5v13q0 55 -40.5 84.5t-100.5 29.5h-56v24h56q57 0 87 27.5t30 80.5v4q0 112 -106 112q-57 0 -105 -28l-60 -143
h-21l11 190l60 -29q56 29 117 29q112 0 162 -32.5t50 -97.5q0 -47 -34.5 -78t-103.5 -42v-1q81 -8 121.5 -43t40.5 -93q0 -71 -60 -110.5t-181 -39.5q-111 0 -161.5 31.5z" />
    <glyph glyph-name="uni0438" unicode="&#x438;" horiz-adv-x="647" 
d="M27 0v20l70 10v458l-70 10v20h230v-20l-60 -10v-389l253 369v20l-60 10v20h230v-20l-70 -10v-458l70 -10v-20h-230v20l60 10v396l-253 -370v-26l60 -10v-20h-230z" />
    <glyph glyph-name="uni0439" unicode="&#x439;" horiz-adv-x="647" 
d="M27 0v20l70 10v458l-70 10v20h230v-20l-60 -10v-389l253 369v20l-60 10v20h230v-20l-70 -10v-458l70 -10v-20h-230v20l60 10v396l-253 -370v-26l60 -10v-20h-230zM200.5 608.5q-50.5 26.5 -50.5 80.5q0 25 17.5 43t42.5 18t44 -18t19 -43q-15 -8 -23.5 -18.5t-8.5 -21.5
q0 -19 22.5 -32.5t63.5 -13.5q39 0 62 14t23 33q0 23 -31 39q0 25 18.5 43t44.5 18q25 0 42 -18t17 -43q0 -54 -50.5 -80.5t-125.5 -26.5q-76 0 -126.5 26.5z" />
    <glyph glyph-name="uni043A" unicode="&#x43a;" horiz-adv-x="584" 
d="M428 8.5q-21 18.5 -29 62.5l-20 106q-9 47 -30 66t-57 20h-93v-232l72 -11v-20h-244v20l72 11v456l-72 10v21h244v-21l-72 -10v-201h94q25 2 40 17.5t25 53.5l18 72q12 49 32.5 73.5t63.5 24.5q36 0 56 -19.5t20 -47.5q0 -26 -16.5 -44.5t-44.5 -18.5q-15 0 -29 5
q3 9 3 17q0 13 -8 22t-20 9q-24 0 -32 -28l-19 -72q-13 -47 -34 -66q66 -6 96.5 -32t40.5 -79l17 -86q7 -33 14.5 -44t22.5 -11q17 0 35 18l15 -15q-19 -22 -45 -33.5t-51 -11.5q-44 0 -65 18.5z" />
    <glyph glyph-name="uni043B" unicode="&#x43b;" horiz-adv-x="606" 
d="M35 7q-20 17 -20 50q0 28 17 44t41 16q16 0 27 -6.5t16.5 -13.5t6.5 -9q-13 -12 -13 -26q0 -16 20 -16q68 0 83 290l6 119l-91 43v20h449v-20l-70 -10v-457l72 -10v-21h-234v21l62 10v462h-162l-8 -158q-6 -121 -22.5 -196t-46.5 -112t-78 -37q-35 0 -55 17z" />
    <glyph glyph-name="uni043C" unicode="&#x43c;" horiz-adv-x="753" 
d="M27 0v20l76 30v439l-70 9v20h194l158 -374l157 374h184v-20l-70 -10v-458l70 -10v-20h-230v20l60 10v455l-207 -485h-12l-209 485v-435l76 -30v-20h-177z" />
    <glyph glyph-name="uni043D" unicode="&#x43d;" horiz-adv-x="641" 
d="M27 0v20l70 10v458l-70 10v20h230v-20l-60 -10v-213h247v213l-60 10v20h230v-20l-70 -10v-458l70 -10v-20h-230v20l60 10v220h-247v-220l60 -10v-20h-230z" />
    <glyph glyph-name="uni043E" unicode="&#x43e;" horiz-adv-x="604" 
d="M171 23.5q-59 33.5 -93.5 95t-34.5 140.5t34.5 140t93.5 94.5t131 33.5t131 -33.5t93.5 -94.5t34.5 -140t-34.5 -140.5t-93.5 -95t-131 -33.5t-131 33.5zM413.5 66q37.5 54 37.5 143v100q0 89 -37.5 142.5t-111.5 53.5t-111.5 -53.5t-37.5 -142.5v-100q0 -89 37.5 -143
t111.5 -54t111.5 54z" />
    <glyph glyph-name="uni043F" unicode="&#x43f;" horiz-adv-x="634" 
d="M27 0v20l70 10v458l-70 10v20h580v-20l-70 -10v-458l70 -10v-20h-230v20l60 10v463h-240v-463l60 -10v-20h-230z" />
    <glyph glyph-name="uni0440" unicode="&#x440;" horiz-adv-x="642" 
d="M21 -263l70 10v740l-70 10v20h170v-105q25 54 67.5 84.5t101.5 30.5q71 0 125 -33.5t84 -94t30 -141.5t-30 -141.5t-84 -93.5t-125 -33q-59 0 -101.5 30.5t-67.5 83.5v-357l94 -10v-20h-264v20zM489 208v100q0 194 -139 194q-44 0 -80 -25.5t-57 -68.5t-22 -93v-107
q0 -51 20.5 -95.5t57 -71t81.5 -26.5q139 0 139 193z" />
    <glyph glyph-name="uni0441" unicode="&#x441;" horiz-adv-x="547" 
d="M171 23.5q-59 33.5 -93.5 95t-34.5 140.5q0 83 36.5 144t95.5 92.5t127 31.5q57 0 104 -19.5t74.5 -54.5t27.5 -79q0 -33 -17 -50.5t-45 -17.5q-27 0 -45 18t-18 45q15 10 21 22t6 30q0 37 -29.5 60.5t-78.5 23.5q-72 0 -110.5 -51.5t-38.5 -144.5v-100q0 -89 37.5 -143
t111.5 -54q68 0 118.5 38.5t62.5 101.5h23q-14 -74 -69.5 -118t-134.5 -44q-72 0 -131 33.5z" />
    <glyph glyph-name="uni0442" unicode="&#x442;" horiz-adv-x="544" 
d="M142 0v20l80 10v463h-86l-87 -165h-28l15 190h472l15 -190h-28l-88 165h-85v-463l80 -10v-20h-260z" />
    <glyph glyph-name="uni0443" unicode="&#x443;" horiz-adv-x="535" 
d="M34 -266q-32 26 -32 70q0 30 17.5 48.5t43.5 18.5q19 0 34 -8t24 -24q-15 -21 -15 -44q0 -20 13 -33t33 -13q24 0 41.5 16t31.5 56l60 172l-232 494l-67 10v20h249v-20l-70 -12l167 -357l119 344l-86 25v20h180v-20l-68 -25l-224 -651q-21 -59 -50.5 -86t-84.5 -27
q-52 0 -84 26z" />
    <glyph glyph-name="uni0444" unicode="&#x444;" horiz-adv-x="746" 
d="M253 -263l70 10v243q-78 0 -142 34.5t-101 96t-37 138.5t37 138.5t101 95.5t142 34v243l-70 10v20h170v-273q78 0 142 -34t101 -95.5t37 -138.5t-37 -138.5t-101 -96t-142 -34.5v-243l70 -10v-20h-240v20zM323 505q-81 0 -125.5 -52.5t-44.5 -143.5v-100q0 -91 44.5 -144
t125.5 -53v493zM548.5 65q44.5 53 44.5 144v100q0 91 -44.5 143.5t-125.5 52.5v-493q81 0 125.5 53z" />
    <glyph glyph-name="uni0445" unicode="&#x445;" horiz-adv-x="577" 
d="M516 29l64 -9v-20h-244v20l60 10l-138 189l-147 -176l81 -23v-20h-179v20l67 25l162 197l-180 247l-61 9v20h244v-20l-63 -11l125 -171l134 158l-79 23v20h184v-20l-73 -26l-150 -178z" />
    <glyph glyph-name="uni0446" unicode="&#x446;" horiz-adv-x="624" 
d="M589 -165l-88 165h-474v20l70 10v458l-70 10v20h230v-20l-60 -10v-463h234v463l-60 10v20h230v-20l-70 -10v-463h71l15 -190h-28z" />
    <glyph glyph-name="uni0447" unicode="&#x447;" horiz-adv-x="609" 
d="M312 20l100 10v194q-27 -14 -68.5 -25t-94.5 -11q-82 0 -127.5 34t-45.5 110v156l-70 10v20h230v-20l-60 -10v-156q0 -56 23 -85t76 -29q46 0 80.5 10t56.5 23v237l-60 10v20h230v-20l-70 -10v-458l70 -10v-20h-270v20z" />
    <glyph glyph-name="uni0448" unicode="&#x448;" horiz-adv-x="884" 
d="M27 0v20l70 10v458l-70 10v20h240v-20l-70 -10v-463h195v463l-70 10v20h240v-20l-70 -10v-463h195v463l-70 10v20h240v-20l-70 -10v-458l70 -10v-20h-830z" />
    <glyph glyph-name="uni0449" unicode="&#x449;" horiz-adv-x="880" 
d="M845 -165l-88 165h-730v20l70 10v458l-70 10v20h240v-20l-70 -10v-463h195v463l-70 10v20h240v-20l-70 -10v-463h195v463l-70 10v20h240v-20l-70 -10v-463h71l15 -190h-28z" />
    <glyph glyph-name="uni044A" unicode="&#x44a;" horiz-adv-x="652" 
d="M147 20l70 10v463h-81l-87 -165h-28l15 190h351v-20l-70 -10v-188h126q90 0 141.5 -38t51.5 -112t-51 -112t-142 -38h-296v20zM413 25q55 0 85 32t30 92v2q0 60 -30 92t-85 32h-96v-250h96z" />
    <glyph glyph-name="uni044B" unicode="&#x44b;" horiz-adv-x="795" 
d="M27 20l70 10v458l-70 10v20h240v-20l-70 -10v-188h126q91 0 142 -38t51 -112t-51 -112t-142 -38h-296v20zM528 0v20l70 10v458l-70 10v20h240v-20l-70 -10v-458l70 -10v-20h-240zM293 25q55 0 85 32t30 92v2q0 60 -30 92t-85 32h-96v-250h96z" />
    <glyph glyph-name="uni044C" unicode="&#x44c;" horiz-adv-x="542" 
d="M27 20l70 10v458l-70 10v20h240v-20l-70 -10v-188h136q90 0 141.5 -38t51.5 -112t-51 -112t-142 -38h-306v20zM303 25q55 0 85 32t30 92v2q0 60 -30 92t-85 32h-106v-250h106z" />
    <glyph glyph-name="uni044D" unicode="&#x44d;" horiz-adv-x="551" 
d="M87.5 21.5q-50.5 31.5 -50.5 79.5q0 30 17.5 48.5t46.5 18.5q19 0 34 -10t21 -28q-17 -20 -17 -42q0 -34 30 -55t80 -21q73 0 111 53t38 144v46h-230v25h230v29q0 94 -38.5 145.5t-110.5 51.5q-69 0 -126 -36l-56 -133h-21l11 190l64 -31q64 31 128 31q76 0 135 -34.5
t91.5 -95.5t32.5 -138q0 -79 -32.5 -140t-91.5 -95t-135 -34q-111 0 -161.5 31.5z" />
    <glyph glyph-name="uni044E" unicode="&#x44e;" horiz-adv-x="853" 
d="M366 64q-71 74 -74 186h-95v-220l60 -10v-20h-230v20l70 10v458l-70 10v20h230v-20l-60 -10v-213h95q4 75 39 132t92.5 88.5t127.5 31.5q72 0 131.5 -34t93.5 -95.5t34 -138.5t-34 -138.5t-93 -96t-132 -34.5q-108 0 -185 74zM662 65q38 53 38 144v100q0 92 -38 144
t-111 52t-111 -52t-38 -144v-100q0 -91 38 -144t111 -53t111 53z" />
    <glyph glyph-name="uni044F" unicode="&#x44f;" horiz-adv-x="583" 
d="M35 1.5q-26 11.5 -45 33.5l15 15q18 -18 35 -18q15 0 22.5 11t14.5 44l11 58q9 49 33 73t78 32v5q-53 9 -86.5 39t-33.5 88q0 67 45 101.5t146 34.5h286v-21l-72 -10v-456l72 -11v-20h-244v20l72 11v207h-92q-43 0 -66.5 -19t-30.5 -63l-15 -85q-8 -44 -29 -62.5
t-65 -18.5q-25 0 -51 11.5zM384 263v230h-84q-58 0 -85.5 -26t-27.5 -83v-13q0 -56 28 -82t77 -26h92z" />
    <glyph glyph-name="uni0450" unicode="&#x450;" horiz-adv-x="561" 
d="M173 23.5q-60 33.5 -95 94.5t-35 141t34.5 140.5t93 94t130.5 33.5q63 0 113 -28t78 -77.5t29 -113.5h-368v-99q0 -88 39.5 -142.5t114.5 -54.5q69 0 122 39t65 101h23q-14 -74 -71 -118t-139 -44q-74 0 -134 33.5zM411 333q0 87 -27 129.5t-84 42.5q-67 0 -104 -47
t-42 -125h257zM173 687q-17 14 -17 35q0 19 14 33t33 14q14 0 26 -8t18 -20l73 -158l-16 -12z" />
    <glyph glyph-name="uni0451" unicode="&#x451;" horiz-adv-x="561" 
d="M173 23.5q-60 33.5 -95 94.5t-35 141t34.5 140.5t93 94t130.5 33.5q63 0 113 -28t78 -77.5t29 -113.5h-368v-99q0 -88 39.5 -142.5t114.5 -54.5q69 0 122 39t65 101h23q-14 -74 -71 -118t-139 -44q-74 0 -134 33.5zM411 333q0 87 -27 129.5t-84 42.5q-67 0 -104 -47
t-42 -125h257zM167.5 632q-17.5 17 -17.5 42t17.5 42t42.5 17t42 -17t17 -42t-17 -42t-42 -17t-42.5 17zM353 632q-17 17 -17 42t17 42t42 17t42 -17t17 -42t-17 -42t-42 -17t-42 17z" />
    <glyph glyph-name="uni0452" unicode="&#x452;" horiz-adv-x="621" 
d="M476 490.5q36 -16.5 56 -61t20 -125.5q0 -118 -21 -201.5t-86 -158t-192 -137.5l-16 16q89 47 135 117.5t60.5 156t14.5 205.5q0 66 -9.5 103t-29.5 51.5t-54 14.5q-46 0 -88.5 -33.5t-75.5 -82.5v-325l60 -10v-20h-230v20l70 10v606h-90v25h90v109l-70 10v20h170v-139
h185v-25h-185v-246q37 54 87 85.5t108 31.5q55 0 91 -16.5z" />
    <glyph glyph-name="uni0453" unicode="&#x453;" horiz-adv-x="500" 
d="M27 0v20l70 10v458l-70 10v20h437l15 -190h-28l-88 165h-166v-463l90 -10v-20h-260zM230 583l74 158q5 12 17 20t26 8q19 0 33 -14t14 -33q0 -23 -17 -35l-131 -116z" />
    <glyph glyph-name="uni0454" unicode="&#x454;" horiz-adv-x="558" 
d="M167 25.5q-59 34.5 -91.5 95.5t-32.5 138q0 79 32.5 140t91.5 95t135 34q111 0 161.5 -31.5t50.5 -79.5q0 -30 -17.5 -48.5t-46.5 -18.5q-19 0 -34 10t-21 28q17 20 17 42q0 34 -30 55t-80 21q-73 0 -111 -53t-38 -144v-30h230v-25h-230v-45q0 -94 38.5 -145.5
t110.5 -51.5q69 0 126 36l56 133h21l-11 -190l-64 31q-64 -31 -128 -31q-76 0 -135 34.5z" />
    <glyph glyph-name="uni0455" unicode="&#x455;" horiz-adv-x="476" 
d="M103 25q-55 35 -55 91q0 29 15.5 45.5t41.5 16.5q20 0 34 -10t20 -28q-22 -24 -22 -51q0 -31 28 -54t75 -23q63 0 103 28.5t40 76.5q0 28 -17 42t-66 32l-151 55q-89 32 -89 119q0 71 49 116.5t135 45.5q71 0 121.5 -32.5t50.5 -92.5q0 -24 -13 -38.5t-34 -14.5
t-34.5 11.5t-13.5 31.5q13 10 18 21.5t5 27.5q0 28 -24.5 46t-75.5 18q-44 0 -75.5 -13.5t-47.5 -35.5t-16 -45q0 -24 17.5 -38t64.5 -31l140 -50q49 -18 74 -50t25 -83q0 -73 -46 -121t-140 -48q-82 0 -137 35z" />
    <glyph glyph-name="uni0456" unicode="&#x456;" horiz-adv-x="289" 
d="M86 653.5q-20 19.5 -20 47.5t19.5 47t48.5 19q27 0 46 -19t19 -47t-19 -47.5t-46 -19.5q-28 0 -48 19.5zM28 0v20l70 10v457l-70 10v20h170v-487l70 -10v-20h-240z" />
    <glyph glyph-name="uni0457" unicode="&#x457;" horiz-adv-x="289" 
d="M28 0v20l70 10v457l-70 10v20h170v-487l70 -10v-20h-240zM4.5 632q-17.5 17 -17.5 42t17.5 42t42.5 17t42 -17t17 -42t-17 -42t-42 -17t-42.5 17zM190 632q-17 17 -17 42t17 42t42 17t42 -17t17 -42t-17 -42t-42 -17t-42 17z" />
    <glyph glyph-name="uni0458" unicode="&#x458;" horiz-adv-x="278" 
d="M87 653.5q-20 19.5 -20 47.5t19.5 47t48.5 19q27 0 46 -19t19 -47t-19 -47.5t-46 -19.5q-28 0 -48 19.5zM-57 -266.5q-33 25.5 -33 68.5q0 27 15 44t40 17q23 0 40 -17t17 -40q-31 -9 -31 -39q0 -14 11.5 -25.5t29.5 -11.5q36 0 50.5 34.5t14.5 120.5v603l-75 10v20h175
v-622q0 -87 -37.5 -137.5t-127.5 -50.5q-56 0 -89 25.5z" />
    <glyph glyph-name="uni0459" unicode="&#x459;" horiz-adv-x="852" 
d="M35 7q-20 17 -20 50q0 28 17 44t41 16q16 0 27 -6.5t16.5 -13.5t6.5 -9q-13 -12 -13 -26q0 -16 20 -16q68 0 83 290l6 119l-91 43v20h449v-20l-70 -10v-188h136q91 0 142 -38t51 -112t-51 -112t-142 -38h-306v20l70 10v463h-162l-8 -158q-6 -121 -22.5 -196t-46.5 -112
t-78 -37q-35 0 -55 17zM613 25q55 0 85 32t30 92v2q0 60 -30 92t-85 32h-106v-250h106z" />
    <glyph glyph-name="uni045A" unicode="&#x45a;" horiz-adv-x="887" 
d="M821 240q50 -35 50 -103q0 -67 -50 -102t-138 -35h-311v20l70 10v220h-245v-220l60 -10v-20h-230v20l70 10v458l-70 10v20h230v-20l-60 -10v-213h245v213l-70 10v20h240v-20l-70 -10v-213h141q88 0 138 -35zM763 138q0 54 -28.5 83t-81.5 29h-111v-225h111q53 0 81.5 29
t28.5 82v2z" />
    <glyph glyph-name="uni045B" unicode="&#x45b;" horiz-adv-x="628" 
d="M610 20v-20h-230v20l60 10v332q0 52 -21 80.5t-65 28.5q-46 0 -88.5 -33.5t-75.5 -82.5v-325l60 -10v-20h-230v20l70 10v606h-90v25h90v109l-70 10v20h170v-139h185v-25h-185v-246q37 54 87 85.5t108 31.5q72 0 113.5 -36t41.5 -107v-334z" />
    <glyph glyph-name="uni045C" unicode="&#x45c;" horiz-adv-x="584" 
d="M428 8.5q-21 18.5 -29 62.5l-20 106q-9 47 -30 66t-57 20h-93v-232l72 -11v-20h-244v20l72 11v456l-72 10v21h244v-21l-72 -10v-201h94q25 2 40 17.5t25 53.5l18 72q12 49 32.5 73.5t63.5 24.5q36 0 56 -19.5t20 -47.5q0 -26 -16.5 -44.5t-44.5 -18.5q-15 0 -29 5
q3 9 3 17q0 13 -8 22t-20 9q-24 0 -32 -28l-19 -72q-13 -47 -34 -66q66 -6 96.5 -32t40.5 -79l17 -86q7 -33 14.5 -44t22.5 -11q17 0 35 18l15 -15q-19 -22 -45 -33.5t-51 -11.5q-44 0 -65 18.5zM287 583l74 158q5 12 17 20t26 8q19 0 33 -14t14 -33q0 -23 -17 -35
l-131 -116z" />
    <glyph glyph-name="uni045D" unicode="&#x45d;" horiz-adv-x="647" 
d="M27 0v20l70 10v458l-70 10v20h230v-20l-60 -10v-389l253 369v20l-60 10v20h230v-20l-70 -10v-458l70 -10v-20h-230v20l60 10v396l-253 -370v-26l60 -10v-20h-230zM199 687q-17 14 -17 35q0 19 14 33t33 14q14 0 26 -8t18 -20l73 -158l-16 -12z" />
    <glyph glyph-name="uni045E" unicode="&#x45e;" horiz-adv-x="535" 
d="M34 -266q-32 26 -32 70q0 30 17.5 48.5t43.5 18.5q19 0 34 -8t24 -24q-15 -21 -15 -44q0 -20 13 -33t33 -13q24 0 41.5 16t31.5 56l60 172l-232 494l-67 10v20h249v-20l-70 -12l167 -357l119 344l-86 25v20h180v-20l-68 -25l-224 -651q-21 -59 -50.5 -86t-84.5 -27
q-52 0 -84 26zM161.5 608.5q-50.5 26.5 -50.5 80.5q0 25 17.5 43t42.5 18t44 -18t19 -43q-15 -8 -23.5 -18.5t-8.5 -21.5q0 -19 22.5 -32.5t63.5 -13.5q39 0 62 14t23 33q0 23 -31 39q0 25 18.5 43t44.5 18q25 0 42 -18t17 -43q0 -54 -50.5 -80.5t-125.5 -26.5
q-76 0 -126.5 26.5z" />
    <glyph glyph-name="uni045F" unicode="&#x45f;" horiz-adv-x="631" 
d="M604 498l-70 -10v-458l70 -10v-20h-241l-35 -164h-23l-35 164h-243v20l70 10v458l-70 10v20h230v-20l-60 -10v-463h237v463l-60 10v20h230v-20z" />
    <glyph glyph-name="uni0462" unicode="&#x462;" horiz-adv-x="845" 
d="M738.5 394.5q72.5 -55.5 72.5 -169.5t-72.5 -169.5t-219.5 -55.5h-344v22l92 14v639h-137l-76 -158h-29v183h242v64l-92 15v21h294v-21l-92 -15v-64h239v-183h-30l-75 158h-134v-225h142q147 0 219.5 -55.5zM690 245q0 92 -46 136.5t-139 44.5h-128v-401h128q93 0 139 44
t46 136v40z" />
    <glyph glyph-name="uni0463" unicode="&#x463;" horiz-adv-x="667" 
d="M600 262q51 -38 51 -112t-51 -112t-142 -38h-306v20l70 10v533h-86l-87 -165h-28l15 190h186v182l-70 10v20h170v-212h186l15 -190h-28l-88 165h-85v-263h136q91 0 142 -38zM543 151q0 60 -30 92t-85 32h-106v-250h106q55 0 85 32t30 92v2z" />
    <glyph glyph-name="uni046A" unicode="&#x46a;" horiz-adv-x="1042" 
d="M1072 51q-54 -61 -127 -61q-56 0 -84 27t-38 92l-24 169q-10 71 -43 103t-106 32h-74v-377l92 -15v-21h-294v21l92 15v377h-74q-73 0 -106 -32t-43 -103l-24 -169q-10 -65 -38 -92t-84 -27q-73 0 -128 61l17 18q34 -34 64 -34q6 0 9 1q17 4 26 24t17 71l23 151
q12 79 64 117t148 38h96l-296 363h761l-300 -363h107q96 0 148 -38t64 -117l23 -151q8 -51 17 -71t26 -24q3 -1 9 -1q30 0 63 34zM849 778h-561l279 -341z" />
    <glyph glyph-name="uni046B" unicode="&#x46b;" horiz-adv-x="820" 
d="M840 33q-19 -22 -45 -33.5t-51 -11.5q-44 0 -65 18.5t-29 62.5l-20 108q-9 49 -31 67.5t-61 18.5h-78v-232l72 -11v-20h-244v20l72 11v232h-83q-36 0 -57.5 -19.5t-29.5 -66.5l-20 -108q-8 -44 -29 -62.5t-65 -18.5q-25 0 -51 11.5t-45 33.5l15 15q18 -18 35 -18
q15 0 23 11.5t14 43.5l17 88q9 43 30 67.5t60 35t103 10.5h57l-225 232h587l-218 -232h65q64 0 103 -10.5t60 -35t30 -67.5l17 -88q6 -32 14 -43.5t23 -11.5q17 0 35 18zM644 495h-391l197 -203z" />
    <glyph glyph-name="uni0472" unicode="&#x472;" horiz-adv-x="862" 
d="M626 767q86 -53 134 -148.5t48 -218.5t-48 -218.5t-134 -148.5t-195 -53t-195 53t-134 148.5t-48 218.5t48 218.5t134 148.5t195 53t195 -53zM301 759q-57 -38 -90 -110.5t-33 -171.5v-41h506v41q0 99 -33 171.5t-90.5 110.5t-129.5 38q-73 0 -130 -38zM560.5 41
q57.5 38 90.5 110.5t33 171.5v88h-506v-88q0 -99 33 -171.5t90 -110.5t130 -38q72 0 129.5 38z" />
    <glyph glyph-name="uni0473" unicode="&#x473;" horiz-adv-x="604" 
d="M433 493.5q59 -33.5 93.5 -94.5t34.5 -140t-34.5 -140.5t-93.5 -95t-131 -33.5t-131 33.5t-93.5 95t-34.5 140.5t34.5 140t93.5 94.5t131 33.5t131 -33.5zM190.5 451.5q-37.5 -53.5 -37.5 -142.5v-31q31 47 85 47q23 0 42.5 -7t48.5 -22q26 -13 40 -18.5t29 -5.5
q17 0 31.5 9.5t21.5 25.5v2q0 89 -37.5 142.5t-111.5 53.5t-111.5 -53.5zM413.5 66q37.5 54 37.5 143v61q-30 -54 -90 -54q-23 0 -43 7.5t-47 21.5q-25 12 -40 18t-30 6q-14 0 -27 -7t-21 -20v-33q0 -89 37.5 -143t111.5 -54t111.5 54z" />
    <glyph glyph-name="uni0474" unicode="&#x474;" horiz-adv-x="784" 
d="M51 764l-80 14v22h293v-22l-94 -12l220 -599l209 545q22 58 48.5 77.5t66.5 19.5q43 0 72 -23t29 -65q0 -34 -20.5 -53.5t-49.5 -19.5q-20 0 -34.5 8t-22 17.5t-7.5 11.5q19 18 19 40q0 11 -8 18.5t-21 7.5q-17 0 -28 -9.5t-20 -34.5l-276 -727h-8z" />
    <glyph glyph-name="uni0475" unicode="&#x475;" horiz-adv-x="609" 
d="M51 488l-65 10v20h249v-20l-72 -13l151 -376l121 326q18 49 42.5 67.5t63.5 18.5q38 0 63.5 -20.5t25.5 -57.5q0 -30 -18 -47t-43 -17q-18 0 -31 7.5t-19 15t-7 10.5q17 14 17 35q0 9 -7 16t-19 7q-14 0 -24 -8.5t-18 -30.5l-168 -451h-28z" />
    <glyph glyph-name="uni0490" unicode="&#x490;" horiz-adv-x="654" 
d="M40 0v21l92 15v724l-92 15v25h488l75 198h30v-223h-391v-739l92 -15v-21h-294z" />
    <glyph glyph-name="uni0491" unicode="&#x491;" horiz-adv-x="486" 
d="M27 0v20l70 10v458l-70 10v20h336l88 165h28l-15 -190h-267v-463l90 -10v-20h-260z" />
    <glyph glyph-name="uni0492" unicode="&#x492;" horiz-adv-x="654" 
d="M40 800h593v-223h-30l-75 198h-286v-375h208v-33h-208v-331l92 -15v-21h-294v21l92 15v331h-107v33h107v360l-92 15v25z" />
    <glyph glyph-name="uni0493" unicode="&#x493;" horiz-adv-x="500" 
d="M464 518l15 -190h-28l-88 165h-166v-233h138v-33h-138v-197l90 -10v-20h-260v20l70 10v197h-73v33h73v228l-70 10v20h437z" />
    <glyph glyph-name="uni0494" unicode="&#x494;" horiz-adv-x="727" 
d="M618 396.5q62 -59.5 62 -177.5q0 -272 -314 -507l-14 14q119 98 167 226.5t48 266.5q0 100 -38 155.5t-114 55.5q-96 0 -173 -51v-343l92 -15v-21h-294v21l92 15v724l-92 15v25h593v-223h-30l-75 198h-286v-367q22 15 67 31.5t106 16.5q141 0 203 -59.5z" />
    <glyph glyph-name="uni0495" unicode="&#x495;" horiz-adv-x="566" 
d="M483 236q51 -44 51 -132q0 -126 -70 -220t-207 -172l-12 12q105 73 146.5 168.5t41.5 211.5q0 153 -120 153q-39 0 -68.5 -7.5t-47.5 -15.5v-204l90 -10v-20h-260v20l70 10v458l-70 10v20h437l15 -190h-28l-88 165h-166v-234q56 21 116 21q119 0 170 -44z" />
    <glyph glyph-name="uni0496" unicode="&#x496;" horiz-adv-x="1083" 
d="M1001 0h-36q-57 0 -84.5 24.5t-37.5 84.5l-24 169q-10 71 -43 103t-106 32h-74v-377l92 -15v-21h-294v21l92 15v377h-74q-73 0 -106 -32t-43 -103l-24 -169q-10 -65 -38 -92t-84 -27q-73 0 -128 61l18 18q33 -34 63 -34q6 0 9 1q17 4 26 24t17 71l23 151q10 66 54 104
t128 48q-30 13 -53 45.5t-36 79.5l-31 126q-8 34 -41 34q-34 0 -50 -43h-20q-27 0 -43.5 18t-16.5 47q0 31 22.5 50t59.5 19q42 0 69 -27.5t42 -84.5l31 -126q17 -62 51 -98t79 -37h96v327l-92 14v22h294v-22l-92 -14v-327h97q44 1 77.5 37t51.5 98l31 126q15 57 42 84.5
t69 27.5q37 0 59.5 -19t22.5 -50q0 -29 -16.5 -47t-43.5 -18h-20q-16 43 -50 43q-33 0 -41 -34l-31 -126q-13 -47 -36 -79.5t-53 -45.5q84 -10 128 -48t54 -104l25 -161q12 -56 29 -76t50 -20h79l15 -245h-30z" />
    <glyph glyph-name="uni0497" unicode="&#x497;" horiz-adv-x="868" 
d="M899 -165h-28l-88 165h-20q-44 0 -66 16.5t-29 55.5l-19 105q-9 49 -31 67.5t-61 18.5h-78v-232l72 -11v-20h-248v20l72 11v232h-83q-37 -1 -58 -20t-29 -66l-20 -108q-8 -44 -29 -62.5t-65 -18.5q-25 0 -51 11.5t-45 33.5l15 15q18 -18 35 -18q15 0 23 11.5t14 43.5
l17 88q9 53 39.5 79t96.5 32q-22 20 -33 66l-19 72q-8 28 -32 28q-12 0 -20 -9t-8 -22q0 -8 3 -17q-14 -5 -29 -5q-28 0 -44.5 18.5t-16.5 44.5q0 28 20 47.5t56 19.5q43 0 63.5 -24.5t32.5 -73.5l18 -72q9 -38 24.5 -54.5t40.5 -16.5h84v201l-72 10v21h248v-21l-72 -10
v-201h83q25 1 40.5 17t25.5 54l18 72q12 49 32.5 73.5t63.5 24.5q36 0 56 -19.5t20 -47.5q0 -26 -16.5 -44.5t-44.5 -18.5q-15 0 -29 5q3 9 3 17q0 13 -8 22t-20 9q-24 0 -32 -28l-19 -72q-13 -47 -34 -66q66 -6 97 -32t40 -79l17 -88q7 -35 17.5 -47.5t29.5 -12.5h65z" />
    <glyph glyph-name="uni0498" unicode="&#x498;" horiz-adv-x="676" 
d="M561 47q-61 -57 -181 -66l-43 -201h-31l-44 209q-31 8 -56 19.5t-39 20.5t-17 12l-66 -51h-21v257h21l58 -167q0 -3 25 -23t68 -37t101 -17q85 0 126 53t41 149v11q0 94 -46 143.5t-146 49.5h-72v22h72q80 0 119.5 44.5t39.5 129.5v6q0 94 -37.5 140t-106.5 46
q-49 0 -84.5 -12.5t-56 -27.5t-20.5 -17l-62 -168h-21v248h21l67 -46q0 1 22.5 13.5t57.5 22.5t77 10q138 0 200.5 -55t62.5 -152q0 -74 -47.5 -126t-141.5 -64q117 -18 169 -74t52 -143q0 -102 -61 -159z" />
    <glyph glyph-name="uni0499" unicode="&#x499;" horiz-adv-x="532" 
d="M440.5 36.5q-49.5 -38.5 -149.5 -45.5l-33 -155h-23l-33 156q-86 6 -125.5 36.5t-39.5 72.5q0 30 17.5 48.5t46.5 18.5q19 0 34 -10t21 -28q-17 -20 -17 -42q0 -34 30.5 -56.5t79.5 -22.5q60 0 96.5 31.5t36.5 92.5v13q0 55 -40.5 84.5t-100.5 29.5h-56v24h56
q57 0 87 27.5t30 80.5v4q0 112 -106 112q-57 0 -105 -28l-60 -143h-21l11 190l60 -29q56 29 117 29q112 0 162 -32.5t50 -97.5q0 -47 -34.5 -78t-103.5 -42v-1q81 -8 121.5 -43t40.5 -93q0 -65 -49.5 -103.5z" />
    <glyph glyph-name="uni049A" unicode="&#x49a;" horiz-adv-x="739" 
d="M657 0h-36q-57 0 -84.5 24.5t-37.5 84.5l-24 169q-10 71 -43 103t-106 32h-84v-377l92 -15v-21h-294v21l92 15v728l-92 14v22h294v-22l-92 -14v-327h107q45 1 79 37t50 98l31 126q14 56 42.5 84t68.5 28q33 0 57.5 -19t24.5 -50q0 -29 -16.5 -47t-43.5 -18h-20
q-16 43 -50 43q-33 0 -41 -34l-31 -126q-12 -47 -35 -79.5t-53 -46.5q83 -10 127 -48t54 -103l25 -161q12 -56 29 -76t50 -20h79l15 -245h-30z" />
    <glyph glyph-name="uni049B" unicode="&#x49b;" horiz-adv-x="603" 
d="M634 -165h-28l-88 165h-20q-44 0 -66 16t-29 55l-20 106q-9 47 -29.5 66t-57.5 20h-93v-232l72 -11v-20h-248v20l72 11v456l-72 10v21h248v-21l-72 -10v-201h94q25 2 40 17.5t25 53.5l18 72q12 49 32.5 73.5t63.5 24.5q36 0 56 -19.5t20 -47.5q0 -26 -16.5 -44.5
t-44.5 -18.5q-15 0 -29 5q3 9 3 17q0 13 -8 22t-20 9q-24 0 -32 -28l-19 -72q-13 -47 -34 -66q66 -6 96.5 -32t40.5 -79l17 -86q7 -35 18 -48.5t30 -13.5h65z" />
    <glyph glyph-name="uni049C" unicode="&#x49c;" horiz-adv-x="738" 
d="M748 51q-54 -61 -127 -61q-56 0 -84 27t-38 92l-24 169q-9 64 -36 95.5t-83 38.5v-194h-31v195h-83v-377l92 -15v-21h-294v21l92 15v728l-92 14v22h294v-22l-92 -14v-327h83v201h31v-200q44 4 75.5 40t46.5 94l31 126q14 56 42.5 84t68.5 28q33 0 57.5 -19t24.5 -50
q0 -29 -16.5 -47t-43.5 -18h-20q-16 43 -50 43q-33 0 -41 -34l-31 -126q-12 -47 -35 -79.5t-53 -46.5q83 -10 127 -48t54 -103l23 -151q8 -51 17 -71t26 -24q3 -1 9 -1q30 0 63 34z" />
    <glyph glyph-name="uni049D" unicode="&#x49d;" horiz-adv-x="584" 
d="M589 35q-19 -22 -45 -33.5t-51 -11.5q-44 0 -65 18.5t-29 62.5l-20 106q-9 47 -30 66t-57 20h-3v-122h-33v122h-57v-232l72 -11v-20h-244v20l72 11v456l-72 10v21h244v-21l-72 -10v-201h57v125h33v-125h4q25 2 40 17.5t25 53.5l18 72q12 49 32.5 73.5t63.5 24.5
q36 0 56 -19.5t20 -47.5q0 -26 -16.5 -44.5t-44.5 -18.5q-15 0 -29 5q3 9 3 17q0 13 -8 22t-20 9q-24 0 -32 -28l-19 -72q-13 -47 -34 -66q66 -6 96.5 -32t40.5 -79l17 -86q7 -33 14.5 -44t22.5 -11q17 0 35 18z" />
    <glyph glyph-name="uni04A0" unicode="&#x4a0;" horiz-adv-x="883" 
d="M893 51q-54 -61 -127 -61q-56 0 -84 27t-38 92l-24 169q-10 71 -43 103t-106 32h-84v-377l92 -15v-21h-294v21l92 15v739h-157l-76 -198h-29v223h464v-21l-92 -15v-327h107q45 1 79 37t50 98l31 126q14 56 42.5 84t68.5 28q33 0 57.5 -19t24.5 -50q0 -29 -16.5 -47
t-43.5 -18h-20q-16 43 -50 43q-33 0 -41 -34l-31 -126q-12 -47 -35 -79.5t-53 -46.5q83 -10 127 -48t54 -103l23 -151q8 -51 17 -71t26 -24q3 -1 9 -1q30 0 63 34z" />
    <glyph glyph-name="uni04A1" unicode="&#x4a1;" horiz-adv-x="702" 
d="M546 8.5q-21 18.5 -29 62.5l-20 106q-9 47 -30 66t-57 20h-93v-232l72 -11v-20h-244v20l72 11v462h-81l-87 -165h-28l15 190h351v-20l-70 -10v-202h92q25 0 41 16.5t26 54.5l18 72q12 49 32.5 73.5t63.5 24.5q36 0 56 -19.5t20 -47.5q0 -26 -17 -44.5t-44 -18.5
q-17 0 -29 5q3 9 3 17q0 13 -8 22t-20 9q-24 0 -32 -28l-19 -72q-13 -47 -34 -66q66 -6 96.5 -32t40.5 -79l17 -86q7 -33 14.5 -44t22.5 -11q17 0 35 18l15 -15q-19 -22 -45 -33.5t-51 -11.5q-44 0 -65 18.5z" />
    <glyph glyph-name="uni04A2" unicode="&#x4a2;" horiz-adv-x="872" 
d="M817 25l15 -245h-30l-104 220h-169v22l93 14v375h-380v-375l92 -15v-21h-294v21l92 15v728l-92 14v22h294v-22l-92 -14v-328h380v328l-93 14v22h295v-22l-93 -14v-739h86z" />
    <glyph glyph-name="uni04A3" unicode="&#x4a3;" horiz-adv-x="637" 
d="M615 25l15 -190h-28l-88 165h-130v20l60 10v220h-247v-220l60 -10v-20h-230v20l70 10v458l-70 10v20h230v-20l-60 -10v-213h247v213l-60 10v20h230v-20l-70 -10v-463h71z" />
    <glyph glyph-name="uni04A4" unicode="&#x4a4;" horiz-adv-x="1104" 
d="M530 800h553v-223h-30l-75 198h-246v-739l92 -15v-21h-294v21l92 15v375h-380v-375l92 -15v-21h-294v21l92 15v728l-92 14v22h294v-22l-92 -14v-328h380v324l-92 15v25z" />
    <glyph glyph-name="uni04A5" unicode="&#x4a5;" horiz-adv-x="817" 
d="M781 518l15 -190h-28l-88 165h-136v-463l90 -10v-20h-260v20l70 10v220h-247v-220l60 -10v-20h-230v20l70 10v458l-70 10v20h230v-20l-60 -10v-213h247v213l-70 10v20h407z" />
    <glyph glyph-name="uni04AA" unicode="&#x4aa;" horiz-adv-x="746" 
d="M682 247v-257h-21l-72 51q-54 -43 -120 -55l-44 -206h-31l-44 205q-90 15 -157 71t-103 144.5t-36 199.5q0 124 45.5 219.5t129 148t192.5 52.5q43 0 87.5 -15t80.5 -42l67 57h21v-248h-21l-62 155q-35 32 -81.5 51t-91.5 19q-70 0 -123.5 -36t-83.5 -105t-30 -164v-183
q0 -95 29 -164t81 -105.5t122 -36.5q51 0 102 22.5t85 60.5l58 161h21z" />
    <glyph glyph-name="uni04AB" unicode="&#x4ab;" horiz-adv-x="547" 
d="M420.5 50.5q50.5 38.5 62.5 101.5h23q-12 -64 -55.5 -106t-107.5 -53l-33 -157h-23l-33 158q-60 11 -108 46.5t-75.5 92t-27.5 126.5q0 83 36.5 144t95.5 92.5t127 31.5q57 0 104 -19.5t74.5 -54.5t27.5 -79q0 -33 -17 -50.5t-45 -17.5q-27 0 -45 18t-18 45q15 10 21 22
t6 30q0 37 -29.5 60.5t-78.5 23.5q-72 0 -110.5 -51.5t-38.5 -144.5v-100q0 -89 37.5 -143t111.5 -54q68 0 118.5 38.5z" />
    <glyph glyph-name="uni04AE" unicode="&#x4ae;" horiz-adv-x="657" 
d="M196 0v21l93 15v304l-243 424l-79 14v22h301v-22l-93 -14l210 -363l193 329l-120 48v22h224v-22l-77 -49l-208 -356v-337l93 -15v-21h-294z" />
    <glyph glyph-name="uni04AF" unicode="&#x4af;" horiz-adv-x="530" 
d="M361 517h179v-20l-63 -24l-150 -441v-285l70 -10v-20h-240v20l70 10v286l-176 455l-65 10v20h249v-20l-72 -13l152 -408l134 395l-88 25v20z" />
    <glyph glyph-name="uni04B0" unicode="&#x4b0;" horiz-adv-x="674" 
d="M458 800h224v-22l-77 -49l-208 -356v-7h160v-33h-160v-297l93 -15v-21h-294v21l93 15v297h-156v33h141l-228 398l-79 14v22h301v-22l-93 -14l210 -363l193 329l-120 48v22z" />
    <glyph glyph-name="uni04B1" unicode="&#x4b1;" horiz-adv-x="530" 
d="M361 517h179v-20l-63 -24l-150 -440h117v-33h-117v-253l70 -10v-20h-240v20l70 10v253h-123v33h123l-176 455l-65 10v20h249v-20l-72 -13l152 -408l134 395l-88 25v20z" />
    <glyph glyph-name="uni04B6" unicode="&#x4b6;" horiz-adv-x="817" 
d="M777 -220h-30l-104 220h-198v22l123 15v336q0 -1 -28 -12t-71.5 -20t-95.5 -9q-102 0 -159.5 21t-81.5 64t-24 115v232l-92 14v22h294v-22l-92 -14v-230q0 -91 36.5 -135t118.5 -44q55 0 98 10t70 21.5t27 12.5v365l-93 14v22h295v-22l-93 -14v-739h85z" />
    <glyph glyph-name="uni04B7" unicode="&#x4b7;" horiz-adv-x="605" 
d="M598 -165h-28l-88 165h-170v20l100 10v194q-27 -14 -68.5 -25t-94.5 -11q-82 0 -127.5 34t-45.5 110v156l-70 10v20h230v-20l-60 -10v-156q0 -56 23 -85t76 -29q46 0 80.5 10t56.5 23v237l-60 10v20h230v-20l-70 -10v-463h71z" />
    <glyph glyph-name="uni04B8" unicode="&#x4b8;" horiz-adv-x="811" 
d="M678 764v-728l93 -15v-21h-326v21l123 15v337q-5 -2 -23.5 -10t-52 -16.5t-74.5 -12.5v-197h-31v195h-14q-102 0 -159.5 21t-81.5 64t-24 115v232l-92 14v22h294v-22l-92 -14v-230q0 -91 36.5 -135t118.5 -44h14v202h31v-200q42 4 75.5 13.5t52 17.5t22.5 11v365l-93 14
v22h296v-22z" />
    <glyph glyph-name="uni04B9" unicode="&#x4b9;" horiz-adv-x="609" 
d="M512 488v-458l70 -10v-20h-270v20l100 10v194q-41 -21 -92 -30v-116h-33v112q-24 -2 -38 -2q-82 0 -127.5 34t-45.5 110v156l-70 10v20h230v-20l-60 -10v-156q0 -56 23 -85t76 -29h12v130h33v-127q53 7 92 30v237l-60 10v20h230v-20z" />
    <glyph glyph-name="uni04BA" unicode="&#x4ba;" horiz-adv-x="811" 
d="M366 779l-123 -15v-337q0 1 28 12t71.5 20t95.5 9q102 0 159.5 -21t81.5 -64t24 -115v-232l92 -14v-22h-294v22l92 14v230q0 91 -36.5 135t-118.5 44q-55 0 -98 -10t-70 -21.5t-27 -12.5v-365l93 -14v-22h-296v22l93 14v728l-93 15v21h326v-21z" />
    <glyph glyph-name="uni04BB" unicode="&#x4bb;" horiz-adv-x="629" 
d="M21 20l70 10v740l-70 10v20h170v-390q37 54 87 85.5t108 31.5q72 0 113.5 -36t41.5 -107v-354l70 -10v-20h-230v20l60 10v352q0 52 -21 80.5t-65 28.5q-46 0 -88.5 -33.5t-75.5 -82.5v-345l60 -10v-20h-230v20z" />
    <glyph glyph-name="uni04C0" unicode="&#x4c0;" horiz-adv-x="374" 
d="M40 0v21l92 15v728l-92 14v22h294v-22l-92 -14v-728l92 -15v-21h-294z" />
    <glyph glyph-name="uni04C1" unicode="&#x4c1;" horiz-adv-x="1082" 
d="M-11 51l18 18q33 -34 63 -34q6 0 9 1q17 4 26 24t17 71l23 151q10 66 54 104t128 48q-30 13 -53 45.5t-36 79.5l-31 126q-8 34 -41 34q-34 0 -50 -43h-20q-27 0 -43.5 18t-16.5 47q0 31 22.5 50t59.5 19q42 0 69 -27.5t42 -84.5l31 -126q17 -62 51 -98t79 -37h96v327
l-92 14v22h294v-22l-92 -14v-327h97q44 1 77.5 37t51.5 98l31 126q15 57 42 84.5t69 27.5q37 0 59.5 -19t22.5 -50q0 -29 -16.5 -47t-43.5 -18h-20q-16 43 -50 43q-33 0 -41 -34l-31 -126q-13 -47 -36 -79.5t-53 -45.5q84 -10 128 -48t54 -104l23 -151q8 -51 17 -71t26 -24
q3 -1 9 -1q30 0 63 34l17 -18q-54 -61 -127 -61q-56 0 -84 27t-38 92l-24 169q-10 71 -43 103t-106 32h-74v-377l92 -15v-21h-294v21l92 15v377h-74q-73 0 -106 -32t-43 -103l-24 -169q-10 -65 -38 -92t-84 -27q-73 0 -128 61zM407 860q-53 28 -53 84q0 27 18 45.5t45 18.5
q26 0 46 -19t20 -45q-16 -8 -25 -19.5t-9 -22.5q0 -20 23.5 -34t66.5 -14q41 0 65 14.5t24 34.5q0 25 -33 41q0 26 20 45t46 19t44 -19t18 -45q0 -56 -52.5 -84t-131.5 -28t-132 28z" />
    <glyph glyph-name="uni04C2" unicode="&#x4c2;" horiz-adv-x="850" 
d="M40 -0.5q-26 11.5 -45 33.5l15 15q18 -18 35 -18q15 0 23 11.5t14 43.5l17 88q9 53 39.5 79t96.5 32q-22 20 -33 66l-19 72q-8 28 -32 28q-12 0 -20 -9t-8 -22q0 -8 3 -17q-14 -5 -29 -5q-28 0 -44.5 18.5t-16.5 44.5q0 28 20 47.5t56 19.5q43 0 63.5 -24.5t32.5 -73.5
l18 -72q9 -37 24 -53t40 -18h85v201l-72 10v21h244v-21l-72 -10v-201h83q25 1 40.5 17t25.5 54l18 72q12 49 32.5 73.5t63.5 24.5q36 0 56 -19.5t20 -47.5q0 -26 -16.5 -44.5t-44.5 -18.5q-15 0 -29 5q3 9 3 17q0 13 -8 22t-20 9q-24 0 -32 -28l-19 -72q-11 -45 -34 -66
q66 -6 97 -32t40 -79l17 -88q6 -32 14 -43.5t23 -11.5q17 0 35 18l15 -15q-19 -22 -45 -33.5t-51 -11.5q-44 0 -65 18.5t-29 62.5l-20 108q-9 49 -31 67.5t-61 18.5h-78v-232l72 -11v-20h-244v20l72 11v232h-83q-37 -1 -58 -20t-29 -66l-20 -108q-8 -44 -29 -62.5t-65 -18.5
q-25 0 -51 11.5zM299.5 608.5q-50.5 26.5 -50.5 80.5q0 25 17.5 43t42.5 18t44 -18t19 -43q-15 -8 -23.5 -18.5t-8.5 -21.5q0 -19 22.5 -32.5t63.5 -13.5q39 0 62 14t23 33q0 23 -31 39q0 25 18.5 43t44.5 18q25 0 42 -18t17 -43q0 -54 -50.5 -80.5t-125.5 -26.5
q-76 0 -126.5 26.5z" />
    <glyph glyph-name="uni04CB" unicode="&#x4cb;" horiz-adv-x="810" 
d="M677 764v-728l93 -14v-22h-168l-104 -220h-30l15 245h85v348q0 -1 -28 -12t-71.5 -20t-95.5 -9q-102 0 -159.5 21t-81.5 64t-24 115v232l-92 14v22h294v-22l-92 -14v-230q0 -91 36.5 -135t118.5 -44q55 0 98 10t70 21.5t27 12.5v365l-93 14v22h295v-22z" />
    <glyph glyph-name="uni04CC" unicode="&#x4cc;" horiz-adv-x="609" 
d="M512 488v-458l60 -10v-20h-130l-88 -165h-28l15 190h71v199q-27 -14 -68.5 -25t-94.5 -11q-82 0 -127.5 34t-45.5 110v156l-70 10v20h230v-20l-60 -10v-156q0 -56 23 -85t76 -29q46 0 80.5 10t56.5 23v237l-60 10v20h230v-20z" />
    <glyph glyph-name="uni04CF" unicode="&#x4cf;" horiz-adv-x="286" 
d="M20 0v20l75 10v740l-75 10v20h175v-770l70 -10v-20h-245z" />
    <glyph glyph-name="uni04D0" unicode="&#x4d0;" horiz-adv-x="719" 
d="M-28 0v21l98 40l289 759h16l273 -784l92 -15v-21h-294v21l82 13l-85 237h-266l-81 -210l90 -40v-21h-214zM185 292h251l-120 352zM236 860q-53 28 -53 84q0 27 18 45.5t45 18.5q26 0 46 -19t20 -45q-16 -8 -25 -19.5t-9 -22.5q0 -20 23.5 -34t66.5 -14q41 0 65 14.5
t24 34.5q0 25 -33 41q0 26 20 45t46 19t44 -19t18 -45q0 -56 -52.5 -84t-131.5 -28t-132 28z" />
    <glyph glyph-name="uni04D1" unicode="&#x4d1;" horiz-adv-x="567" 
d="M87 23.5q-41 33.5 -41 99.5q0 94 79 133.5t183 39.5h67v77q0 52 -11.5 80.5t-35.5 40t-65 11.5q-47 0 -70 -18.5t-23 -49.5q0 -29 28 -38q0 -25 -19 -44t-45 -19q-28 0 -45 15.5t-17 47.5q0 58 58 93t145 35q200 0 200 -174v-286q0 -22 9.5 -33.5t27.5 -11.5
q17 0 27 11.5t10 31.5h21q0 -35 -22.5 -55t-62.5 -20q-46 0 -77.5 26.5t-32.5 82.5q-24 -51 -73.5 -80t-109.5 -29q-64 0 -105 33.5zM302.5 50q28.5 16 48.5 46.5t24 73.5v104h-67q-82 0 -122.5 -36.5t-40.5 -102.5q0 -55 26 -78t76 -23q27 0 55.5 16zM147.5 608.5
q-50.5 26.5 -50.5 80.5q0 25 17.5 43t42.5 18t44 -18t19 -43q-15 -8 -23.5 -18.5t-8.5 -21.5q0 -19 22.5 -32.5t63.5 -13.5q39 0 62 14t23 33q0 23 -31 39q0 25 18.5 43t44.5 18q25 0 42 -18t17 -43q0 -54 -50.5 -80.5t-125.5 -26.5q-76 0 -126.5 26.5z" />
    <glyph glyph-name="uni04D2" unicode="&#x4d2;" horiz-adv-x="719" 
d="M-28 0v21l98 40l289 759h16l273 -784l92 -15v-21h-294v21l82 13l-85 237h-266l-81 -210l90 -40v-21h-214zM185 292h251l-120 352zM234.5 875q-17.5 17 -17.5 42t17.5 42t42.5 17t42 -17t17 -42t-17 -42t-42 -17t-42.5 17zM420.5 875q-17.5 17 -17.5 42t17.5 42t42.5 17
t41.5 -17t16.5 -42t-16.5 -42t-41.5 -17t-42.5 17z" />
    <glyph glyph-name="uni04D3" unicode="&#x4d3;" horiz-adv-x="567" 
d="M87 23.5q-41 33.5 -41 99.5q0 94 79 133.5t183 39.5h67v77q0 52 -11.5 80.5t-35.5 40t-65 11.5q-47 0 -70 -18.5t-23 -49.5q0 -29 28 -38q0 -25 -19 -44t-45 -19q-28 0 -45 15.5t-17 47.5q0 58 58 93t145 35q200 0 200 -174v-286q0 -22 9.5 -33.5t27.5 -11.5
q17 0 27 11.5t10 31.5h21q0 -35 -22.5 -55t-62.5 -20q-46 0 -77.5 26.5t-32.5 82.5q-24 -51 -73.5 -80t-109.5 -29q-64 0 -105 33.5zM302.5 50q28.5 16 48.5 46.5t24 73.5v104h-67q-82 0 -122.5 -36.5t-40.5 -102.5q0 -55 26 -78t76 -23q27 0 55.5 16zM140.5 632
q-17.5 17 -17.5 42t17.5 42t42.5 17t42 -17t17 -42t-17 -42t-42 -17t-42.5 17zM326 632q-17 17 -17 42t17 42t42 17t42 -17t17 -42t-17 -42t-42 -17t-42 17z" />
    <glyph glyph-name="uni04D4" unicode="&#x4d4;" horiz-adv-x="1114" 
d="M-40 0v21l95 39l462 704l-85 14v22h603v-229h-27l-77 204h-281v-360h120l59 145h27v-316h-27l-59 147h-120v-367h299l82 220h27v-244h-517v309h-292l-164 -249l89 -39v-21h-214zM263 330h278v421z" />
    <glyph glyph-name="uni04D5" unicode="&#x4d5;" horiz-adv-x="878" 
d="M79 24q-40 34 -40 99q0 95 83.5 135t208.5 40h37v95q0 57 -26.5 84.5t-75.5 27.5q-45 0 -74 -21t-29 -47q0 -29 28 -38q0 -25 -19 -44t-45 -19t-44 18.5t-18 44.5q0 38 27.5 67t73.5 45t100 16q132 0 177 -66q34 32 79 49t96 17q63 0 113 -28t78 -77.5t29 -113.5h-368
v-99q0 -88 39.5 -142.5t114.5 -54.5q69 0 122 39t65 101h23q-14 -74 -71 -118t-139 -44t-147.5 39.5t-93.5 108.5q-29 -78 -79.5 -113t-123.5 -35q-61 0 -101 34zM729 333q0 87 -27.5 129.5t-83.5 42.5q-67 0 -104.5 -46.5t-42.5 -125.5h258zM296 57.5q32 20.5 52 56
t20 77.5v82h-37q-78 0 -130.5 -37t-52.5 -113q0 -40 22 -63t60 -23q34 0 66 20.5z" />
    <glyph glyph-name="uni04D6" unicode="&#x4d6;" horiz-adv-x="721" 
d="M40 0v21l92 15v728l-92 14v22h602v-229h-27l-77 204h-296v-360h130l59 145h26v-316h-26l-60 147h-129v-367h314l82 220h26v-244h-624zM227 860q-53 28 -53 84q0 27 18 45.5t45 18.5q26 0 46 -19t20 -45q-16 -8 -25 -19.5t-9 -22.5q0 -20 23.5 -34t66.5 -14q41 0 65 14.5
t24 34.5q0 25 -33 41q0 26 20 45t46 19t44 -19t18 -45q0 -56 -52.5 -84t-131.5 -28t-132 28z" />
    <glyph glyph-name="uni04D7" unicode="&#x4d7;" horiz-adv-x="561" 
d="M173 23.5q-60 33.5 -95 94.5t-35 141t34.5 140.5t93 94t130.5 33.5q63 0 113 -28t78 -77.5t29 -113.5h-368v-99q0 -88 39.5 -142.5t114.5 -54.5q69 0 122 39t65 101h23q-14 -74 -71 -118t-139 -44q-74 0 -134 33.5zM411 333q0 87 -27 129.5t-84 42.5q-67 0 -104 -47
t-42 -125h257zM174.5 608.5q-50.5 26.5 -50.5 80.5q0 25 17.5 43t42.5 18t44 -18t19 -43q-15 -8 -23.5 -18.5t-8.5 -21.5q0 -19 22.5 -32.5t63.5 -13.5q39 0 62 14t23 33q0 23 -31 39q0 25 18.5 43t44.5 18q25 0 42 -18t17 -43q0 -54 -50.5 -80.5t-125.5 -26.5
q-76 0 -126.5 26.5z" />
    <glyph glyph-name="uni04D8" unicode="&#x4d8;" horiz-adv-x="795" 
d="M561.5 767.5q85.5 -52.5 132.5 -148t47 -219.5t-44.5 -219t-126.5 -148t-191 -53q-100 0 -175 53t-116 148t-41 219h564v92q0 95 -31 164t-87 105t-129 36q-50 0 -102 -19t-91 -51l-62 -155h-21v248h21l67 -57q41 27 90.5 42t97.5 15q112 0 197.5 -52.5zM501 39.5
q52 36.5 81 105.5t29 164v66h-434v-66q0 -95 25 -164t70.5 -105.5t106.5 -36.5q70 0 122 36.5z" />
    <glyph glyph-name="uni04D9" unicode="&#x4d9;" horiz-adv-x="563" 
d="M390 493.5q60 -33.5 95 -94t35 -140.5q0 -79 -33 -140t-89 -94.5t-124 -33.5t-120 31t-81.5 89.5t-30.5 138.5h368v59q0 89 -39.5 144t-114.5 55q-61 0 -107 -27l-60 -143h-21l11 190l60 -29q54 28 117 28q74 0 134 -33.5zM375 67.5q35 54.5 35 142.5v15h-258
q3 -113 32.5 -162.5t90.5 -49.5q65 0 100 54.5z" />
    <glyph glyph-name="uni04DC" unicode="&#x4dc;" horiz-adv-x="1082" 
d="M-11 51l18 18q33 -34 63 -34q6 0 9 1q17 4 26 24t17 71l23 151q10 66 54 104t128 48q-30 13 -53 45.5t-36 79.5l-31 126q-8 34 -41 34q-34 0 -50 -43h-20q-27 0 -43.5 18t-16.5 47q0 31 22.5 50t59.5 19q42 0 69 -27.5t42 -84.5l31 -126q17 -62 51 -98t79 -37h96v327
l-92 14v22h294v-22l-92 -14v-327h97q44 1 77.5 37t51.5 98l31 126q15 57 42 84.5t69 27.5q37 0 59.5 -19t22.5 -50q0 -29 -16.5 -47t-43.5 -18h-20q-16 43 -50 43q-33 0 -41 -34l-31 -126q-13 -47 -36 -79.5t-53 -45.5q84 -10 128 -48t54 -104l23 -151q8 -51 17 -71t26 -24
q3 -1 9 -1q30 0 63 34l17 -18q-54 -61 -127 -61q-56 0 -84 27t-38 92l-24 169q-10 71 -43 103t-106 32h-74v-377l92 -15v-21h-294v21l92 15v377h-74q-73 0 -106 -32t-43 -103l-24 -169q-10 -65 -38 -92t-84 -27q-73 0 -128 61zM405.5 875q-17.5 17 -17.5 42t17.5 42t42.5 17
t42 -17t17 -42t-17 -42t-42 -17t-42.5 17zM591.5 875q-17.5 17 -17.5 42t17.5 42t42.5 17t41.5 -17t16.5 -42t-16.5 -42t-41.5 -17t-42.5 17z" />
    <glyph glyph-name="uni04DD" unicode="&#x4dd;" horiz-adv-x="850" 
d="M40 -0.5q-26 11.5 -45 33.5l15 15q18 -18 35 -18q15 0 23 11.5t14 43.5l17 88q9 53 39.5 79t96.5 32q-22 20 -33 66l-19 72q-8 28 -32 28q-12 0 -20 -9t-8 -22q0 -8 3 -17q-14 -5 -29 -5q-28 0 -44.5 18.5t-16.5 44.5q0 28 20 47.5t56 19.5q43 0 63.5 -24.5t32.5 -73.5
l18 -72q9 -37 24 -53t40 -18h85v201l-72 10v21h244v-21l-72 -10v-201h83q25 1 40.5 17t25.5 54l18 72q12 49 32.5 73.5t63.5 24.5q36 0 56 -19.5t20 -47.5q0 -26 -16.5 -44.5t-44.5 -18.5q-15 0 -29 5q3 9 3 17q0 13 -8 22t-20 9q-24 0 -32 -28l-19 -72q-11 -45 -34 -66
q66 -6 97 -32t40 -79l17 -88q6 -32 14 -43.5t23 -11.5q17 0 35 18l15 -15q-19 -22 -45 -33.5t-51 -11.5q-44 0 -65 18.5t-29 62.5l-20 108q-9 49 -31 67.5t-61 18.5h-78v-232l72 -11v-20h-244v20l72 11v232h-83q-37 -1 -58 -20t-29 -66l-20 -108q-8 -44 -29 -62.5t-65 -18.5
q-25 0 -51 11.5zM292.5 632q-17.5 17 -17.5 42t17.5 42t42.5 17t42 -17t17 -42t-17 -42t-42 -17t-42.5 17zM478 632q-17 17 -17 42t17 42t42 17t42 -17t17 -42t-17 -42t-42 -17t-42 17z" />
    <glyph glyph-name="uni04DE" unicode="&#x4de;" horiz-adv-x="676" 
d="M245 -6.5q-41 13.5 -68 29.5t-27 18l-66 -51h-21v257h21l58 -167q0 -3 25 -23t68 -37t101 -17q85 0 126 53t41 149v11q0 94 -46 143.5t-146 49.5h-72v22h72q80 0 119.5 44.5t39.5 129.5v6q0 94 -37.5 140t-106.5 46q-49 0 -84.5 -12.5t-56 -27.5t-20.5 -17l-62 -168h-21
v248h21l67 -46q0 1 22.5 13.5t57.5 22.5t77 10q138 0 200.5 -55t62.5 -152q0 -74 -47.5 -126t-141.5 -64q117 -18 169 -74t52 -143q0 -111 -72 -168.5t-214 -57.5q-50 0 -91 13.5zM194.5 875q-17.5 17 -17.5 42t17.5 42t42.5 17t42 -17t17 -42t-17 -42t-42 -17t-42.5 17z
M380.5 875q-17.5 17 -17.5 42t17.5 42t42.5 17t41.5 -17t16.5 -42t-16.5 -42t-41.5 -17t-42.5 17z" />
    <glyph glyph-name="uni04DF" unicode="&#x4df;" horiz-adv-x="532" 
d="M87.5 21.5q-50.5 31.5 -50.5 79.5q0 30 17.5 48.5t46.5 18.5q19 0 34 -10t21 -28q-17 -20 -17 -42q0 -34 30.5 -56.5t79.5 -22.5q60 0 96.5 31.5t36.5 92.5v13q0 55 -40.5 84.5t-100.5 29.5h-56v24h56q57 0 87 27.5t30 80.5v4q0 112 -106 112q-57 0 -105 -28l-60 -143
h-21l11 190l60 -29q56 29 117 29q112 0 162 -32.5t50 -97.5q0 -47 -34.5 -78t-103.5 -42v-1q81 -8 121.5 -43t40.5 -93q0 -71 -60 -110.5t-181 -39.5q-111 0 -161.5 31.5zM119.5 632q-17.5 17 -17.5 42t17.5 42t42.5 17t42 -17t17 -42t-17 -42t-42 -17t-42.5 17zM305 632
q-17 17 -17 42t17 42t42 17t42 -17t17 -42t-17 -42t-42 -17t-42 17z" />
    <glyph glyph-name="uni04E2" unicode="&#x4e2;" horiz-adv-x="865" 
d="M35 0v21l92 15v728l-92 14v22h294v-22l-92 -14v-648l390 620v28l-93 14v22h296v-22l-93 -14v-728l93 -15v-21h-296v21l93 15v653l-390 -620v-33l92 -15v-21h-294zM204 948v34h459v-34h-459z" />
    <glyph glyph-name="uni04E3" unicode="&#x4e3;" horiz-adv-x="647" 
d="M27 0v20l70 10v458l-70 10v20h230v-20l-60 -10v-389l253 369v20l-60 10v20h230v-20l-70 -10v-458l70 -10v-20h-230v20l60 10v396l-253 -370v-26l60 -10v-20h-230zM97 666v34h459v-34h-459z" />
    <glyph glyph-name="uni04E4" unicode="&#x4e4;" horiz-adv-x="865" 
d="M35 0v21l92 15v728l-92 14v22h294v-22l-92 -14v-648l390 620v28l-93 14v22h296v-22l-93 -14v-728l93 -15v-21h-296v21l93 15v653l-390 -620v-33l92 -15v-21h-294zM300.5 875q-17.5 17 -17.5 42t17.5 42t42.5 17t42 -17t17 -42t-17 -42t-42 -17t-42.5 17zM486.5 875
q-17.5 17 -17.5 42t17.5 42t42.5 17t41.5 -17t16.5 -42t-16.5 -42t-41.5 -17t-42.5 17z" />
    <glyph glyph-name="uni04E5" unicode="&#x4e5;" horiz-adv-x="647" 
d="M27 0v20l70 10v458l-70 10v20h230v-20l-60 -10v-389l253 369v20l-60 10v20h230v-20l-70 -10v-458l70 -10v-20h-230v20l60 10v396l-253 -370v-26l60 -10v-20h-230zM193.5 632q-17.5 17 -17.5 42t17.5 42t42.5 17t42 -17t17 -42t-17 -42t-42 -17t-42.5 17zM379 632
q-17 17 -17 42t17 42t42 17t42 -17t17 -42t-17 -42t-42 -17t-42 17z" />
    <glyph glyph-name="uni04E6" unicode="&#x4e6;" horiz-adv-x="862" 
d="M236 33q-86 53 -134 148.5t-48 218.5t48 218.5t134 148.5t195 53t195 -53t134 -148.5t48 -218.5t-48 -218.5t-134 -148.5t-195 -53t-195 53zM560.5 41q57.5 38 90.5 110.5t33 171.5v154q0 99 -33 171.5t-90.5 110.5t-129.5 38q-73 0 -130 -38t-90 -110.5t-33 -171.5v-154
q0 -99 33 -171.5t90 -110.5t130 -38q72 0 129.5 38zM298.5 875q-17.5 17 -17.5 42t17.5 42t42.5 17t42 -17t17 -42t-17 -42t-42 -17t-42.5 17zM484.5 875q-17.5 17 -17.5 42t17.5 42t42.5 17t41.5 -17t16.5 -42t-16.5 -42t-41.5 -17t-42.5 17z" />
    <glyph glyph-name="uni04E7" unicode="&#x4e7;" horiz-adv-x="604" 
d="M171 23.5q-59 33.5 -93.5 95t-34.5 140.5t34.5 140t93.5 94.5t131 33.5t131 -33.5t93.5 -94.5t34.5 -140t-34.5 -140.5t-93.5 -95t-131 -33.5t-131 33.5zM413.5 66q37.5 54 37.5 143v100q0 89 -37.5 142.5t-111.5 53.5t-111.5 -53.5t-37.5 -142.5v-100q0 -89 37.5 -143
t111.5 -54t111.5 54zM169.5 632q-17.5 17 -17.5 42t17.5 42t42.5 17t42 -17t17 -42t-17 -42t-42 -17t-42.5 17zM355 632q-17 17 -17 42t17 42t42 17t42 -17t17 -42t-17 -42t-42 -17t-42 17z" />
    <glyph glyph-name="uni04E8" unicode="&#x4e8;" horiz-adv-x="862" 
d="M626 767q86 -53 134 -148.5t48 -218.5t-48 -218.5t-134 -148.5t-195 -53t-195 53t-134 148.5t-48 218.5t48 218.5t134 148.5t195 53t195 -53zM301 759q-57 -38 -90 -110.5t-33 -171.5v-41h506v41q0 99 -33 171.5t-90.5 110.5t-129.5 38q-73 0 -130 -38zM560.5 41
q57.5 38 90.5 110.5t33 171.5v88h-506v-88q0 -99 33 -171.5t90 -110.5t130 -38q72 0 129.5 38z" />
    <glyph glyph-name="uni04E9" unicode="&#x4e9;" horiz-adv-x="604" 
d="M433 493.5q59 -33.5 93.5 -94.5t34.5 -140t-34.5 -140.5t-93.5 -95t-131 -33.5t-131 33.5t-93.5 95t-34.5 140.5t34.5 140t93.5 94.5t131 33.5t131 -33.5zM190.5 451.5q-37.5 -53.5 -37.5 -142.5v-34h298v34q0 89 -37.5 142.5t-111.5 53.5t-111.5 -53.5zM413.5 66
q37.5 54 37.5 143v41h-298v-41q0 -89 37.5 -143t111.5 -54t111.5 54z" />
    <glyph glyph-name="uni04EE" unicode="&#x4ee;" horiz-adv-x="726" 
d="M140.5 15.5q-26.5 25.5 -26.5 66.5q0 34 21 55.5t51 21.5q22 0 39 -9.5t26 -26.5q-1 -1 -6 -7t-9 -16t-4 -23q0 -19 10 -30.5t28 -11.5q26 0 48 24t52 91l13 30l-325 584l-79 14v22h301v-22l-93 -14l254 -456l189 422l-120 48v22h224v-22l-77 -49l-264 -588
q-27 -60 -51.5 -92t-54 -45.5t-72.5 -13.5q-48 0 -74.5 25.5zM168 948v34h459v-34h-459z" />
    <glyph glyph-name="uni04EF" unicode="&#x4ef;" horiz-adv-x="535" 
d="M34 -266q-32 26 -32 70q0 30 17.5 48.5t43.5 18.5q19 0 34 -8t24 -24q-15 -21 -15 -44q0 -20 13 -33t33 -13q24 0 41.5 16t31.5 56l60 172l-232 494l-67 10v20h249v-20l-70 -12l167 -357l119 344l-86 25v20h180v-20l-68 -25l-224 -651q-21 -59 -50.5 -86t-84.5 -27
q-52 0 -84 26zM58 666v34h459v-34h-459z" />
    <glyph glyph-name="uni04F0" unicode="&#x4f0;" horiz-adv-x="726" 
d="M140.5 15.5q-26.5 25.5 -26.5 66.5q0 34 21 55.5t51 21.5q22 0 39 -9.5t26 -26.5q-1 -1 -6 -7t-9 -16t-4 -23q0 -19 10 -30.5t28 -11.5q26 0 48 24t52 91l13 30l-325 584l-79 14v22h301v-22l-93 -14l254 -456l189 422l-120 48v22h224v-22l-77 -49l-264 -588
q-27 -60 -51.5 -92t-54 -45.5t-72.5 -13.5q-48 0 -74.5 25.5zM264.5 875q-17.5 17 -17.5 42t17.5 42t42.5 17t42 -17t17 -42t-17 -42t-42 -17t-42.5 17zM450.5 875q-17.5 17 -17.5 42t17.5 42t42.5 17t41.5 -17t16.5 -42t-16.5 -42t-41.5 -17t-42.5 17z" />
    <glyph glyph-name="uni04F1" unicode="&#x4f1;" horiz-adv-x="535" 
d="M34 -266q-32 26 -32 70q0 30 17.5 48.5t43.5 18.5q19 0 34 -8t24 -24q-15 -21 -15 -44q0 -20 13 -33t33 -13q24 0 41.5 16t31.5 56l60 172l-232 494l-67 10v20h249v-20l-70 -12l167 -357l119 344l-86 25v20h180v-20l-68 -25l-224 -651q-21 -59 -50.5 -86t-84.5 -27
q-52 0 -84 26zM154.5 632q-17.5 17 -17.5 42t17.5 42t42.5 17t42 -17t17 -42t-17 -42t-42 -17t-42.5 17zM340 632q-17 17 -17 42t17 42t42 17t42 -17t17 -42t-17 -42t-42 -17t-42 17z" />
    <glyph glyph-name="uni04F2" unicode="&#x4f2;" horiz-adv-x="727" 
d="M217 857l142 136q14 12 30 12t27.5 -12t11.5 -29q0 -9 -2 -13q-3 -8 -9.5 -15t-13.5 -9l-177 -85zM391 866l154 123q13 10 27 10q17 0 28 -12t11 -29q0 -8 -3 -16q-4 -8 -11 -14.5t-14 -7.5l-184 -69zM140.5 15.5q-26.5 25.5 -26.5 66.5q0 34 21 55.5t51 21.5
q22 0 39 -9.5t26 -26.5q-1 -1 -6 -7t-9 -16t-4 -23q0 -19 10 -30.5t28 -11.5q26 0 48 24t52 91l13 30l-325 584l-79 14v22h301v-22l-93 -14l254 -456l189 422l-120 48v22h224v-22l-77 -49l-264 -588q-27 -60 -51.5 -92t-54 -45.5t-72.5 -13.5q-48 0 -74.5 25.5z" />
    <glyph glyph-name="uni04F3" unicode="&#x4f3;" horiz-adv-x="535" 
d="M34 -266q-32 26 -32 70q0 30 17.5 48.5t43.5 18.5q19 0 34 -8t24 -24q-15 -21 -15 -44q0 -20 13 -33t33 -13q24 0 41.5 16t31.5 56l60 172l-232 494l-67 10v20h249v-20l-70 -12l167 -357l119 344l-86 25v20h180v-20l-68 -25l-224 -651q-21 -59 -50.5 -86t-84.5 -27
q-52 0 -84 26zM159 581l84 162q5 11 15 17.5t22 6.5q16 0 28 -12t12 -28q0 -21 -14 -30l-133 -126zM300 581l83 162q5 11 15 17.5t22 6.5q16 0 28 -12t12 -28q0 -21 -14 -30l-133 -126z" />
    <glyph glyph-name="uni04F4" unicode="&#x4f4;" horiz-adv-x="811" 
d="M445 21l123 15v337q0 -1 -28 -12t-71.5 -20t-95.5 -9q-102 0 -159.5 21t-81.5 64t-24 115v232l-92 14v22h294v-22l-92 -14v-230q0 -91 36.5 -135t118.5 -44q55 0 98 10t70 21.5t27 12.5v365l-93 14v22h296v-22l-93 -14v-728l93 -15v-21h-326v21zM263.5 875
q-17.5 17 -17.5 42t17.5 42t42.5 17t42 -17t17 -42t-17 -42t-42 -17t-42.5 17zM449.5 875q-17.5 17 -17.5 42t17.5 42t42.5 17t41.5 -17t16.5 -42t-16.5 -42t-41.5 -17t-42.5 17z" />
    <glyph glyph-name="uni04F5" unicode="&#x4f5;" horiz-adv-x="609" 
d="M312 20l100 10v194q-27 -14 -68.5 -25t-94.5 -11q-82 0 -127.5 34t-45.5 110v156l-70 10v20h230v-20l-60 -10v-156q0 -56 23 -85t76 -29q46 0 80.5 10t56.5 23v237l-60 10v20h230v-20l-70 -10v-458l70 -10v-20h-270v20zM162.5 632q-17.5 17 -17.5 42t17.5 42t42.5 17
t42 -17t17 -42t-17 -42t-42 -17t-42.5 17zM348 632q-17 17 -17 42t17 42t42 17t42 -17t17 -42t-17 -42t-42 -17t-42 17z" />
    <glyph glyph-name="uni04F6" unicode="&#x4f6;" horiz-adv-x="654" 
d="M313 -220l-104 220h-169v21l92 15v724l-92 15v25h593v-223h-30l-75 198h-286v-750h86l15 -245h-30z" />
    <glyph glyph-name="uni04F7" unicode="&#x4f7;" horiz-adv-x="500" 
d="M255 -165l-88 165h-140v20l70 10v458l-70 10v20h437l15 -190h-28l-88 165h-166v-468h71l15 -190h-28z" />
    <glyph glyph-name="uni04F8" unicode="&#x4f8;" horiz-adv-x="1034" 
d="M40 22l92 14v728l-92 15v21h294v-21l-92 -15v-314h129q147 0 219.5 -55.5t72.5 -169.5t-72.5 -169.5t-219.5 -55.5h-331v22zM700 0v21l92 15v728l-92 14v22h294v-22l-92 -14v-728l92 -15v-21h-294zM357 25q93 0 139 44t46 136v40q0 92 -46 136.5t-139 44.5h-115v-401h115
zM379.5 875q-17.5 17 -17.5 42t17.5 42t42.5 17t42 -17t17 -42t-17 -42t-42 -17t-42.5 17zM565.5 875q-17.5 17 -17.5 42t17.5 42t42.5 17t41.5 -17t16.5 -42t-16.5 -42t-41.5 -17t-42.5 17z" />
    <glyph glyph-name="uni04F9" unicode="&#x4f9;" horiz-adv-x="795" 
d="M27 20l70 10v458l-70 10v20h240v-20l-70 -10v-188h126q91 0 142 -38t51 -112t-51 -112t-142 -38h-296v20zM528 0v20l70 10v458l-70 10v20h240v-20l-70 -10v-458l70 -10v-20h-240zM293 25q55 0 85 32t30 92v2q0 60 -30 92t-85 32h-96v-250h96zM266.5 632
q-17.5 17 -17.5 42t17.5 42t42.5 17t42 -17t17 -42t-17 -42t-42 -17t-42.5 17zM452 632q-17 17 -17 42t17 42t42 17t42 -17t17 -42t-17 -42t-42 -17t-42 17z" />
    <glyph glyph-name="uni051A" unicode="&#x51a;" horiz-adv-x="862" 
d="M371 -58v43q-94 13 -166 69t-111.5 145t-39.5 201q0 123 48 218.5t134 148.5t195 53t195 -53t134 -148.5t48 -218.5q0 -111 -39.5 -200t-110.5 -145t-164 -70v-67q0 -126 122 -126v-23h-33q-212 0 -212 173zM560 41q57 38 89.5 110t32.5 172v154q0 100 -32.5 172
t-89.5 110t-129 38q-73 0 -129.5 -38t-89 -110t-32.5 -172v-154q0 -100 32.5 -172t89 -110t129.5 -38q72 0 129 38z" />
    <glyph glyph-name="uni051B" unicode="&#x51b;" horiz-adv-x="642" 
d="M332 -263l119 10v357q-25 -53 -68 -83.5t-101 -30.5q-71 0 -125 33t-84 93.5t-30 141.5t30 141.5t84 94t125 33.5q58 0 101 -30.5t68 -84.5v105h170v-20l-70 -10v-740l70 -10v-20h-289v20zM371.5 40.5q35.5 25.5 57 68t22.5 91.5v115q-1 50 -22.5 93t-57 68.5t-79.5 25.5
q-139 0 -139 -194v-100q0 -193 139 -193q44 0 79.5 25.5z" />
    <glyph glyph-name="uni051C" unicode="&#x51c;" horiz-adv-x="1081" 
d="M328 -20l-282 784l-67 14v22h278v-22l-91 -14l215 -592l146 382l-75 210l-92 14v22h297v-22l-86 -12l217 -593l215 560l-113 45v22h215v-22l-76 -44l-286 -754h-8l-195 539l-204 -539h-8z" />
    <glyph glyph-name="uni051D" unicode="&#x51d;" horiz-adv-x="822" 
d="M265 -20l-214 508l-65 10v20h224v-20l-47 -13l151 -376l89 243l-59 136l-52 10v20h236v-20l-72 -13l151 -376l135 362l-84 26v20h174v-20l-62 -24l-184 -493h-28l-141 338l-124 -338h-28z" />
    <glyph glyph-name="uni0524" unicode="&#x524;" horiz-adv-x="863" 
d="M793 -220l-104 220h-169v21l92 15v739h-370v-739l92 -15v-21h-294v21l92 15v728l-92 14v22h775v-22l-93 -14v-739h86l15 -245h-30z" />
    <glyph glyph-name="uni0525" unicode="&#x525;" horiz-adv-x="630" 
d="M595 -165l-88 165h-130v20l60 10v463h-240v-463l60 -10v-20h-230v20l70 10v458l-70 10v20h580v-20l-70 -10v-463h71l15 -190h-28z" />
    <glyph glyph-name="uni1EA0" unicode="&#x1ea0;" horiz-adv-x="719" 
d="M-28 0v21l98 40l289 759h16l273 -784l92 -15v-21h-294v21l82 13l-85 237h-266l-81 -210l90 -40v-21h-214zM185 292h251l-120 352zM326 -152.5q-15 14.5 -15 34.5t15 34t35 14t34 -14t14 -34t-14 -34.5t-34 -14.5t-35 14.5z" />
    <glyph glyph-name="uni1EA1" unicode="&#x1ea1;" horiz-adv-x="567" 
d="M87 23.5q-41 33.5 -41 99.5q0 94 79 133.5t183 39.5h67v77q0 52 -11.5 80.5t-35.5 40t-65 11.5q-47 0 -70 -18.5t-23 -49.5q0 -29 28 -38q0 -25 -19 -44t-45 -19q-28 0 -45 15.5t-17 47.5q0 58 58 93t145 35q200 0 200 -174v-286q0 -22 9.5 -33.5t27.5 -11.5
q17 0 27 11.5t10 31.5h21q0 -35 -22.5 -55t-62.5 -20q-46 0 -77.5 26.5t-32.5 82.5q-24 -51 -73.5 -80t-109.5 -29q-64 0 -105 33.5zM302.5 50q28.5 16 48.5 46.5t24 73.5v104h-67q-82 0 -122.5 -36.5t-40.5 -102.5q0 -55 26 -78t76 -23q27 0 55.5 16zM250 -152.5
q-15 14.5 -15 34.5t15 34t35 14t34 -14t14 -34t-14 -34.5t-34 -14.5t-35 14.5z" />
    <glyph glyph-name="uni1EA2" unicode="&#x1ea2;" horiz-adv-x="719" 
d="M-28 0v21l98 40l289 759h16l273 -784l92 -15v-21h-294v21l82 13l-85 237h-266l-81 -210l90 -40v-21h-214zM185 292h251l-120 352zM374.5 863.5q3.5 6.5 11.5 16.5q12 13 18.5 27.5t6.5 41.5q0 43 -12 59.5t-34 16.5q-21 0 -36.5 -11t-15.5 -28q0 -21 21 -32
q0 -14 -13.5 -22t-27.5 -8q-13 0 -22.5 9.5t-9.5 25.5q0 38 25.5 63t79.5 25q107 0 107 -96q0 -31 -14.5 -46t-39.5 -28q-2 -1 -11.5 -6.5t-14 -11t-4.5 -12.5h-18q0 10 3.5 16.5z" />
    <glyph glyph-name="uni1EA3" unicode="&#x1ea3;" horiz-adv-x="567" 
d="M87 23.5q-41 33.5 -41 99.5q0 94 79 133.5t183 39.5h67v77q0 52 -11.5 80.5t-35.5 40t-65 11.5q-47 0 -70 -18.5t-23 -49.5q0 -29 28 -38q0 -25 -19 -44t-45 -19q-28 0 -45 15.5t-17 47.5q0 58 58 93t145 35q200 0 200 -174v-286q0 -22 9.5 -33.5t27.5 -11.5
q17 0 27 11.5t10 31.5h21q0 -35 -22.5 -55t-62.5 -20q-46 0 -77.5 26.5t-32.5 82.5q-24 -51 -73.5 -80t-109.5 -29q-64 0 -105 33.5zM302.5 50q28.5 16 48.5 46.5t24 73.5v104h-67q-82 0 -122.5 -36.5t-40.5 -102.5q0 -55 26 -78t76 -23q27 0 55.5 16zM280.5 581.5
q3.5 6.5 11.5 16.5q12 13 18.5 27.5t6.5 41.5q0 43 -12 59.5t-34 16.5q-21 0 -36.5 -11t-15.5 -28q0 -21 21 -32q0 -14 -13.5 -22t-27.5 -8q-13 0 -22.5 9.5t-9.5 25.5q0 38 25.5 63t79.5 25q107 0 107 -96q0 -31 -14.5 -46t-39.5 -28q-2 -1 -11.5 -6.5t-14 -11t-4.5 -12.5
h-18q0 10 3.5 16.5z" />
    <glyph glyph-name="uni1EA4" unicode="&#x1ea4;" horiz-adv-x="719" 
d="M-28 0v21l98 40l289 759h16l273 -784l92 -15v-21h-294v21l82 13l-85 237h-266l-81 -210l90 -40v-21h-214zM185 292h251l-120 352zM219 827l-9 15l128 122h59l127 -122l-9 -15l-148 69zM521 904l132 114q14 12 32 12q20 0 33.5 -14t13.5 -33q0 -15 -9.5 -27.5t-24.5 -17.5
l-167 -51z" />
    <glyph glyph-name="uni1EA5" unicode="&#x1ea5;" horiz-adv-x="567" 
d="M87 23.5q-41 33.5 -41 99.5q0 94 79 133.5t183 39.5h67v77q0 52 -11.5 80.5t-35.5 40t-65 11.5q-47 0 -70 -18.5t-23 -49.5q0 -29 28 -38q0 -25 -19 -44t-45 -19q-28 0 -45 15.5t-17 47.5q0 58 58 93t145 35q200 0 200 -174v-286q0 -22 9.5 -33.5t27.5 -11.5
q17 0 27 11.5t10 31.5h21q0 -35 -22.5 -55t-62.5 -20q-46 0 -77.5 26.5t-32.5 82.5q-24 -51 -73.5 -80t-109.5 -29q-64 0 -105 33.5zM302.5 50q28.5 16 48.5 46.5t24 73.5v104h-67q-82 0 -122.5 -36.5t-40.5 -102.5q0 -55 26 -78t76 -23q27 0 55.5 16zM156 589l-21 15
l120 155h39l120 -155l-21 -15l-119 94zM399 696l74 158q5 12 17 20t26 8q19 0 33 -14t14 -33q0 -23 -17 -35l-131 -116z" />
    <glyph glyph-name="uni1EA6" unicode="&#x1ea6;" horiz-adv-x="719" 
d="M-28 0v21l98 40l289 759h16l273 -784l92 -15v-21h-294v21l82 13l-85 237h-266l-81 -210l90 -40v-21h-214zM185 292h251l-120 352zM219 827l-9 15l128 122h59l127 -122l-9 -15l-148 69zM349 1022q-15 5 -25 17.5t-10 27.5q0 18 14 32.5t33 14.5t33 -12l131 -114l-9 -17z
" />
    <glyph glyph-name="uni1EA7" unicode="&#x1ea7;" horiz-adv-x="567" 
d="M87 23.5q-41 33.5 -41 99.5q0 94 79 133.5t183 39.5h67v77q0 52 -11.5 80.5t-35.5 40t-65 11.5q-47 0 -70 -18.5t-23 -49.5q0 -29 28 -38q0 -25 -19 -44t-45 -19q-28 0 -45 15.5t-17 47.5q0 58 58 93t145 35q200 0 200 -174v-286q0 -22 9.5 -33.5t27.5 -11.5
q17 0 27 11.5t10 31.5h21q0 -35 -22.5 -55t-62.5 -20q-46 0 -77.5 26.5t-32.5 82.5q-24 -51 -73.5 -80t-109.5 -29q-64 0 -105 33.5zM302.5 50q28.5 16 48.5 46.5t24 73.5v104h-67q-82 0 -122.5 -36.5t-40.5 -102.5q0 -55 26 -78t76 -23q27 0 55.5 16zM156 589l-21 15
l120 155h39l120 -155l-21 -15l-119 94zM285 851q-17 14 -17 35q0 19 14 33t33 14q14 0 26 -8t18 -20l73 -158l-16 -12z" />
    <glyph glyph-name="uni1EA8" unicode="&#x1ea8;" horiz-adv-x="719" 
d="M-28 0v21l98 40l289 759h16l273 -784l92 -15v-21h-294v21l82 13l-85 237h-266l-81 -210l90 -40v-21h-214zM185 292h251l-120 352zM219 827l-9 15l128 122h59l127 -122l-9 -15l-148 69zM503.5 939.5q3.5 6.5 11.5 16.5q12 13 18.5 27.5t6.5 41.5q0 43 -12 59.5t-34 16.5
q-21 0 -36.5 -11t-15.5 -28q0 -21 21 -32q0 -14 -13.5 -22t-27.5 -8q-13 0 -22.5 9.5t-9.5 25.5q0 38 25.5 63t79.5 25q107 0 107 -96q0 -31 -14.5 -46t-39.5 -28q-2 -1 -11.5 -6.5t-14 -11t-4.5 -12.5h-18q0 10 3.5 16.5z" />
    <glyph glyph-name="uni1EA9" unicode="&#x1ea9;" horiz-adv-x="567" 
d="M87 23.5q-41 33.5 -41 99.5q0 94 79 133.5t183 39.5h67v77q0 52 -11.5 80.5t-35.5 40t-65 11.5q-47 0 -70 -18.5t-23 -49.5q0 -29 28 -38q0 -25 -19 -44t-45 -19q-28 0 -45 15.5t-17 47.5q0 58 58 93t145 35q200 0 200 -174v-286q0 -22 9.5 -33.5t27.5 -11.5
q17 0 27 11.5t10 31.5h21q0 -35 -22.5 -55t-62.5 -20q-46 0 -77.5 26.5t-32.5 82.5q-24 -51 -73.5 -80t-109.5 -29q-64 0 -105 33.5zM302.5 50q28.5 16 48.5 46.5t24 73.5v104h-67q-82 0 -122.5 -36.5t-40.5 -102.5q0 -55 26 -78t76 -23q27 0 55.5 16zM156 589l-21 15
l120 155h39l120 -155l-21 -15l-119 94zM409.5 736.5q3.5 6.5 11.5 16.5q12 13 18.5 27.5t6.5 41.5q0 43 -12 59.5t-34 16.5q-21 0 -36.5 -11t-15.5 -28q0 -21 21 -32q0 -14 -13.5 -22t-27.5 -8q-13 0 -22.5 9.5t-9.5 25.5q0 38 25.5 63t79.5 25q107 0 107 -96
q0 -31 -14.5 -46t-39.5 -28q-2 -1 -11.5 -6.5t-14 -11t-4.5 -12.5h-18q0 10 3.5 16.5z" />
    <glyph glyph-name="uni1EAA" unicode="&#x1eaa;" horiz-adv-x="719" 
d="M-28 0v21l98 40l289 759h16l273 -784l92 -15v-21h-294v21l82 13l-85 237h-266l-81 -210l90 -40v-21h-214zM185 292h251l-120 352zM219 827l-9 15l128 122h59l127 -122l-9 -15l-148 69zM378.5 1032q-19.5 10 -42.5 29q-22 17 -36 24.5t-31 7.5q-38 0 -56 -49l-28 4
q0 6 12.5 33.5t40 51.5t72.5 24q25 0 44.5 -10t43.5 -29q20 -16 34.5 -24t31.5 -8q40 0 56 49l28 -4q0 -6 -12.5 -33.5t-40 -51.5t-72.5 -24q-25 0 -44.5 10z" />
    <glyph glyph-name="uni1EAB" unicode="&#x1eab;" horiz-adv-x="567" 
d="M87 23.5q-41 33.5 -41 99.5q0 94 79 133.5t183 39.5h67v77q0 52 -11.5 80.5t-35.5 40t-65 11.5q-47 0 -70 -18.5t-23 -49.5q0 -29 28 -38q0 -25 -19 -44t-45 -19q-28 0 -45 15.5t-17 47.5q0 58 58 93t145 35q200 0 200 -174v-286q0 -22 9.5 -33.5t27.5 -11.5
q17 0 27 11.5t10 31.5h21q0 -35 -22.5 -55t-62.5 -20q-46 0 -77.5 26.5t-32.5 82.5q-24 -51 -73.5 -80t-109.5 -29q-64 0 -105 33.5zM302.5 50q28.5 16 48.5 46.5t24 73.5v104h-67q-82 0 -122.5 -36.5t-40.5 -102.5q0 -55 26 -78t76 -23q27 0 55.5 16zM156 589l-21 15
l120 155h39l120 -155l-21 -15l-119 94zM307 788q-23 10 -53 29q-26 16 -43 24t-34 8q-39 0 -57 -49l-27 4q0 6 12 33.5t40 51.5t73 24q25 0 48 -10t53 -29q26 -16 43 -24t34 -8q39 0 57 49l27 -4q0 -6 -12 -33.5t-40 -51.5t-73 -24q-25 0 -48 10z" />
    <glyph glyph-name="uni1EAC" unicode="&#x1eac;" horiz-adv-x="719" 
d="M-28 0v21l98 40l289 759h16l273 -784l92 -15v-21h-294v21l82 13l-85 237h-266l-81 -210l90 -40v-21h-214zM185 292h251l-120 352zM326 -152.5q-15 14.5 -15 34.5t15 34t35 14t34 -14t14 -34t-14 -34.5t-34 -14.5t-35 14.5zM219 827l-9 15l128 122h59l127 -122l-9 -15
l-148 69z" />
    <glyph glyph-name="uni1EAD" unicode="&#x1ead;" horiz-adv-x="567" 
d="M87 23.5q-41 33.5 -41 99.5q0 94 79 133.5t183 39.5h67v77q0 52 -11.5 80.5t-35.5 40t-65 11.5q-47 0 -70 -18.5t-23 -49.5q0 -29 28 -38q0 -25 -19 -44t-45 -19q-28 0 -45 15.5t-17 47.5q0 58 58 93t145 35q200 0 200 -174v-286q0 -22 9.5 -33.5t27.5 -11.5
q17 0 27 11.5t10 31.5h21q0 -35 -22.5 -55t-62.5 -20q-46 0 -77.5 26.5t-32.5 82.5q-24 -51 -73.5 -80t-109.5 -29q-64 0 -105 33.5zM302.5 50q28.5 16 48.5 46.5t24 73.5v104h-67q-82 0 -122.5 -36.5t-40.5 -102.5q0 -55 26 -78t76 -23q27 0 55.5 16zM250 -152.5
q-15 14.5 -15 34.5t15 34t35 14t34 -14t14 -34t-14 -34.5t-34 -14.5t-35 14.5zM156 589l-21 15l120 155h39l120 -155l-21 -15l-119 94z" />
    <glyph glyph-name="uni1EAE" unicode="&#x1eae;" horiz-adv-x="719" 
d="M-28 0v21l98 40l289 759h16l273 -784l92 -15v-21h-294v21l82 13l-85 237h-266l-81 -210l90 -40v-21h-214zM185 292h251l-120 352zM280 904.5q-34 33.5 -44 86.5h34q11 -29 35.5 -46t61.5 -17q38 0 62.5 17t34.5 46h34q-12 -54 -45.5 -87t-87.5 -33q-51 0 -85 33.5z
M276 1021l132 114q14 12 32 12q20 0 33.5 -14t13.5 -33q0 -15 -9.5 -27.5t-24.5 -17.5l-167 -51z" />
    <glyph glyph-name="uni1EAF" unicode="&#x1eaf;" horiz-adv-x="567" 
d="M87 23.5q-41 33.5 -41 99.5q0 94 79 133.5t183 39.5h67v77q0 52 -11.5 80.5t-35.5 40t-65 11.5q-47 0 -70 -18.5t-23 -49.5q0 -29 28 -38q0 -25 -19 -44t-45 -19q-28 0 -45 15.5t-17 47.5q0 58 58 93t145 35q200 0 200 -174v-286q0 -22 9.5 -33.5t27.5 -11.5
q17 0 27 11.5t10 31.5h21q0 -35 -22.5 -55t-62.5 -20q-46 0 -77.5 26.5t-32.5 82.5q-24 -51 -73.5 -80t-109.5 -29q-64 0 -105 33.5zM302.5 50q28.5 16 48.5 46.5t24 73.5v104h-67q-82 0 -122.5 -36.5t-40.5 -102.5q0 -55 26 -78t76 -23q27 0 55.5 16zM186 622.5
q-34 33.5 -44 86.5h34q11 -29 35.5 -46t61.5 -17q38 0 62.5 17t34.5 46h34q-12 -54 -45.5 -87t-87.5 -33q-51 0 -85 33.5zM256 737l74 158q5 12 17 20t26 8q19 0 33 -14t14 -33q0 -23 -17 -35l-131 -116z" />
    <glyph glyph-name="uni1EB0" unicode="&#x1eb0;" horiz-adv-x="719" 
d="M-28 0v21l98 40l289 759h16l273 -784l92 -15v-21h-294v21l82 13l-85 237h-266l-81 -210l90 -40v-21h-214zM185 292h251l-120 352zM280 904.5q-34 33.5 -44 86.5h34q11 -29 35.5 -46t61.5 -17q38 0 62.5 17t34.5 46h34q-12 -54 -45.5 -87t-87.5 -33q-51 0 -85 33.5z
M284 1055q-15 5 -25 17.5t-10 27.5q0 18 14 32.5t33 14.5t33 -12l131 -114l-9 -17z" />
    <glyph glyph-name="uni1EB1" unicode="&#x1eb1;" horiz-adv-x="567" 
d="M87 23.5q-41 33.5 -41 99.5q0 94 79 133.5t183 39.5h67v77q0 52 -11.5 80.5t-35.5 40t-65 11.5q-47 0 -70 -18.5t-23 -49.5q0 -29 28 -38q0 -25 -19 -44t-45 -19q-28 0 -45 15.5t-17 47.5q0 58 58 93t145 35q200 0 200 -174v-286q0 -22 9.5 -33.5t27.5 -11.5
q17 0 27 11.5t10 31.5h21q0 -35 -22.5 -55t-62.5 -20q-46 0 -77.5 26.5t-32.5 82.5q-24 -51 -73.5 -80t-109.5 -29q-64 0 -105 33.5zM302.5 50q28.5 16 48.5 46.5t24 73.5v104h-67q-82 0 -122.5 -36.5t-40.5 -102.5q0 -55 26 -78t76 -23q27 0 55.5 16zM186 622.5
q-34 33.5 -44 86.5h34q11 -29 35.5 -46t61.5 -17q38 0 62.5 17t34.5 46h34q-12 -54 -45.5 -87t-87.5 -33q-51 0 -85 33.5zM146 841q-17 14 -17 35q0 19 14 33t33 14q14 0 26 -8t18 -20l73 -158l-16 -12z" />
    <glyph glyph-name="uni1EB2" unicode="&#x1eb2;" horiz-adv-x="719" 
d="M-28 0v21l98 40l289 759h16l273 -784l92 -15v-21h-294v21l82 13l-85 237h-266l-81 -210l90 -40v-21h-214zM185 292h251l-120 352zM280 904.5q-34 33.5 -44 86.5h34q11 -29 35.5 -46t61.5 -17q38 0 62.5 17t34.5 46h34q-12 -54 -45.5 -87t-87.5 -33q-51 0 -85 33.5z
M374.5 1017.5q3.5 6.5 11.5 16.5q12 13 18.5 27.5t6.5 41.5q0 43 -12 59.5t-34 16.5q-21 0 -36.5 -11t-15.5 -28q0 -21 21 -32q0 -14 -13.5 -22t-27.5 -8q-13 0 -22.5 9.5t-9.5 25.5q0 38 25.5 63t79.5 25q107 0 107 -96q0 -31 -14.5 -46t-39.5 -28q-2 -1 -11.5 -6.5
t-14 -11t-4.5 -12.5h-18q0 10 3.5 16.5z" />
    <glyph glyph-name="uni1EB3" unicode="&#x1eb3;" horiz-adv-x="567" 
d="M87 23.5q-41 33.5 -41 99.5q0 94 79 133.5t183 39.5h67v77q0 52 -11.5 80.5t-35.5 40t-65 11.5q-47 0 -70 -18.5t-23 -49.5q0 -29 28 -38q0 -25 -19 -44t-45 -19q-28 0 -45 15.5t-17 47.5q0 58 58 93t145 35q200 0 200 -174v-286q0 -22 9.5 -33.5t27.5 -11.5
q17 0 27 11.5t10 31.5h21q0 -35 -22.5 -55t-62.5 -20q-46 0 -77.5 26.5t-32.5 82.5q-24 -51 -73.5 -80t-109.5 -29q-64 0 -105 33.5zM302.5 50q28.5 16 48.5 46.5t24 73.5v104h-67q-82 0 -122.5 -36.5t-40.5 -102.5q0 -55 26 -78t76 -23q27 0 55.5 16zM186 622.5
q-34 33.5 -44 86.5h34q11 -29 35.5 -46t61.5 -17q38 0 62.5 17t34.5 46h34q-12 -54 -45.5 -87t-87.5 -33q-51 0 -85 33.5zM280.5 735.5q3.5 6.5 11.5 16.5q12 13 18.5 27.5t6.5 41.5q0 43 -12 59.5t-34 16.5q-21 0 -36.5 -11t-15.5 -28q0 -21 21 -32q0 -14 -13.5 -22
t-27.5 -8q-13 0 -22.5 9.5t-9.5 25.5q0 38 25.5 63t79.5 25q107 0 107 -96q0 -31 -14.5 -46t-39.5 -28q-2 -1 -11.5 -6.5t-14 -11t-4.5 -12.5h-18q0 10 3.5 16.5z" />
    <glyph glyph-name="uni1EB4" unicode="&#x1eb4;" horiz-adv-x="719" 
d="M-28 0v21l98 40l289 759h16l273 -784l92 -15v-21h-294v21l82 13l-85 237h-266l-81 -210l90 -40v-21h-214zM185 292h251l-120 352zM280 904.5q-34 33.5 -44 86.5h34q11 -29 35.5 -46t61.5 -17q38 0 62.5 17t34.5 46h34q-12 -54 -45.5 -87t-87.5 -33q-51 0 -85 33.5z
M378.5 1022q-19.5 10 -42.5 29q-22 17 -36 24.5t-31 7.5q-38 0 -56 -49l-28 4q0 6 12.5 33.5t40 51.5t72.5 24q25 0 44.5 -10t43.5 -29q20 -16 34.5 -24t31.5 -8q40 0 56 49l28 -4q0 -6 -12.5 -33.5t-40 -51.5t-72.5 -24q-25 0 -44.5 10z" />
    <glyph glyph-name="uni1EB5" unicode="&#x1eb5;" horiz-adv-x="567" 
d="M87 23.5q-41 33.5 -41 99.5q0 94 79 133.5t183 39.5h67v77q0 52 -11.5 80.5t-35.5 40t-65 11.5q-47 0 -70 -18.5t-23 -49.5q0 -29 28 -38q0 -25 -19 -44t-45 -19q-28 0 -45 15.5t-17 47.5q0 58 58 93t145 35q200 0 200 -174v-286q0 -22 9.5 -33.5t27.5 -11.5
q17 0 27 11.5t10 31.5h21q0 -35 -22.5 -55t-62.5 -20q-46 0 -77.5 26.5t-32.5 82.5q-24 -51 -73.5 -80t-109.5 -29q-64 0 -105 33.5zM302.5 50q28.5 16 48.5 46.5t24 73.5v104h-67q-82 0 -122.5 -36.5t-40.5 -102.5q0 -55 26 -78t76 -23q27 0 55.5 16zM186 622.5
q-34 33.5 -44 86.5h34q11 -29 35.5 -46t61.5 -17q38 0 62.5 17t34.5 46h34q-12 -54 -45.5 -87t-87.5 -33q-51 0 -85 33.5zM294 766q-23 10 -53 29q-26 16 -43 24t-34 8q-39 0 -57 -49l-27 4q0 6 12 33.5t40 51.5t73 24q25 0 48 -10t53 -29q26 -16 43 -24t34 -8q39 0 57 49
l27 -4q0 -6 -12 -33.5t-40 -51.5t-73 -24q-25 0 -48 10z" />
    <glyph glyph-name="uni1EB6" unicode="&#x1eb6;" horiz-adv-x="719" 
d="M-28 0v21l98 40l289 759h16l273 -784l92 -15v-21h-294v21l82 13l-85 237h-266l-81 -210l90 -40v-21h-214zM185 292h251l-120 352zM326 -152.5q-15 14.5 -15 34.5t15 34t35 14t34 -14t14 -34t-14 -34.5t-34 -14.5t-35 14.5zM280 904.5q-34 33.5 -44 86.5h34
q11 -29 35.5 -46t61.5 -17q38 0 62.5 17t34.5 46h34q-12 -54 -45.5 -87t-87.5 -33q-51 0 -85 33.5z" />
    <glyph glyph-name="uni1EB7" unicode="&#x1eb7;" horiz-adv-x="567" 
d="M87 23.5q-41 33.5 -41 99.5q0 94 79 133.5t183 39.5h67v77q0 52 -11.5 80.5t-35.5 40t-65 11.5q-47 0 -70 -18.5t-23 -49.5q0 -29 28 -38q0 -25 -19 -44t-45 -19q-28 0 -45 15.5t-17 47.5q0 58 58 93t145 35q200 0 200 -174v-286q0 -22 9.5 -33.5t27.5 -11.5
q17 0 27 11.5t10 31.5h21q0 -35 -22.5 -55t-62.5 -20q-46 0 -77.5 26.5t-32.5 82.5q-24 -51 -73.5 -80t-109.5 -29q-64 0 -105 33.5zM302.5 50q28.5 16 48.5 46.5t24 73.5v104h-67q-82 0 -122.5 -36.5t-40.5 -102.5q0 -55 26 -78t76 -23q27 0 55.5 16zM250 -152.5
q-15 14.5 -15 34.5t15 34t35 14t34 -14t14 -34t-14 -34.5t-34 -14.5t-35 14.5zM186 622.5q-34 33.5 -44 86.5h34q11 -29 35.5 -46t61.5 -17q38 0 62.5 17t34.5 46h34q-12 -54 -45.5 -87t-87.5 -33q-51 0 -85 33.5z" />
    <glyph glyph-name="uni1EB8" unicode="&#x1eb8;" horiz-adv-x="721" 
d="M40 0v21l92 15v728l-92 14v22h602v-229h-27l-77 204h-296v-360h130l59 145h26v-316h-26l-60 147h-129v-367h314l82 220h26v-244h-624zM327 -152.5q-15 14.5 -15 34.5t15 34t35 14t34 -14t14 -34t-14 -34.5t-34 -14.5t-35 14.5z" />
    <glyph glyph-name="uni1EB9" unicode="&#x1eb9;" horiz-adv-x="561" 
d="M173 23.5q-60 33.5 -95 94.5t-35 141t34.5 140.5t93 94t130.5 33.5q63 0 113 -28t78 -77.5t29 -113.5h-368v-99q0 -88 39.5 -142.5t114.5 -54.5q69 0 122 39t65 101h23q-14 -74 -71 -118t-139 -44q-74 0 -134 33.5zM411 333q0 87 -27 129.5t-84 42.5q-67 0 -104 -47
t-42 -125h257zM247 -152.5q-15 14.5 -15 34.5t15 34t35 14t34 -14t14 -34t-14 -34.5t-34 -14.5t-35 14.5z" />
    <glyph glyph-name="uni1EBA" unicode="&#x1eba;" horiz-adv-x="721" 
d="M40 0v21l92 15v728l-92 14v22h602v-229h-27l-77 204h-296v-360h130l59 145h26v-316h-26l-60 147h-129v-367h314l82 220h26v-244h-624zM368.5 863.5q3.5 6.5 11.5 16.5q12 13 18.5 27.5t6.5 41.5q0 43 -12 59.5t-34 16.5q-21 0 -36.5 -11t-15.5 -28q0 -21 21 -32
q0 -14 -13.5 -22t-27.5 -8q-13 0 -22.5 9.5t-9.5 25.5q0 38 25.5 63t79.5 25q107 0 107 -96q0 -31 -14.5 -46t-39.5 -28q-2 -1 -11.5 -6.5t-14 -11t-4.5 -12.5h-18q0 10 3.5 16.5z" />
    <glyph glyph-name="uni1EBB" unicode="&#x1ebb;" horiz-adv-x="561" 
d="M173 23.5q-60 33.5 -95 94.5t-35 141t34.5 140.5t93 94t130.5 33.5q63 0 113 -28t78 -77.5t29 -113.5h-368v-99q0 -88 39.5 -142.5t114.5 -54.5q69 0 122 39t65 101h23q-14 -74 -71 -118t-139 -44q-74 0 -134 33.5zM411 333q0 87 -27 129.5t-84 42.5q-67 0 -104 -47
t-42 -125h257zM307.5 581.5q3.5 6.5 11.5 16.5q12 13 18.5 27.5t6.5 41.5q0 43 -12 59.5t-34 16.5q-21 0 -36.5 -11t-15.5 -28q0 -21 21 -32q0 -14 -13.5 -22t-27.5 -8q-13 0 -22.5 9.5t-9.5 25.5q0 38 25.5 63t79.5 25q107 0 107 -96q0 -31 -14.5 -46t-39.5 -28
q-2 -1 -11.5 -6.5t-14 -11t-4.5 -12.5h-18q0 10 3.5 16.5z" />
    <glyph glyph-name="uni1EBC" unicode="&#x1ebc;" horiz-adv-x="721" 
d="M40 0v21l92 15v728l-92 14v22h602v-229h-27l-77 204h-296v-360h130l59 145h26v-316h-26l-60 147h-129v-367h314l82 220h26v-244h-624zM372.5 868q-19.5 10 -42.5 29q-22 17 -36 24.5t-31 7.5q-38 0 -56 -49l-28 4q0 6 12.5 33.5t40 51.5t72.5 24q25 0 44.5 -10t43.5 -29
q20 -16 34.5 -24t31.5 -8q40 0 56 49l28 -4q0 -6 -12.5 -33.5t-40 -51.5t-72.5 -24q-25 0 -44.5 10z" />
    <glyph glyph-name="uni1EBD" unicode="&#x1ebd;" horiz-adv-x="561" 
d="M173 23.5q-60 33.5 -95 94.5t-35 141t34.5 140.5t93 94t130.5 33.5q63 0 113 -28t78 -77.5t29 -113.5h-368v-99q0 -88 39.5 -142.5t114.5 -54.5q69 0 122 39t65 101h23q-14 -74 -71 -118t-139 -44q-74 0 -134 33.5zM411 333q0 87 -27 129.5t-84 42.5q-67 0 -104 -47
t-42 -125h257zM321 612q-23 10 -53 29q-26 16 -43 24t-34 8q-39 0 -57 -49l-27 4q0 6 12 33.5t40 51.5t73 24q25 0 48 -10t53 -29q26 -16 43 -24t34 -8q39 0 57 49l27 -4q0 -6 -12 -33.5t-40 -51.5t-73 -24q-25 0 -48 10z" />
    <glyph glyph-name="uni1EBE" unicode="&#x1ebe;" horiz-adv-x="721" 
d="M40 0v21l92 15v728l-92 14v22h602v-229h-27l-77 204h-296v-360h130l59 145h26v-316h-26l-60 147h-129v-367h314l82 220h26v-244h-624zM213 827l-9 15l128 122h59l127 -122l-9 -15l-148 69zM515 904l132 114q14 12 32 12q20 0 33.5 -14t13.5 -33q0 -15 -9.5 -27.5
t-24.5 -17.5l-167 -51z" />
    <glyph glyph-name="uni1EBF" unicode="&#x1ebf;" horiz-adv-x="561" 
d="M173 23.5q-60 33.5 -95 94.5t-35 141t34.5 140.5t93 94t130.5 33.5q63 0 113 -28t78 -77.5t29 -113.5h-368v-99q0 -88 39.5 -142.5t114.5 -54.5q69 0 122 39t65 101h23q-14 -74 -71 -118t-139 -44q-74 0 -134 33.5zM411 333q0 87 -27 129.5t-84 42.5q-67 0 -104 -47
t-42 -125h257zM183 589l-21 15l120 155h39l120 -155l-21 -15l-119 94zM426 696l74 158q5 12 17 20t26 8q19 0 33 -14t14 -33q0 -23 -17 -35l-131 -116z" />
    <glyph glyph-name="uni1EC0" unicode="&#x1ec0;" horiz-adv-x="721" 
d="M40 0v21l92 15v728l-92 14v22h602v-229h-27l-77 204h-296v-360h130l59 145h26v-316h-26l-60 147h-129v-367h314l82 220h26v-244h-624zM213 827l-9 15l128 122h59l127 -122l-9 -15l-148 69zM343 1022q-15 5 -25 17.5t-10 27.5q0 18 14 32.5t33 14.5t33 -12l131 -114
l-9 -17z" />
    <glyph glyph-name="uni1EC1" unicode="&#x1ec1;" horiz-adv-x="561" 
d="M173 23.5q-60 33.5 -95 94.5t-35 141t34.5 140.5t93 94t130.5 33.5q63 0 113 -28t78 -77.5t29 -113.5h-368v-99q0 -88 39.5 -142.5t114.5 -54.5q69 0 122 39t65 101h23q-14 -74 -71 -118t-139 -44q-74 0 -134 33.5zM411 333q0 87 -27 129.5t-84 42.5q-67 0 -104 -47
t-42 -125h257zM183 589l-21 15l120 155h39l120 -155l-21 -15l-119 94zM312 851q-17 14 -17 35q0 19 14 33t33 14q14 0 26 -8t18 -20l73 -158l-16 -12z" />
    <glyph glyph-name="uni1EC2" unicode="&#x1ec2;" horiz-adv-x="721" 
d="M40 0v21l92 15v728l-92 14v22h602v-229h-27l-77 204h-296v-360h130l59 145h26v-316h-26l-60 147h-129v-367h314l82 220h26v-244h-624zM213 827l-9 15l128 122h59l127 -122l-9 -15l-148 69zM497.5 939.5q3.5 6.5 11.5 16.5q12 13 18.5 27.5t6.5 41.5q0 43 -12 59.5
t-34 16.5q-21 0 -36.5 -11t-15.5 -28q0 -21 21 -32q0 -14 -13.5 -22t-27.5 -8q-13 0 -22.5 9.5t-9.5 25.5q0 38 25.5 63t79.5 25q107 0 107 -96q0 -31 -14.5 -46t-39.5 -28q-2 -1 -11.5 -6.5t-14 -11t-4.5 -12.5h-18q0 10 3.5 16.5z" />
    <glyph glyph-name="uni1EC3" unicode="&#x1ec3;" horiz-adv-x="561" 
d="M173 23.5q-60 33.5 -95 94.5t-35 141t34.5 140.5t93 94t130.5 33.5q63 0 113 -28t78 -77.5t29 -113.5h-368v-99q0 -88 39.5 -142.5t114.5 -54.5q69 0 122 39t65 101h23q-14 -74 -71 -118t-139 -44q-74 0 -134 33.5zM411 333q0 87 -27 129.5t-84 42.5q-67 0 -104 -47
t-42 -125h257zM183 589l-21 15l120 155h39l120 -155l-21 -15l-119 94zM436.5 736.5q3.5 6.5 11.5 16.5q12 13 18.5 27.5t6.5 41.5q0 43 -12 59.5t-34 16.5q-21 0 -36.5 -11t-15.5 -28q0 -21 21 -32q0 -14 -13.5 -22t-27.5 -8q-13 0 -22.5 9.5t-9.5 25.5q0 38 25.5 63
t79.5 25q107 0 107 -96q0 -31 -14.5 -46t-39.5 -28q-2 -1 -11.5 -6.5t-14 -11t-4.5 -12.5h-18q0 10 3.5 16.5z" />
    <glyph glyph-name="uni1EC4" unicode="&#x1ec4;" horiz-adv-x="721" 
d="M40 0v21l92 15v728l-92 14v22h602v-229h-27l-77 204h-296v-360h130l59 145h26v-316h-26l-60 147h-129v-367h314l82 220h26v-244h-624zM213 827l-9 15l128 122h59l127 -122l-9 -15l-148 69zM372.5 1032q-19.5 10 -42.5 29q-22 17 -36 24.5t-31 7.5q-38 0 -56 -49l-28 4
q0 6 12.5 33.5t40 51.5t72.5 24q25 0 44.5 -10t43.5 -29q20 -16 34.5 -24t31.5 -8q40 0 56 49l28 -4q0 -6 -12.5 -33.5t-40 -51.5t-72.5 -24q-25 0 -44.5 10z" />
    <glyph glyph-name="uni1EC5" unicode="&#x1ec5;" horiz-adv-x="561" 
d="M173 23.5q-60 33.5 -95 94.5t-35 141t34.5 140.5t93 94t130.5 33.5q63 0 113 -28t78 -77.5t29 -113.5h-368v-99q0 -88 39.5 -142.5t114.5 -54.5q69 0 122 39t65 101h23q-14 -74 -71 -118t-139 -44q-74 0 -134 33.5zM411 333q0 87 -27 129.5t-84 42.5q-67 0 -104 -47
t-42 -125h257zM183 589l-21 15l120 155h39l120 -155l-21 -15l-119 94zM334 788q-23 10 -53 29q-26 16 -43 24t-34 8q-39 0 -57 -49l-27 4q0 6 12 33.5t40 51.5t73 24q25 0 48 -10t53 -29q26 -16 43 -24t34 -8q39 0 57 49l27 -4q0 -6 -12 -33.5t-40 -51.5t-73 -24
q-25 0 -48 10z" />
    <glyph glyph-name="uni1EC6" unicode="&#x1ec6;" horiz-adv-x="721" 
d="M40 0v21l92 15v728l-92 14v22h602v-229h-27l-77 204h-296v-360h130l59 145h26v-316h-26l-60 147h-129v-367h314l82 220h26v-244h-624zM327 -152.5q-15 14.5 -15 34.5t15 34t35 14t34 -14t14 -34t-14 -34.5t-34 -14.5t-35 14.5zM213 827l-9 15l128 122h59l127 -122l-9 -15
l-148 69z" />
    <glyph glyph-name="uni1EC7" unicode="&#x1ec7;" horiz-adv-x="561" 
d="M173 23.5q-60 33.5 -95 94.5t-35 141t34.5 140.5t93 94t130.5 33.5q63 0 113 -28t78 -77.5t29 -113.5h-368v-99q0 -88 39.5 -142.5t114.5 -54.5q69 0 122 39t65 101h23q-14 -74 -71 -118t-139 -44q-74 0 -134 33.5zM411 333q0 87 -27 129.5t-84 42.5q-67 0 -104 -47
t-42 -125h257zM247 -152.5q-15 14.5 -15 34.5t15 34t35 14t34 -14t14 -34t-14 -34.5t-34 -14.5t-35 14.5zM183 589l-21 15l120 155h39l120 -155l-21 -15l-119 94z" />
    <glyph glyph-name="uni1EC8" unicode="&#x1ec8;" horiz-adv-x="374" 
d="M40 0v21l92 15v728l-92 14v22h294v-22l-92 -14v-728l92 -15v-21h-294zM192.5 863.5q3.5 6.5 11.5 16.5q12 13 18.5 27.5t6.5 41.5q0 43 -12 59.5t-34 16.5q-21 0 -36.5 -11t-15.5 -28q0 -21 21 -32q0 -14 -13.5 -22t-27.5 -8q-13 0 -22.5 9.5t-9.5 25.5q0 38 25.5 63
t79.5 25q107 0 107 -96q0 -31 -14.5 -46t-39.5 -28q-2 -1 -11.5 -6.5t-14 -11t-4.5 -12.5h-18q0 10 3.5 16.5z" />
    <glyph glyph-name="uni1EC9" unicode="&#x1ec9;" horiz-adv-x="289" 
d="M28 0v20l70 10v457l-70 10v20h170v-487l70 -10v-20h-240zM144.5 581.5q3.5 6.5 11.5 16.5q12 13 18.5 27.5t6.5 41.5q0 43 -12 59.5t-34 16.5q-21 0 -36.5 -11t-15.5 -28q0 -21 21 -32q0 -14 -13.5 -22t-27.5 -8q-13 0 -22.5 9.5t-9.5 25.5q0 38 25.5 63t79.5 25
q107 0 107 -96q0 -31 -14.5 -46t-39.5 -28q-2 -1 -11.5 -6.5t-14 -11t-4.5 -12.5h-18q0 10 3.5 16.5z" />
    <glyph glyph-name="uni1ECA" unicode="&#x1eca;" horiz-adv-x="374" 
d="M40 0v21l92 15v728l-92 14v22h294v-22l-92 -14v-728l92 -15v-21h-294zM153 -152.5q-15 14.5 -15 34.5t15 34t35 14t34 -14t14 -34t-14 -34.5t-34 -14.5t-35 14.5z" />
    <glyph glyph-name="uni1ECB" unicode="&#x1ecb;" horiz-adv-x="289" 
d="M86 653.5q-20 19.5 -20 47.5t19.5 47t48.5 19q27 0 46 -19t19 -47t-19 -47.5t-46 -19.5q-28 0 -48 19.5zM28 0v20l70 10v457l-70 10v20h170v-487l70 -10v-20h-240zM111 -152.5q-15 14.5 -15 34.5t15 34t35 14t34 -14t14 -34t-14 -34.5t-34 -14.5t-35 14.5z" />
    <glyph glyph-name="uni1ECC" unicode="&#x1ecc;" horiz-adv-x="862" 
d="M236 33q-86 53 -134 148.5t-48 218.5t48 218.5t134 148.5t195 53t195 -53t134 -148.5t48 -218.5t-48 -218.5t-134 -148.5t-195 -53t-195 53zM560.5 41q57.5 38 90.5 110.5t33 171.5v154q0 99 -33 171.5t-90.5 110.5t-129.5 38q-73 0 -130 -38t-90 -110.5t-33 -171.5v-154
q0 -99 33 -171.5t90 -110.5t130 -38q72 0 129.5 38zM397 -152.5q-15 14.5 -15 34.5t15 34t35 14t34 -14t14 -34t-14 -34.5t-34 -14.5t-35 14.5z" />
    <glyph glyph-name="uni1ECD" unicode="&#x1ecd;" horiz-adv-x="604" 
d="M171 23.5q-59 33.5 -93.5 95t-34.5 140.5t34.5 140t93.5 94.5t131 33.5t131 -33.5t93.5 -94.5t34.5 -140t-34.5 -140.5t-93.5 -95t-131 -33.5t-131 33.5zM413.5 66q37.5 54 37.5 143v100q0 89 -37.5 142.5t-111.5 53.5t-111.5 -53.5t-37.5 -142.5v-100q0 -89 37.5 -143
t111.5 -54t111.5 54zM268 -152.5q-15 14.5 -15 34.5t15 34t35 14t34 -14t14 -34t-14 -34.5t-34 -14.5t-35 14.5z" />
    <glyph glyph-name="uni1ECE" unicode="&#x1ece;" horiz-adv-x="862" 
d="M236 33q-86 53 -134 148.5t-48 218.5t48 218.5t134 148.5t195 53t195 -53t134 -148.5t48 -218.5t-48 -218.5t-134 -148.5t-195 -53t-195 53zM560.5 41q57.5 38 90.5 110.5t33 171.5v154q0 99 -33 171.5t-90.5 110.5t-129.5 38q-73 0 -130 -38t-90 -110.5t-33 -171.5v-154
q0 -99 33 -171.5t90 -110.5t130 -38q72 0 129.5 38zM438.5 863.5q3.5 6.5 11.5 16.5q12 13 18.5 27.5t6.5 41.5q0 43 -12 59.5t-34 16.5q-21 0 -36.5 -11t-15.5 -28q0 -21 21 -32q0 -14 -13.5 -22t-27.5 -8q-13 0 -22.5 9.5t-9.5 25.5q0 38 25.5 63t79.5 25q107 0 107 -96
q0 -31 -14.5 -46t-39.5 -28q-2 -1 -11.5 -6.5t-14 -11t-4.5 -12.5h-18q0 10 3.5 16.5z" />
    <glyph glyph-name="uni1ECF" unicode="&#x1ecf;" horiz-adv-x="604" 
d="M171 23.5q-59 33.5 -93.5 95t-34.5 140.5t34.5 140t93.5 94.5t131 33.5t131 -33.5t93.5 -94.5t34.5 -140t-34.5 -140.5t-93.5 -95t-131 -33.5t-131 33.5zM413.5 66q37.5 54 37.5 143v100q0 89 -37.5 142.5t-111.5 53.5t-111.5 -53.5t-37.5 -142.5v-100q0 -89 37.5 -143
t111.5 -54t111.5 54zM309.5 581.5q3.5 6.5 11.5 16.5q12 13 18.5 27.5t6.5 41.5q0 43 -12 59.5t-34 16.5q-21 0 -36.5 -11t-15.5 -28q0 -21 21 -32q0 -14 -13.5 -22t-27.5 -8q-13 0 -22.5 9.5t-9.5 25.5q0 38 25.5 63t79.5 25q107 0 107 -96q0 -31 -14.5 -46t-39.5 -28
q-2 -1 -11.5 -6.5t-14 -11t-4.5 -12.5h-18q0 10 3.5 16.5z" />
    <glyph glyph-name="uni1ED0" unicode="&#x1ed0;" horiz-adv-x="862" 
d="M236 33q-86 53 -134 148.5t-48 218.5t48 218.5t134 148.5t195 53t195 -53t134 -148.5t48 -218.5t-48 -218.5t-134 -148.5t-195 -53t-195 53zM560.5 41q57.5 38 90.5 110.5t33 171.5v154q0 99 -33 171.5t-90.5 110.5t-129.5 38q-73 0 -130 -38t-90 -110.5t-33 -171.5v-154
q0 -99 33 -171.5t90 -110.5t130 -38q72 0 129.5 38zM283 827l-9 15l128 122h59l127 -122l-9 -15l-148 69zM585 904l132 114q14 12 32 12q20 0 33.5 -14t13.5 -33q0 -15 -9.5 -27.5t-24.5 -17.5l-167 -51z" />
    <glyph glyph-name="uni1ED1" unicode="&#x1ed1;" horiz-adv-x="604" 
d="M171 23.5q-59 33.5 -93.5 95t-34.5 140.5t34.5 140t93.5 94.5t131 33.5t131 -33.5t93.5 -94.5t34.5 -140t-34.5 -140.5t-93.5 -95t-131 -33.5t-131 33.5zM413.5 66q37.5 54 37.5 143v100q0 89 -37.5 142.5t-111.5 53.5t-111.5 -53.5t-37.5 -142.5v-100q0 -89 37.5 -143
t111.5 -54t111.5 54zM185 589l-21 15l120 155h39l120 -155l-21 -15l-119 94zM428 696l74 158q5 12 17 20t26 8q19 0 33 -14t14 -33q0 -23 -17 -35l-131 -116z" />
    <glyph glyph-name="uni1ED2" unicode="&#x1ed2;" horiz-adv-x="862" 
d="M236 33q-86 53 -134 148.5t-48 218.5t48 218.5t134 148.5t195 53t195 -53t134 -148.5t48 -218.5t-48 -218.5t-134 -148.5t-195 -53t-195 53zM560.5 41q57.5 38 90.5 110.5t33 171.5v154q0 99 -33 171.5t-90.5 110.5t-129.5 38q-73 0 -130 -38t-90 -110.5t-33 -171.5v-154
q0 -99 33 -171.5t90 -110.5t130 -38q72 0 129.5 38zM283 827l-9 15l128 122h59l127 -122l-9 -15l-148 69zM413 1022q-15 5 -25 17.5t-10 27.5q0 18 14 32.5t33 14.5t33 -12l131 -114l-9 -17z" />
    <glyph glyph-name="uni1ED3" unicode="&#x1ed3;" horiz-adv-x="604" 
d="M171 23.5q-59 33.5 -93.5 95t-34.5 140.5t34.5 140t93.5 94.5t131 33.5t131 -33.5t93.5 -94.5t34.5 -140t-34.5 -140.5t-93.5 -95t-131 -33.5t-131 33.5zM413.5 66q37.5 54 37.5 143v100q0 89 -37.5 142.5t-111.5 53.5t-111.5 -53.5t-37.5 -142.5v-100q0 -89 37.5 -143
t111.5 -54t111.5 54zM185 589l-21 15l120 155h39l120 -155l-21 -15l-119 94zM314 851q-17 14 -17 35q0 19 14 33t33 14q14 0 26 -8t18 -20l73 -158l-16 -12z" />
    <glyph glyph-name="uni1ED4" unicode="&#x1ed4;" horiz-adv-x="862" 
d="M236 33q-86 53 -134 148.5t-48 218.5t48 218.5t134 148.5t195 53t195 -53t134 -148.5t48 -218.5t-48 -218.5t-134 -148.5t-195 -53t-195 53zM560.5 41q57.5 38 90.5 110.5t33 171.5v154q0 99 -33 171.5t-90.5 110.5t-129.5 38q-73 0 -130 -38t-90 -110.5t-33 -171.5v-154
q0 -99 33 -171.5t90 -110.5t130 -38q72 0 129.5 38zM283 827l-9 15l128 122h59l127 -122l-9 -15l-148 69zM567.5 939.5q3.5 6.5 11.5 16.5q12 13 18.5 27.5t6.5 41.5q0 43 -12 59.5t-34 16.5q-21 0 -36.5 -11t-15.5 -28q0 -21 21 -32q0 -14 -13.5 -22t-27.5 -8
q-13 0 -22.5 9.5t-9.5 25.5q0 38 25.5 63t79.5 25q107 0 107 -96q0 -31 -14.5 -46t-39.5 -28q-2 -1 -11.5 -6.5t-14 -11t-4.5 -12.5h-18q0 10 3.5 16.5z" />
    <glyph glyph-name="uni1ED5" unicode="&#x1ed5;" horiz-adv-x="604" 
d="M171 23.5q-59 33.5 -93.5 95t-34.5 140.5t34.5 140t93.5 94.5t131 33.5t131 -33.5t93.5 -94.5t34.5 -140t-34.5 -140.5t-93.5 -95t-131 -33.5t-131 33.5zM413.5 66q37.5 54 37.5 143v100q0 89 -37.5 142.5t-111.5 53.5t-111.5 -53.5t-37.5 -142.5v-100q0 -89 37.5 -143
t111.5 -54t111.5 54zM185 589l-21 15l120 155h39l120 -155l-21 -15l-119 94zM438.5 736.5q3.5 6.5 11.5 16.5q12 13 18.5 27.5t6.5 41.5q0 43 -12 59.5t-34 16.5q-21 0 -36.5 -11t-15.5 -28q0 -21 21 -32q0 -14 -13.5 -22t-27.5 -8q-13 0 -22.5 9.5t-9.5 25.5q0 38 25.5 63
t79.5 25q107 0 107 -96q0 -31 -14.5 -46t-39.5 -28q-2 -1 -11.5 -6.5t-14 -11t-4.5 -12.5h-18q0 10 3.5 16.5z" />
    <glyph glyph-name="uni1ED6" unicode="&#x1ed6;" horiz-adv-x="862" 
d="M236 33q-86 53 -134 148.5t-48 218.5t48 218.5t134 148.5t195 53t195 -53t134 -148.5t48 -218.5t-48 -218.5t-134 -148.5t-195 -53t-195 53zM560.5 41q57.5 38 90.5 110.5t33 171.5v154q0 99 -33 171.5t-90.5 110.5t-129.5 38q-73 0 -130 -38t-90 -110.5t-33 -171.5v-154
q0 -99 33 -171.5t90 -110.5t130 -38q72 0 129.5 38zM283 827l-9 15l128 122h59l127 -122l-9 -15l-148 69zM442.5 1032q-19.5 10 -42.5 29q-22 17 -36 24.5t-31 7.5q-38 0 -56 -49l-28 4q0 6 12.5 33.5t40 51.5t72.5 24q25 0 44.5 -10t43.5 -29q20 -16 34.5 -24t31.5 -8
q40 0 56 49l28 -4q0 -6 -12.5 -33.5t-40 -51.5t-72.5 -24q-25 0 -44.5 10z" />
    <glyph glyph-name="uni1ED7" unicode="&#x1ed7;" horiz-adv-x="604" 
d="M171 23.5q-59 33.5 -93.5 95t-34.5 140.5t34.5 140t93.5 94.5t131 33.5t131 -33.5t93.5 -94.5t34.5 -140t-34.5 -140.5t-93.5 -95t-131 -33.5t-131 33.5zM413.5 66q37.5 54 37.5 143v100q0 89 -37.5 142.5t-111.5 53.5t-111.5 -53.5t-37.5 -142.5v-100q0 -89 37.5 -143
t111.5 -54t111.5 54zM185 589l-21 15l120 155h39l120 -155l-21 -15l-119 94zM336 788q-23 10 -53 29q-26 16 -43 24t-34 8q-39 0 -57 -49l-27 4q0 6 12 33.5t40 51.5t73 24q25 0 48 -10t53 -29q26 -16 43 -24t34 -8q39 0 57 49l27 -4q0 -6 -12 -33.5t-40 -51.5t-73 -24
q-25 0 -48 10z" />
    <glyph glyph-name="uni1ED8" unicode="&#x1ed8;" horiz-adv-x="862" 
d="M236 33q-86 53 -134 148.5t-48 218.5t48 218.5t134 148.5t195 53t195 -53t134 -148.5t48 -218.5t-48 -218.5t-134 -148.5t-195 -53t-195 53zM560.5 41q57.5 38 90.5 110.5t33 171.5v154q0 99 -33 171.5t-90.5 110.5t-129.5 38q-73 0 -130 -38t-90 -110.5t-33 -171.5v-154
q0 -99 33 -171.5t90 -110.5t130 -38q72 0 129.5 38zM397 -152.5q-15 14.5 -15 34.5t15 34t35 14t34 -14t14 -34t-14 -34.5t-34 -14.5t-35 14.5zM283 827l-9 15l128 122h59l127 -122l-9 -15l-148 69z" />
    <glyph glyph-name="uni1ED9" unicode="&#x1ed9;" horiz-adv-x="604" 
d="M171 23.5q-59 33.5 -93.5 95t-34.5 140.5t34.5 140t93.5 94.5t131 33.5t131 -33.5t93.5 -94.5t34.5 -140t-34.5 -140.5t-93.5 -95t-131 -33.5t-131 33.5zM413.5 66q37.5 54 37.5 143v100q0 89 -37.5 142.5t-111.5 53.5t-111.5 -53.5t-37.5 -142.5v-100q0 -89 37.5 -143
t111.5 -54t111.5 54zM268 -152.5q-15 14.5 -15 34.5t15 34t35 14t34 -14t14 -34t-14 -34.5t-34 -14.5t-35 14.5zM185 589l-21 15l120 155h39l120 -155l-21 -15l-119 94z" />
    <glyph glyph-name="uni1EDA" unicode="&#x1eda;" horiz-adv-x="862" 
d="M765.5 606.5q42.5 -91.5 42.5 -206.5q0 -123 -48 -218.5t-134 -148.5t-195 -53t-195 53t-134 148.5t-48 218.5t48 218.5t134 148.5t195 53q88 0 163 -35q14 -3 26 -3q21 0 39 7t30 19q4 4 4 10q0 12 -11 27q-8 13 -8 25q0 17 15.5 29t45.5 12q26 0 39 -14t13 -36
q0 -16 -7 -32.5t-20 -29.5q-49 -48 -113 -46q76 -55 118.5 -146.5zM684 477q0 99 -33 171.5t-90.5 110.5t-129.5 38q-73 0 -130 -38t-90 -110.5t-33 -171.5v-154q0 -99 33 -171.5t90 -110.5t130 -38q72 0 129.5 38t90.5 110.5t33 171.5v154zM340 867l132 114q14 12 32 12
q20 0 33.5 -14t13.5 -33q0 -15 -9.5 -27.5t-24.5 -17.5l-167 -51z" />
    <glyph glyph-name="uni1EDB" unicode="&#x1edb;" horiz-adv-x="604" 
d="M598 602q13 -14 13 -36q0 -16 -7 -32.5t-20 -29.5q-46 -44 -103 -46q38 -36 59 -87t21 -112q0 -79 -34.5 -140.5t-93.5 -95t-131 -33.5t-131 33.5t-93.5 95t-34.5 140.5t34.5 140t93.5 94.5t131 33.5q79 0 142 -40q21 0 39 7t30 19q4 4 4 10q0 12 -11 27q-8 13 -8 25
q0 17 15.5 29t45.5 12q26 0 39 -14zM451 309q0 89 -37.5 142.5t-111.5 53.5t-111.5 -53.5t-37.5 -142.5v-100q0 -89 37.5 -143t111.5 -54t111.5 54t37.5 143v100zM285 583l74 158q5 12 17 20t26 8q19 0 33 -14t14 -33q0 -23 -17 -35l-131 -116z" />
    <glyph glyph-name="uni1EDC" unicode="&#x1edc;" horiz-adv-x="862" 
d="M765.5 606.5q42.5 -91.5 42.5 -206.5q0 -123 -48 -218.5t-134 -148.5t-195 -53t-195 53t-134 148.5t-48 218.5t48 218.5t134 148.5t195 53q88 0 163 -35q14 -3 26 -3q21 0 39 7t30 19q4 4 4 10q0 12 -11 27q-8 13 -8 25q0 17 15.5 29t45.5 12q26 0 39 -14t13 -36
q0 -16 -7 -32.5t-20 -29.5q-49 -48 -113 -46q76 -55 118.5 -146.5zM684 477q0 99 -33 171.5t-90.5 110.5t-129.5 38q-73 0 -130 -38t-90 -110.5t-33 -171.5v-154q0 -99 33 -171.5t90 -110.5t130 -38q72 0 129.5 38t90.5 110.5t33 171.5v154zM348 901q-15 5 -25 17.5
t-10 27.5q0 18 14 32.5t33 14.5t33 -12l131 -114l-9 -17z" />
    <glyph glyph-name="uni1EDD" unicode="&#x1edd;" horiz-adv-x="604" 
d="M598 602q13 -14 13 -36q0 -16 -7 -32.5t-20 -29.5q-46 -44 -103 -46q38 -36 59 -87t21 -112q0 -79 -34.5 -140.5t-93.5 -95t-131 -33.5t-131 33.5t-93.5 95t-34.5 140.5t34.5 140t93.5 94.5t131 33.5q79 0 142 -40q21 0 39 7t30 19q4 4 4 10q0 12 -11 27q-8 13 -8 25
q0 17 15.5 29t45.5 12q26 0 39 -14zM451 309q0 89 -37.5 142.5t-111.5 53.5t-111.5 -53.5t-37.5 -142.5v-100q0 -89 37.5 -143t111.5 -54t111.5 54t37.5 143v100zM175 687q-17 14 -17 35q0 19 14 33t33 14q14 0 26 -8t18 -20l73 -158l-16 -12z" />
    <glyph glyph-name="uni1EDE" unicode="&#x1ede;" horiz-adv-x="862" 
d="M765.5 606.5q42.5 -91.5 42.5 -206.5q0 -123 -48 -218.5t-134 -148.5t-195 -53t-195 53t-134 148.5t-48 218.5t48 218.5t134 148.5t195 53q88 0 163 -35q14 -3 26 -3q21 0 39 7t30 19q4 4 4 10q0 12 -11 27q-8 13 -8 25q0 17 15.5 29t45.5 12q26 0 39 -14t13 -36
q0 -16 -7 -32.5t-20 -29.5q-49 -48 -113 -46q76 -55 118.5 -146.5zM684 477q0 99 -33 171.5t-90.5 110.5t-129.5 38q-73 0 -130 -38t-90 -110.5t-33 -171.5v-154q0 -99 33 -171.5t90 -110.5t130 -38q72 0 129.5 38t90.5 110.5t33 171.5v154zM438.5 863.5q3.5 6.5 11.5 16.5
q12 13 18.5 27.5t6.5 41.5q0 43 -12 59.5t-34 16.5q-21 0 -36.5 -11t-15.5 -28q0 -21 21 -32q0 -14 -13.5 -22t-27.5 -8q-13 0 -22.5 9.5t-9.5 25.5q0 38 25.5 63t79.5 25q107 0 107 -96q0 -31 -14.5 -46t-39.5 -28q-2 -1 -11.5 -6.5t-14 -11t-4.5 -12.5h-18q0 10 3.5 16.5z
" />
    <glyph glyph-name="uni1EDF" unicode="&#x1edf;" horiz-adv-x="604" 
d="M598 602q13 -14 13 -36q0 -16 -7 -32.5t-20 -29.5q-46 -44 -103 -46q38 -36 59 -87t21 -112q0 -79 -34.5 -140.5t-93.5 -95t-131 -33.5t-131 33.5t-93.5 95t-34.5 140.5t34.5 140t93.5 94.5t131 33.5q79 0 142 -40q21 0 39 7t30 19q4 4 4 10q0 12 -11 27q-8 13 -8 25
q0 17 15.5 29t45.5 12q26 0 39 -14zM451 309q0 89 -37.5 142.5t-111.5 53.5t-111.5 -53.5t-37.5 -142.5v-100q0 -89 37.5 -143t111.5 -54t111.5 54t37.5 143v100zM309.5 581.5q3.5 6.5 11.5 16.5q12 13 18.5 27.5t6.5 41.5q0 43 -12 59.5t-34 16.5q-21 0 -36.5 -11
t-15.5 -28q0 -21 21 -32q0 -14 -13.5 -22t-27.5 -8q-13 0 -22.5 9.5t-9.5 25.5q0 38 25.5 63t79.5 25q107 0 107 -96q0 -31 -14.5 -46t-39.5 -28q-2 -1 -11.5 -6.5t-14 -11t-4.5 -12.5h-18q0 10 3.5 16.5z" />
    <glyph glyph-name="uni1EE0" unicode="&#x1ee0;" horiz-adv-x="862" 
d="M765.5 606.5q42.5 -91.5 42.5 -206.5q0 -123 -48 -218.5t-134 -148.5t-195 -53t-195 53t-134 148.5t-48 218.5t48 218.5t134 148.5t195 53q88 0 163 -35q14 -3 26 -3q21 0 39 7t30 19q4 4 4 10q0 12 -11 27q-8 13 -8 25q0 17 15.5 29t45.5 12q26 0 39 -14t13 -36
q0 -16 -7 -32.5t-20 -29.5q-49 -48 -113 -46q76 -55 118.5 -146.5zM684 477q0 99 -33 171.5t-90.5 110.5t-129.5 38q-73 0 -130 -38t-90 -110.5t-33 -171.5v-154q0 -99 33 -171.5t90 -110.5t130 -38q72 0 129.5 38t90.5 110.5t33 171.5v154zM442.5 868q-19.5 10 -42.5 29
q-22 17 -36 24.5t-31 7.5q-38 0 -56 -49l-28 4q0 6 12.5 33.5t40 51.5t72.5 24q25 0 44.5 -10t43.5 -29q20 -16 34.5 -24t31.5 -8q40 0 56 49l28 -4q0 -6 -12.5 -33.5t-40 -51.5t-72.5 -24q-25 0 -44.5 10z" />
    <glyph glyph-name="uni1EE1" unicode="&#x1ee1;" horiz-adv-x="604" 
d="M598 602q13 -14 13 -36q0 -16 -7 -32.5t-20 -29.5q-46 -44 -103 -46q38 -36 59 -87t21 -112q0 -79 -34.5 -140.5t-93.5 -95t-131 -33.5t-131 33.5t-93.5 95t-34.5 140.5t34.5 140t93.5 94.5t131 33.5q79 0 142 -40q21 0 39 7t30 19q4 4 4 10q0 12 -11 27q-8 13 -8 25
q0 17 15.5 29t45.5 12q26 0 39 -14zM451 309q0 89 -37.5 142.5t-111.5 53.5t-111.5 -53.5t-37.5 -142.5v-100q0 -89 37.5 -143t111.5 -54t111.5 54t37.5 143v100zM323 612q-23 10 -53 29q-26 16 -43 24t-34 8q-39 0 -57 -49l-27 4q0 6 12 33.5t40 51.5t73 24q25 0 48 -10
t53 -29q26 -16 43 -24t34 -8q39 0 57 49l27 -4q0 -6 -12 -33.5t-40 -51.5t-73 -24q-25 0 -48 10z" />
    <glyph glyph-name="uni1EE2" unicode="&#x1ee2;" horiz-adv-x="862" 
d="M765.5 606.5q42.5 -91.5 42.5 -206.5q0 -123 -48 -218.5t-134 -148.5t-195 -53t-195 53t-134 148.5t-48 218.5t48 218.5t134 148.5t195 53q88 0 163 -35q14 -3 26 -3q21 0 39 7t30 19q4 4 4 10q0 12 -11 27q-8 13 -8 25q0 17 15.5 29t45.5 12q26 0 39 -14t13 -36
q0 -16 -7 -32.5t-20 -29.5q-49 -48 -113 -46q76 -55 118.5 -146.5zM684 477q0 99 -33 171.5t-90.5 110.5t-129.5 38q-73 0 -130 -38t-90 -110.5t-33 -171.5v-154q0 -99 33 -171.5t90 -110.5t130 -38q72 0 129.5 38t90.5 110.5t33 171.5v154zM394 -173.5q-15 14.5 -15 34.5
t15 34t35 14t34 -14t14 -34t-14 -34.5t-34 -14.5t-35 14.5z" />
    <glyph glyph-name="uni1EE3" unicode="&#x1ee3;" horiz-adv-x="604" 
d="M598 602q13 -14 13 -36q0 -16 -7 -32.5t-20 -29.5q-46 -44 -103 -46q38 -36 59 -87t21 -112q0 -79 -34.5 -140.5t-93.5 -95t-131 -33.5t-131 33.5t-93.5 95t-34.5 140.5t34.5 140t93.5 94.5t131 33.5q79 0 142 -40q21 0 39 7t30 19q4 4 4 10q0 12 -11 27q-8 13 -8 25
q0 17 15.5 29t45.5 12q26 0 39 -14zM451 309q0 89 -37.5 142.5t-111.5 53.5t-111.5 -53.5t-37.5 -142.5v-100q0 -89 37.5 -143t111.5 -54t111.5 54t37.5 143v100zM268 -152.5q-15 14.5 -15 34.5t15 34t35 14t34 -14t14 -34t-14 -34.5t-34 -14.5t-35 14.5z" />
    <glyph glyph-name="uni1EE4" unicode="&#x1ee4;" horiz-adv-x="809" 
d="M187 45.5q-68 65.5 -68 173.5v545l-92 14v22h294v-22l-92 -14v-545q0 -98 55 -150.5t167 -52.5q212 0 212 203v520l-93 39v22h213v-22l-96 -39v-520q0 -120 -67 -179.5t-218 -59.5q-147 0 -215 65.5zM371 -152.5q-15 14.5 -15 34.5t15 34t35 14t34 -14t14 -34t-14 -34.5
t-34 -14.5t-35 14.5z" />
    <glyph glyph-name="uni1EE5" unicode="&#x1ee5;" horiz-adv-x="632" 
d="M128.5 26q-41.5 36 -41.5 107v355l-70 10v20h170v-383q0 -51 21 -80t65 -29q46 0 88.5 30.5t75.5 75.5v356l-70 10v20h170v-488l70 -10v-20h-170v96q-36 -50 -86.5 -78t-108.5 -28q-72 0 -113.5 36zM282 -152.5q-15 14.5 -15 34.5t15 34t35 14t34 -14t14 -34t-14 -34.5
t-34 -14.5t-35 14.5z" />
    <glyph glyph-name="uni1EE6" unicode="&#x1ee6;" horiz-adv-x="809" 
d="M187 45.5q-68 65.5 -68 173.5v545l-92 14v22h294v-22l-92 -14v-545q0 -98 55 -150.5t167 -52.5q212 0 212 203v520l-93 39v22h213v-22l-96 -39v-520q0 -120 -67 -179.5t-218 -59.5q-147 0 -215 65.5zM412.5 863.5q3.5 6.5 11.5 16.5q12 13 18.5 27.5t6.5 41.5
q0 43 -12 59.5t-34 16.5q-21 0 -36.5 -11t-15.5 -28q0 -21 21 -32q0 -14 -13.5 -22t-27.5 -8q-13 0 -22.5 9.5t-9.5 25.5q0 38 25.5 63t79.5 25q107 0 107 -96q0 -31 -14.5 -46t-39.5 -28q-2 -1 -11.5 -6.5t-14 -11t-4.5 -12.5h-18q0 10 3.5 16.5z" />
    <glyph glyph-name="uni1EE7" unicode="&#x1ee7;" horiz-adv-x="632" 
d="M128.5 26q-41.5 36 -41.5 107v355l-70 10v20h170v-383q0 -51 21 -80t65 -29q46 0 88.5 30.5t75.5 75.5v356l-70 10v20h170v-488l70 -10v-20h-170v96q-36 -50 -86.5 -78t-108.5 -28q-72 0 -113.5 36zM323.5 581.5q3.5 6.5 11.5 16.5q12 13 18.5 27.5t6.5 41.5
q0 43 -12 59.5t-34 16.5q-21 0 -36.5 -11t-15.5 -28q0 -21 21 -32q0 -14 -13.5 -22t-27.5 -8q-13 0 -22.5 9.5t-9.5 25.5q0 38 25.5 63t79.5 25q107 0 107 -96q0 -31 -14.5 -46t-39.5 -28q-2 -1 -11.5 -6.5t-14 -11t-4.5 -12.5h-18q0 10 3.5 16.5z" />
    <glyph glyph-name="uni1EE8" unicode="&#x1ee8;" horiz-adv-x="809" 
d="M839 898q13 -14 13 -36q0 -16 -7 -32.5t-20 -29.5q-47 -46 -110 -46q-8 0 -28 2v-537q0 -120 -67 -179.5t-218 -59.5q-147 0 -215 65.5t-68 173.5v545l-92 14v22h294v-22l-92 -14v-545q0 -98 55 -150.5t167 -52.5q212 0 212 203v520l-93 39v22h117v-17q20 0 37.5 7
t29.5 19q4 4 4 10q0 12 -11 27q-8 13 -8 25q0 17 15.5 29t45.5 12q26 0 39 -14zM314 867l132 114q14 12 32 12q20 0 33.5 -14t13.5 -33q0 -15 -9.5 -27.5t-24.5 -17.5l-167 -51z" />
    <glyph glyph-name="uni1EE9" unicode="&#x1ee9;" horiz-adv-x="632" 
d="M657 601q13 -14 13 -36q0 -16 -7 -32.5t-20 -29.5q-46 -44 -106 -46v-427l70 -10v-20h-170v96q-36 -50 -86.5 -78t-108.5 -28q-72 0 -113.5 36t-41.5 107v355l-70 10v20h170v-383q0 -51 21 -80t65 -29q46 0 88.5 30.5t75.5 75.5v356l-70 10v20h170v-27q22 8 35 21
q4 4 4 10q0 12 -11 27q-8 13 -8 25q0 17 15.5 29t45.5 12q26 0 39 -14zM299 583l74 158q5 12 17 20t26 8q19 0 33 -14t14 -33q0 -23 -17 -35l-131 -116z" />
    <glyph glyph-name="uni1EEA" unicode="&#x1eea;" horiz-adv-x="809" 
d="M839 898q13 -14 13 -36q0 -16 -7 -32.5t-20 -29.5q-47 -46 -110 -46q-8 0 -28 2v-537q0 -120 -67 -179.5t-218 -59.5q-147 0 -215 65.5t-68 173.5v545l-92 14v22h294v-22l-92 -14v-545q0 -98 55 -150.5t167 -52.5q212 0 212 203v520l-93 39v22h117v-17q20 0 37.5 7
t29.5 19q4 4 4 10q0 12 -11 27q-8 13 -8 25q0 17 15.5 29t45.5 12q26 0 39 -14zM322 901q-15 5 -25 17.5t-10 27.5q0 18 14 32.5t33 14.5t33 -12l131 -114l-9 -17z" />
    <glyph glyph-name="uni1EEB" unicode="&#x1eeb;" horiz-adv-x="632" 
d="M657 601q13 -14 13 -36q0 -16 -7 -32.5t-20 -29.5q-46 -44 -106 -46v-427l70 -10v-20h-170v96q-36 -50 -86.5 -78t-108.5 -28q-72 0 -113.5 36t-41.5 107v355l-70 10v20h170v-383q0 -51 21 -80t65 -29q46 0 88.5 30.5t75.5 75.5v356l-70 10v20h170v-27q22 8 35 21
q4 4 4 10q0 12 -11 27q-8 13 -8 25q0 17 15.5 29t45.5 12q26 0 39 -14zM189 687q-17 14 -17 35q0 19 14 33t33 14q14 0 26 -8t18 -20l73 -158l-16 -12z" />
    <glyph glyph-name="uni1EEC" unicode="&#x1eec;" horiz-adv-x="809" 
d="M839 898q13 -14 13 -36q0 -16 -7 -32.5t-20 -29.5q-47 -46 -110 -46q-8 0 -28 2v-537q0 -120 -67 -179.5t-218 -59.5q-147 0 -215 65.5t-68 173.5v545l-92 14v22h294v-22l-92 -14v-545q0 -98 55 -150.5t167 -52.5q212 0 212 203v520l-93 39v22h117v-17q20 0 37.5 7
t29.5 19q4 4 4 10q0 12 -11 27q-8 13 -8 25q0 17 15.5 29t45.5 12q26 0 39 -14zM412.5 863.5q3.5 6.5 11.5 16.5q12 13 18.5 27.5t6.5 41.5q0 43 -12 59.5t-34 16.5q-21 0 -36.5 -11t-15.5 -28q0 -21 21 -32q0 -14 -13.5 -22t-27.5 -8q-13 0 -22.5 9.5t-9.5 25.5
q0 38 25.5 63t79.5 25q107 0 107 -96q0 -31 -14.5 -46t-39.5 -28q-2 -1 -11.5 -6.5t-14 -11t-4.5 -12.5h-18q0 10 3.5 16.5z" />
    <glyph glyph-name="uni1EED" unicode="&#x1eed;" horiz-adv-x="632" 
d="M657 601q13 -14 13 -36q0 -16 -7 -32.5t-20 -29.5q-46 -44 -106 -46v-427l70 -10v-20h-170v96q-36 -50 -86.5 -78t-108.5 -28q-72 0 -113.5 36t-41.5 107v355l-70 10v20h170v-383q0 -51 21 -80t65 -29q46 0 88.5 30.5t75.5 75.5v356l-70 10v20h170v-27q22 8 35 21
q4 4 4 10q0 12 -11 27q-8 13 -8 25q0 17 15.5 29t45.5 12q26 0 39 -14zM323.5 581.5q3.5 6.5 11.5 16.5q12 13 18.5 27.5t6.5 41.5q0 43 -12 59.5t-34 16.5q-21 0 -36.5 -11t-15.5 -28q0 -21 21 -32q0 -14 -13.5 -22t-27.5 -8q-13 0 -22.5 9.5t-9.5 25.5q0 38 25.5 63
t79.5 25q107 0 107 -96q0 -31 -14.5 -46t-39.5 -28q-2 -1 -11.5 -6.5t-14 -11t-4.5 -12.5h-18q0 10 3.5 16.5z" />
    <glyph glyph-name="uni1EEE" unicode="&#x1eee;" horiz-adv-x="809" 
d="M839 898q13 -14 13 -36q0 -16 -7 -32.5t-20 -29.5q-47 -46 -110 -46q-8 0 -28 2v-537q0 -120 -67 -179.5t-218 -59.5q-147 0 -215 65.5t-68 173.5v545l-92 14v22h294v-22l-92 -14v-545q0 -98 55 -150.5t167 -52.5q212 0 212 203v520l-93 39v22h117v-17q20 0 37.5 7
t29.5 19q4 4 4 10q0 12 -11 27q-8 13 -8 25q0 17 15.5 29t45.5 12q26 0 39 -14zM416.5 868q-19.5 10 -42.5 29q-22 17 -36 24.5t-31 7.5q-38 0 -56 -49l-28 4q0 6 12.5 33.5t40 51.5t72.5 24q25 0 44.5 -10t43.5 -29q20 -16 34.5 -24t31.5 -8q40 0 56 49l28 -4
q0 -6 -12.5 -33.5t-40 -51.5t-72.5 -24q-25 0 -44.5 10z" />
    <glyph glyph-name="uni1EEF" unicode="&#x1eef;" horiz-adv-x="632" 
d="M657 601q13 -14 13 -36q0 -16 -7 -32.5t-20 -29.5q-46 -44 -106 -46v-427l70 -10v-20h-170v96q-36 -50 -86.5 -78t-108.5 -28q-72 0 -113.5 36t-41.5 107v355l-70 10v20h170v-383q0 -51 21 -80t65 -29q46 0 88.5 30.5t75.5 75.5v356l-70 10v20h170v-27q22 8 35 21
q4 4 4 10q0 12 -11 27q-8 13 -8 25q0 17 15.5 29t45.5 12q26 0 39 -14zM337 612q-23 10 -53 29q-26 16 -43 24t-34 8q-39 0 -57 -49l-27 4q0 6 12 33.5t40 51.5t73 24q25 0 48 -10t53 -29q26 -16 43 -24t34 -8q39 0 57 49l27 -4q0 -6 -12 -33.5t-40 -51.5t-73 -24
q-25 0 -48 10z" />
    <glyph glyph-name="uni1EF0" unicode="&#x1ef0;" horiz-adv-x="809" 
d="M839 898q13 -14 13 -36q0 -16 -7 -32.5t-20 -29.5q-47 -46 -110 -46q-8 0 -28 2v-537q0 -120 -67 -179.5t-218 -59.5q-147 0 -215 65.5t-68 173.5v545l-92 14v22h294v-22l-92 -14v-545q0 -98 55 -150.5t167 -52.5q212 0 212 203v520l-93 39v22h117v-17q20 0 37.5 7
t29.5 19q4 4 4 10q0 12 -11 27q-8 13 -8 25q0 17 15.5 29t45.5 12q26 0 39 -14zM371 -152.5q-15 14.5 -15 34.5t15 34t35 14t34 -14t14 -34t-14 -34.5t-34 -14.5t-35 14.5z" />
    <glyph glyph-name="uni1EF1" unicode="&#x1ef1;" horiz-adv-x="632" 
d="M657 601q13 -14 13 -36q0 -16 -7 -32.5t-20 -29.5q-46 -44 -106 -46v-427l70 -10v-20h-170v96q-36 -50 -86.5 -78t-108.5 -28q-72 0 -113.5 36t-41.5 107v355l-70 10v20h170v-383q0 -51 21 -80t65 -29q46 0 88.5 30.5t75.5 75.5v356l-70 10v20h170v-27q22 8 35 21
q4 4 4 10q0 12 -11 27q-8 13 -8 25q0 17 15.5 29t45.5 12q26 0 39 -14zM250 -181.5q-15 14.5 -15 34.5t15 34t35 14t34 -14t14 -34t-14 -34.5t-34 -14.5t-35 14.5z" />
    <glyph glyph-name="Ygrave" unicode="&#x1ef2;" horiz-adv-x="657" 
d="M196 0v21l93 15v304l-243 424l-79 14v22h301v-22l-93 -14l210 -363l193 329l-120 48v22h224v-22l-77 -49l-208 -356v-337l93 -15v-21h-294zM246 901q-15 5 -25 17.5t-10 27.5q0 18 14 32.5t33 14.5t33 -12l131 -114l-9 -17z" />
    <glyph glyph-name="ygrave" unicode="&#x1ef3;" horiz-adv-x="535" 
d="M34 -266q-32 26 -32 70q0 30 17.5 48.5t43.5 18.5q19 0 34 -8t24 -24q-15 -21 -15 -44q0 -20 13 -33t33 -13q24 0 41.5 16t31.5 56l60 172l-232 494l-67 10v20h249v-20l-70 -12l167 -357l119 344l-86 25v20h180v-20l-68 -25l-224 -651q-21 -59 -50.5 -86t-84.5 -27
q-52 0 -84 26zM160 687q-17 14 -17 35q0 19 14 33t33 14q14 0 26 -8t18 -20l73 -158l-16 -12z" />
    <glyph glyph-name="uni1EF4" unicode="&#x1ef4;" horiz-adv-x="657" 
d="M196 0v21l93 15v304l-243 424l-79 14v22h301v-22l-93 -14l210 -363l193 329l-120 48v22h224v-22l-77 -49l-208 -356v-337l93 -15v-21h-294zM295 -152.5q-15 14.5 -15 34.5t15 34t35 14t34 -14t14 -34t-14 -34.5t-34 -14.5t-35 14.5z" />
    <glyph glyph-name="uni1EF5" unicode="&#x1ef5;" horiz-adv-x="535" 
d="M34 -266q-32 26 -32 70q0 30 17.5 48.5t43.5 18.5q19 0 34 -8t24 -24q-15 -21 -15 -44q0 -20 13 -33t33 -13q24 0 41.5 16t31.5 56l60 172l-232 494l-67 10v20h249v-20l-70 -12l167 -357l119 344l-86 25v20h180v-20l-68 -25l-224 -651q-21 -59 -50.5 -86t-84.5 -27
q-52 0 -84 26zM354 -152.5q-15 14.5 -15 34.5t15 34t35 14t34 -14t14 -34t-14 -34.5t-34 -14.5t-35 14.5z" />
    <glyph glyph-name="uni1EF6" unicode="&#x1ef6;" horiz-adv-x="657" 
d="M196 0v21l93 15v304l-243 424l-79 14v22h301v-22l-93 -14l210 -363l193 329l-120 48v22h224v-22l-77 -49l-208 -356v-337l93 -15v-21h-294zM336.5 863.5q3.5 6.5 11.5 16.5q12 13 18.5 27.5t6.5 41.5q0 43 -12 59.5t-34 16.5q-21 0 -36.5 -11t-15.5 -28q0 -21 21 -32
q0 -14 -13.5 -22t-27.5 -8q-13 0 -22.5 9.5t-9.5 25.5q0 38 25.5 63t79.5 25q107 0 107 -96q0 -31 -14.5 -46t-39.5 -28q-2 -1 -11.5 -6.5t-14 -11t-4.5 -12.5h-18q0 10 3.5 16.5z" />
    <glyph glyph-name="uni1EF7" unicode="&#x1ef7;" horiz-adv-x="535" 
d="M34 -266q-32 26 -32 70q0 30 17.5 48.5t43.5 18.5q19 0 34 -8t24 -24q-15 -21 -15 -44q0 -20 13 -33t33 -13q24 0 41.5 16t31.5 56l60 172l-232 494l-67 10v20h249v-20l-70 -12l167 -357l119 344l-86 25v20h180v-20l-68 -25l-224 -651q-21 -59 -50.5 -86t-84.5 -27
q-52 0 -84 26zM294.5 581.5q3.5 6.5 11.5 16.5q12 13 18.5 27.5t6.5 41.5q0 43 -12 59.5t-34 16.5q-21 0 -36.5 -11t-15.5 -28q0 -21 21 -32q0 -14 -13.5 -22t-27.5 -8q-13 0 -22.5 9.5t-9.5 25.5q0 38 25.5 63t79.5 25q107 0 107 -96q0 -31 -14.5 -46t-39.5 -28
q-2 -1 -11.5 -6.5t-14 -11t-4.5 -12.5h-18q0 10 3.5 16.5z" />
    <glyph glyph-name="uni1EF8" unicode="&#x1ef8;" horiz-adv-x="657" 
d="M196 0v21l93 15v304l-243 424l-79 14v22h301v-22l-93 -14l210 -363l193 329l-120 48v22h224v-22l-77 -49l-208 -356v-337l93 -15v-21h-294zM340.5 868q-19.5 10 -42.5 29q-22 17 -36 24.5t-31 7.5q-38 0 -56 -49l-28 4q0 6 12.5 33.5t40 51.5t72.5 24q25 0 44.5 -10
t43.5 -29q20 -16 34.5 -24t31.5 -8q40 0 56 49l28 -4q0 -6 -12.5 -33.5t-40 -51.5t-72.5 -24q-25 0 -44.5 10z" />
    <glyph glyph-name="uni1EF9" unicode="&#x1ef9;" horiz-adv-x="535" 
d="M34 -266q-32 26 -32 70q0 30 17.5 48.5t43.5 18.5q19 0 34 -8t24 -24q-15 -21 -15 -44q0 -20 13 -33t33 -13q24 0 41.5 16t31.5 56l60 172l-232 494l-67 10v20h249v-20l-70 -12l167 -357l119 344l-86 25v20h180v-20l-68 -25l-224 -651q-21 -59 -50.5 -86t-84.5 -27
q-52 0 -84 26zM308 612q-23 10 -53 29q-26 16 -43 24t-34 8q-39 0 -57 -49l-27 4q0 6 12 33.5t40 51.5t73 24q25 0 48 -10t53 -29q26 -16 43 -24t34 -8q39 0 57 49l27 -4q0 -6 -12 -33.5t-40 -51.5t-73 -24q-25 0 -48 10z" />
    <glyph glyph-name="endash" unicode="&#x2013;" horiz-adv-x="640" 
d="M65 339v36h510v-36h-510z" />
    <glyph glyph-name="emdash" unicode="&#x2014;" horiz-adv-x="1140" 
d="M65 340v34h1010v-34h-1010z" />
    <glyph glyph-name="quoteleft" unicode="&#x2018;" horiz-adv-x="224" 
d="M62.5 564.5q-20.5 25.5 -20.5 66.5q0 56 30.5 101.5t93.5 76.5l11 -16q-30 -18 -54.5 -50.5t-24.5 -65.5q0 -9 5 -14.5t15 -5.5q25 0 42.5 -17.5t17.5 -42.5t-17.5 -41.5t-42.5 -16.5q-35 0 -55.5 25.5z" />
    <glyph glyph-name="quoteright" unicode="&#x2019;" horiz-adv-x="223" 
d="M52 555q30 18 54.5 50.5t24.5 65.5q0 9 -5 14.5t-15 5.5q-25 0 -42.5 17.5t-17.5 42.5t17.5 41.5t42.5 16.5q35 0 55.5 -25.5t20.5 -66.5q0 -56 -30.5 -101.5t-93.5 -76.5z" />
    <glyph glyph-name="quotesinglbase" unicode="&#x201a;" horiz-adv-x="232" 
d="M51 -146q30 18 54.5 50.5t24.5 65.5q0 9 -5 14.5t-15 5.5q-25 0 -42.5 17.5t-17.5 42.5t17.5 41.5t42.5 16.5q35 0 55.5 -25.5t20.5 -66.5q0 -56 -30.5 -101.5t-93.5 -76.5z" />
    <glyph glyph-name="quotedblleft" unicode="&#x201c;" horiz-adv-x="397" 
d="M62.5 564.5q-20.5 25.5 -20.5 66.5q0 56 30.5 101.5t93.5 76.5l11 -16q-30 -18 -54.5 -50.5t-24.5 -65.5q0 -9 5 -14.5t15 -5.5q25 0 42.5 -17.5t17.5 -42.5t-17.5 -41.5t-42.5 -16.5q-35 0 -55.5 25.5zM235.5 564.5q-20.5 25.5 -20.5 66.5q0 56 30.5 101.5t93.5 76.5
l11 -16q-30 -18 -54.5 -50.5t-24.5 -65.5q0 -9 5 -14.5t15 -5.5q25 0 42.5 -17.5t17.5 -42.5t-17.5 -41.5t-42.5 -16.5q-35 0 -55.5 25.5z" />
    <glyph glyph-name="quotedblright" unicode="&#x201d;" horiz-adv-x="396" 
d="M52 555q30 18 54.5 50.5t24.5 65.5q0 9 -5 14.5t-15 5.5q-25 0 -42.5 17.5t-17.5 42.5t17.5 41.5t42.5 16.5q35 0 55.5 -25.5t20.5 -66.5q0 -56 -30.5 -101.5t-93.5 -76.5zM225 555q30 18 54.5 50.5t24.5 65.5q0 9 -5 14.5t-15 5.5q-25 0 -42.5 17.5t-17.5 42.5
t17.5 41.5t42.5 16.5q35 0 55.5 -25.5t20.5 -66.5q0 -56 -30.5 -101.5t-93.5 -76.5z" />
    <glyph glyph-name="quotedblbase" unicode="&#x201e;" horiz-adv-x="405" 
d="M51 -146q30 18 54.5 50.5t24.5 65.5q0 9 -5 14.5t-15 5.5q-25 0 -42.5 17.5t-17.5 42.5t17.5 41.5t42.5 16.5q35 0 55.5 -25.5t20.5 -66.5q0 -56 -30.5 -101.5t-93.5 -76.5zM224 -146q30 18 54.5 50.5t24.5 65.5q0 9 -5 14.5t-15 5.5q-25 0 -42.5 17.5t-17.5 42.5
t17.5 41.5t42.5 16.5q35 0 55.5 -25.5t20.5 -66.5q0 -56 -30.5 -101.5t-93.5 -76.5z" />
    <glyph glyph-name="bullet" unicode="&#x2022;" horiz-adv-x="482" 
d="M177 293q-27 27 -27 64q0 38 27 64.5t64 26.5q38 0 64.5 -26.5t26.5 -64.5q0 -37 -26.5 -64t-64.5 -27q-37 0 -64 27z" />
    <glyph glyph-name="guilsinglleft" unicode="&#x2039;" horiz-adv-x="283" 
d="M220 70l-173 191v18l173 191l9 -10l-94 -190l94 -191z" />
    <glyph glyph-name="guilsinglright" unicode="&#x203a;" horiz-adv-x="283" 
d="M63 70l-9 9l94 191l-94 190l9 10l173 -191v-18z" />
    <glyph glyph-name="fraction" unicode="&#x2044;" horiz-adv-x="405" 
d="M-23 0l400 800h51l-399 -800h-52z" />
    <glyph glyph-name="uni2074" unicode="&#x2074;" horiz-adv-x="362" 
d="M143 375v21l49 8v74h-178v11l224 311h25v-288h48v-34h-48v-74l48 -8v-21h-168zM61 512h131v181z" />
    <glyph glyph-name="Euro" unicode="&#x20ac;" horiz-adv-x="743" 
d="M682 247v-257h-21l-72 51q-36 -29 -82 -45t-91 -16q-99 0 -176 44t-124.5 124.5t-58.5 186.5h-62v25h60q-1 13 -1 40q0 24 1 35h-60v25h62q11 108 59 189.5t126.5 126t178.5 44.5q43 0 87.5 -15t80.5 -42l67 57h21v-248h-21l-62 155q-35 32 -81.5 51t-91.5 19
q-70 0 -123.5 -36t-83.5 -105t-30 -164v-32h337l-13 -25h-324v-75h297l-12 -25h-285v-26q0 -95 29 -164t81 -105.5t122 -36.5q51 0 102 22.5t85 60.5l58 161h21z" />
    <glyph glyph-name="uni20AE" unicode="&#x20ae;" horiz-adv-x="700" 
d="M25 800h651v-223h-30l-75 198h-166v-312l174 75v-27l-174 -76v-82l174 76v-27l-174 -76v-290l92 -15v-21h-294v21l92 15v243l-174 -76v27l174 76v82l-174 -76v28l174 75v360h-165l-76 -198h-29v223z" />
    <glyph glyph-name="uni20B4" unicode="&#x20b4;" horiz-adv-x="683" 
d="M613 480v-25h-566v25h324q42 19 76 59.5t34 114.5q0 71 -30 107.5t-88 36.5q-84 0 -163 -36l-72 -146h-22v204h22l73 -31q83 31 163 31q113 0 173.5 -41.5t60.5 -123.5q0 -73 -41.5 -114.5t-91.5 -60.5h148zM47 380h566v-25h-327q-43 -17 -80 -63.5t-37 -132.5
q0 -47 18 -82.5t48.5 -55t67.5 -19.5q107 0 190 59l86 186h22v-257h-22l-85 43q-90 -53 -183 -53q-116 0 -184 48t-68 139q0 80 44.5 124t96.5 64h-153v25z" />
    <glyph glyph-name="uni20B8" unicode="&#x20b8;" horiz-adv-x="700" 
d="M25 775v25h651v-25h-651zM203 0v21l92 15v629h-165l-76 -198h-29v223h651v-223h-30l-75 198h-166v-629l92 -15v-21h-294z" />
    <glyph glyph-name="uni20BD" unicode="&#x20bd;" horiz-adv-x="680" 
d="M242 310v-75h239v-25h-239v-174l92 -15v-21h-294v21l92 15v174h-87v25h87v75h-87v25h87v429l-92 14v22h314q148 0 220 -63t72 -182t-72 -182t-220 -63h-112zM242 335h98q185 0 185 200v40q0 200 -185 200h-98v-440z" />
    <glyph glyph-name="minus" unicode="&#x2212;" horiz-adv-x="602" 
d="M76 338v38h450v-38h-450z" />
    <glyph glyph-name="uni2215" unicode="&#x2215;" horiz-adv-x="438" 
d="M34 0l311 700h51l-310 -700h-52z" />
    <glyph glyph-name="uni0492.loclBSH" horiz-adv-x="672" 
d="M40 0v21l92 15v728l-92 14v22h602v-229h-27l-77 204h-296v-375h169l59 145h27v-316h-27l-59 147h-169v-340l92 -15v-21h-294z" />
    <glyph glyph-name="uni0498.loclBSH" horiz-adv-x="676" 
d="M561 47q-61 -57 -181 -66l-43 -201h-31l-44 209q-31 8 -56 19.5t-39 20.5t-17 12l-66 -51h-21v257h21l58 -167q0 -3 25 -23t68 -37t101 -17q85 0 126 53t41 149v11q0 94 -46 143.5t-146 49.5h-72v22h72q80 0 119.5 44.5t39.5 129.5v6q0 94 -37.5 140t-106.5 46
q-49 0 -84.5 -12.5t-56 -27.5t-20.5 -17l-62 -168h-21v248h21l67 -46q0 1 22.5 13.5t57.5 22.5t77 10q138 0 200.5 -55t62.5 -152q0 -74 -47.5 -126t-141.5 -64q117 -18 169 -74t52 -143q0 -102 -61 -159z" />
    <glyph glyph-name="uni04AA.loclBSH" horiz-adv-x="746" 
d="M682 247v-257h-21l-72 51q-54 -43 -120 -55l-44 -206h-31l-44 205q-90 15 -157 71t-103 144.5t-36 199.5q0 124 45.5 219.5t129 148t192.5 52.5q43 0 87.5 -15t80.5 -42l67 57h21v-248h-21l-62 155q-35 32 -81.5 51t-91.5 19q-70 0 -123.5 -36t-83.5 -105t-30 -164v-183
q0 -95 29 -164t81 -105.5t122 -36.5q51 0 102 22.5t85 60.5l58 161h21z" />
    <glyph glyph-name="uni04AA.loclCHU" horiz-adv-x="746" 
d="M326 -233l6 22q12 -3 28 -3q33 0 56 16t23 51q0 27 -18 45.5t-54 22.5l16 61q-99 8 -173.5 62.5t-114.5 146.5t-40 209q0 124 45.5 219.5t129 148t192.5 52.5q43 0 87.5 -15t80.5 -42l67 57h21v-248h-21l-62 155q-35 32 -81.5 51t-91.5 19q-70 0 -123.5 -36t-83.5 -105
t-30 -164v-183q0 -95 29 -164t81 -105.5t122 -36.5q51 0 102 22.5t85 60.5l58 161h21v-257h-21l-72 51q-36 -29 -82 -45t-91 -16h-7l-8 -34q57 -2 89.5 -24.5t32.5 -67.5q0 -48 -36.5 -72t-89.5 -24q-40 0 -72 9z" />
    <glyph glyph-name="uni0493.loclBSH" horiz-adv-x="500" 
d="M464 518l15 -190h-28l-88 165h-166v-233h138v-33h-138v-197l90 -10v-20h-260v20l70 10v197h-73v33h73v228l-70 10v20h437z" />
    <glyph glyph-name="uni0499.loclBSH" horiz-adv-x="532" 
d="M440.5 36.5q-49.5 -38.5 -149.5 -45.5l-33 -155h-23l-33 156q-86 6 -125.5 36.5t-39.5 72.5q0 30 17.5 48.5t46.5 18.5q19 0 34 -10t21 -28q-17 -20 -17 -42q0 -34 30.5 -56.5t79.5 -22.5q60 0 96.5 31.5t36.5 92.5v13q0 55 -40.5 84.5t-100.5 29.5h-56v24h56
q57 0 87 27.5t30 80.5v4q0 112 -106 112q-57 0 -105 -28l-60 -143h-21l11 190l60 -29q56 29 117 29q112 0 162 -32.5t50 -97.5q0 -47 -34.5 -78t-103.5 -42v-1q81 -8 121.5 -43t40.5 -93q0 -65 -49.5 -103.5z" />
    <glyph glyph-name="uni04AB.loclBSH" horiz-adv-x="547" 
d="M420.5 50.5q50.5 38.5 62.5 101.5h23q-12 -64 -55.5 -106t-107.5 -53l-33 -157h-23l-33 158q-60 11 -108 46.5t-75.5 92t-27.5 126.5q0 83 36.5 144t95.5 92.5t127 31.5q57 0 104 -19.5t74.5 -54.5t27.5 -79q0 -33 -17 -50.5t-45 -17.5q-27 0 -45 18t-18 45q15 10 21 22
t6 30q0 37 -29.5 60.5t-78.5 23.5q-72 0 -110.5 -51.5t-38.5 -144.5v-100q0 -89 37.5 -143t111.5 -54q68 0 118.5 38.5z" />
    </font>
</defs>
</svg>
